<?xml version="1.0" encoding="UTF-8" standalone="no"?><svg xmlns="http://www.w3.org/2000/svg" xmlns:xlink="http://www.w3.org/1999/xlink" clip-rule="evenodd" stroke-miterlimit="4.00" viewBox="0 0 318 54"><desc>SVG generated by Keynote</desc><defs></defs><g transform="matrix(1.00, 0.00, -0.00, -1.00, 0.0, 54.0)"><path d="M 1.9 52.6 L 316.7 52.6 L 316.7 1.6 L 1.9 1.6 Z M 1.9 52.6 " fill="#D9D9D9"></path><g><clipPath id="clip-323"><path d="M 1.9 1.6 L 316.7 1.6 L 316.7 52.6 L 1.9 52.6 Z M 1.9 1.6 "></path></clipPath><g clip-path="url(#clip-323)"><text xml:space="preserve" font-family="Helvetica-Bold" font-weight="bold" font-size="16.0" fill="#52575F" transform="matrix(1.00, 0.00, -0.00, -1.00, 21.0, 30.0)">B</text><text xml:space="preserve" font-family="Helvetica-Bold" font-weight="bold" font-size="16.0" fill="#52575F" transform="matrix(1.00, 0.00, -0.00, -1.00, 32.6, 30.0)">r</text><text xml:space="preserve" font-family="Helvetica-Bold" font-weight="bold" font-size="16.0" fill="#52575F" transform="matrix(1.00, 0.00, -0.00, -1.00, 38.8, 30.0)">i</text><text xml:space="preserve" font-family="Helvetica-Bold" font-weight="bold" font-size="16.0" fill="#52575F" transform="matrix(1.00, 0.00, -0.00, -1.00, 43.2, 30.0)">n</text><text xml:space="preserve" font-family="Helvetica-Bold" font-weight="bold" font-size="16.0" fill="#52575F" transform="matrix(1.00, 0.00, -0.00, -1.00, 53.0, 30.0)">g</text><text xml:space="preserve" font-family="Helvetica-Bold" font-weight="bold" font-size="16.0" fill="#52575F" transform="matrix(1.00, 0.00, -0.00, -1.00, 62.8, 30.0)"> </text><text xml:space="preserve" font-family="Helvetica-Bold" font-weight="bold" font-size="16.0" fill="#52575F" transform="matrix(1.00, 0.00, -0.00, -1.00, 67.2, 30.0)">a</text><text xml:space="preserve" font-family="Helvetica-Bold" font-weight="bold" font-size="16.0" fill="#52575F" transform="matrix(1.00, 0.00, -0.00, -1.00, 76.1, 30.0)">u</text><text xml:space="preserve" font-family="Helvetica-Bold" font-weight="bold" font-size="16.0" fill="#52575F" transform="matrix(1.00, 0.00, -0.00, -1.00, 85.9, 30.0)">d</text><text xml:space="preserve" font-family="Helvetica-Bold" font-weight="bold" font-size="16.0" fill="#52575F" transform="matrix(1.00, 0.00, -0.00, -1.00, 95.7, 30.0)">i</text><text xml:space="preserve" font-family="Helvetica-Bold" font-weight="bold" font-size="16.0" fill="#52575F" transform="matrix(1.00, 0.00, -0.00, -1.00, 100.1, 30.0)">e</text><text xml:space="preserve" font-family="Helvetica-Bold" font-weight="bold" font-size="16.0" fill="#52575F" transform="matrix(1.00, 0.00, -0.00, -1.00, 109.0, 30.0)">n</text><text xml:space="preserve" font-family="Helvetica-Bold" font-weight="bold" font-size="16.0" fill="#52575F" transform="matrix(1.00, 0.00, -0.00, -1.00, 118.8, 30.0)">c</text><text xml:space="preserve" font-family="Helvetica-Bold" font-weight="bold" font-size="16.0" fill="#52575F" transform="matrix(1.00, 0.00, -0.00, -1.00, 127.7, 30.0)">e</text><text xml:space="preserve" font-family="Helvetica-Bold" font-weight="bold" font-size="16.0" fill="#52575F" transform="matrix(1.00, 0.00, -0.00, -1.00, 136.6, 30.0)"> </text><text xml:space="preserve" font-family="Helvetica-Bold" font-weight="bold" font-size="16.0" fill="#52575F" transform="matrix(1.00, 0.00, -0.00, -1.00, 141.1, 30.0)">o</text><text xml:space="preserve" font-family="Helvetica-Bold" font-weight="bold" font-size="16.0" fill="#52575F" transform="matrix(1.00, 0.00, -0.00, -1.00, 150.8, 30.0)">n</text><text xml:space="preserve" font-family="Helvetica-Bold" font-weight="bold" font-size="16.0" fill="#52575F" transform="matrix(1.00, 0.00, -0.00, -1.00, 160.6, 30.0)"> </text><text xml:space="preserve" font-family="Helvetica-Bold" font-weight="bold" font-size="16.0" fill="#52575F" transform="matrix(1.00, 0.00, -0.00, -1.00, 165.1, 30.0)">y</text><text xml:space="preserve" font-family="Helvetica-Bold" font-weight="bold" font-size="16.0" fill="#52575F" transform="matrix(1.00, 0.00, -0.00, -1.00, 174.0, 30.0)">o</text><text xml:space="preserve" font-family="Helvetica-Bold" font-weight="bold" font-size="16.0" fill="#52575F" transform="matrix(1.00, 0.00, -0.00, -1.00, 183.8, 30.0)">u</text><text xml:space="preserve" font-family="Helvetica-Bold" font-weight="bold" font-size="16.0" fill="#52575F" transform="matrix(1.00, 0.00, -0.00, -1.00, 193.5, 30.0)">r</text><text xml:space="preserve" font-family="Helvetica-Bold" font-weight="bold" font-size="16.0" fill="#52575F" transform="matrix(1.00, 0.00, -0.00, -1.00, 21.0, 11.0)">d</text><text xml:space="preserve" font-family="Helvetica-Bold" font-weight="bold" font-size="16.0" fill="#52575F" transform="matrix(1.00, 0.00, -0.00, -1.00, 30.8, 11.0)">i</text><text xml:space="preserve" font-family="Helvetica-Bold" font-weight="bold" font-size="16.0" fill="#52575F" transform="matrix(1.00, 0.00, -0.00, -1.00, 35.2, 11.0)">g</text><text xml:space="preserve" font-family="Helvetica-Bold" font-weight="bold" font-size="16.0" fill="#52575F" transform="matrix(1.00, 0.00, -0.00, -1.00, 45.0, 11.0)">i</text><text xml:space="preserve" font-family="Helvetica-Bold" font-weight="bold" font-size="16.0" fill="#52575F" transform="matrix(1.00, 0.00, -0.00, -1.00, 49.4, 11.0)">t</text><text xml:space="preserve" font-family="Helvetica-Bold" font-weight="bold" font-size="16.0" fill="#52575F" transform="matrix(1.00, 0.00, -0.00, -1.00, 54.8, 11.0)">a</text><text xml:space="preserve" font-family="Helvetica-Bold" font-weight="bold" font-size="16.0" fill="#52575F" transform="matrix(1.00, 0.00, -0.00, -1.00, 63.7, 11.0)">l</text><text xml:space="preserve" font-family="Helvetica-Bold" font-weight="bold" font-size="16.0" fill="#52575F" transform="matrix(1.00, 0.00, -0.00, -1.00, 68.1, 11.0)"> </text><text xml:space="preserve" font-family="Helvetica-Bold" font-weight="bold" font-size="16.0" fill="#52575F" transform="matrix(1.00, 0.00, -0.00, -1.00, 72.5, 11.0)">p</text><text xml:space="preserve" font-family="Helvetica-Bold" font-weight="bold" font-size="16.0" fill="#52575F" transform="matrix(1.00, 0.00, -0.00, -1.00, 82.3, 11.0)">r</text><text xml:space="preserve" font-family="Helvetica-Bold" font-weight="bold" font-size="16.0" fill="#52575F" transform="matrix(1.00, 0.00, -0.00, -1.00, 88.5, 11.0)">o</text><text xml:space="preserve" font-family="Helvetica-Bold" font-weight="bold" font-size="16.0" fill="#52575F" transform="matrix(1.00, 0.00, -0.00, -1.00, 98.3, 11.0)">p</text><text xml:space="preserve" font-family="Helvetica-Bold" font-weight="bold" font-size="16.0" fill="#52575F" transform="matrix(1.00, 0.00, -0.00, -1.00, 108.1, 11.0)">e</text><text xml:space="preserve" font-family="Helvetica-Bold" font-weight="bold" font-size="16.0" fill="#52575F" transform="matrix(1.00, 0.00, -0.00, -1.00, 117.0, 11.0)">r</text><text xml:space="preserve" font-family="Helvetica-Bold" font-weight="bold" font-size="16.0" fill="#52575F" transform="matrix(1.00, 0.00, -0.00, -1.00, 123.2, 11.0)">t</text><text xml:space="preserve" font-family="Helvetica-Bold" font-weight="bold" font-size="16.0" fill="#52575F" transform="matrix(1.00, 0.00, -0.00, -1.00, 128.5, 11.0)">i</text><text xml:space="preserve" font-family="Helvetica-Bold" font-weight="bold" font-size="16.0" fill="#52575F" transform="matrix(1.00, 0.00, -0.00, -1.00, 133.0, 11.0)">e</text><text xml:space="preserve" font-family="Helvetica-Bold" font-weight="bold" font-size="16.0" fill="#52575F" transform="matrix(1.00, 0.00, -0.00, -1.00, 141.9, 11.0)">s</text></g></g></g></svg>