<?xml version="1.0" encoding="UTF-8" standalone="no"?><svg xmlns="http://www.w3.org/2000/svg" xmlns:xlink="http://www.w3.org/1999/xlink" clip-rule="evenodd" stroke-miterlimit="4.00" viewBox="0 0 318 54"><desc>SVG generated by Keynote</desc><defs></defs><g transform="matrix(1.00, 0.00, -0.00, -1.00, 0.0, 54.0)"><path d="M 1.9 52.2 L 316.7 52.2 L 316.7 1.2 L 1.9 1.2 Z M 1.9 52.2 " fill="#D9D9D9"></path><g><clipPath id="clip-326"><path d="M 1.9 1.2 L 316.7 1.2 L 316.7 52.2 L 1.9 52.2 Z M 1.9 1.2 "></path></clipPath><g clip-path="url(#clip-326)"><text xml:space="preserve" font-family="Helvetica-Bold" font-weight="bold" font-size="16.0" fill="#52575F" transform="matrix(1.00, 0.00, -0.00, -1.00, 21.0, 30.0)">B</text><text xml:space="preserve" font-family="Helvetica-Bold" font-weight="bold" font-size="16.0" fill="#52575F" transform="matrix(1.00, 0.00, -0.00, -1.00, 32.6, 30.0)">u</text><text xml:space="preserve" font-family="Helvetica-Bold" font-weight="bold" font-size="16.0" fill="#52575F" transform="matrix(1.00, 0.00, -0.00, -1.00, 42.3, 30.0)">i</text><text xml:space="preserve" font-family="Helvetica-Bold" font-weight="bold" font-size="16.0" fill="#52575F" transform="matrix(1.00, 0.00, -0.00, -1.00, 46.8, 30.0)">l</text><text xml:space="preserve" font-family="Helvetica-Bold" font-weight="bold" font-size="16.0" fill="#52575F" transform="matrix(1.00, 0.00, -0.00, -1.00, 51.2, 30.0)">d</text><text xml:space="preserve" font-family="Helvetica-Bold" font-weight="bold" font-size="16.0" fill="#52575F" transform="matrix(1.00, 0.00, -0.00, -1.00, 61.0, 30.0)"> </text><text xml:space="preserve" font-family="Helvetica-Bold" font-weight="bold" font-size="16.0" fill="#52575F" transform="matrix(1.00, 0.00, -0.00, -1.00, 65.4, 30.0)">1</text><text xml:space="preserve" font-family="Helvetica-Bold" font-weight="bold" font-size="16.0" fill="#52575F" transform="matrix(1.00, 0.00, -0.00, -1.00, 74.3, 30.0)">s</text><text xml:space="preserve" font-family="Helvetica-Bold" font-weight="bold" font-size="16.0" fill="#52575F" transform="matrix(1.00, 0.00, -0.00, -1.00, 83.2, 30.0)">t</text><text xml:space="preserve" font-family="Helvetica-Bold" font-weight="bold" font-size="16.0" fill="#52575F" transform="matrix(1.00, 0.00, -0.00, -1.00, 88.6, 30.0)"> </text><text xml:space="preserve" font-family="Helvetica-Bold" font-weight="bold" font-size="16.0" fill="#52575F" transform="matrix(1.00, 0.00, -0.00, -1.00, 93.0, 30.0)">p</text><text xml:space="preserve" font-family="Helvetica-Bold" font-weight="bold" font-size="16.0" fill="#52575F" transform="matrix(1.00, 0.00, -0.00, -1.00, 102.8, 30.0)">a</text><text xml:space="preserve" font-family="Helvetica-Bold" font-weight="bold" font-size="16.0" fill="#52575F" transform="matrix(1.00, 0.00, -0.00, -1.00, 111.7, 30.0)">r</text><text xml:space="preserve" font-family="Helvetica-Bold" font-weight="bold" font-size="16.0" fill="#52575F" transform="matrix(1.00, 0.00, -0.00, -1.00, 117.9, 30.0)">t</text><text xml:space="preserve" font-family="Helvetica-Bold" font-weight="bold" font-size="16.0" fill="#52575F" transform="matrix(1.00, 0.00, -0.00, -1.00, 123.2, 30.0)">y</text><text xml:space="preserve" font-family="Helvetica-Bold" font-weight="bold" font-size="16.0" fill="#52575F" transform="matrix(1.00, 0.00, -0.00, -1.00, 132.1, 30.0)"> </text><text xml:space="preserve" font-family="Helvetica-Bold" font-weight="bold" font-size="16.0" fill="#52575F" transform="matrix(1.00, 0.00, -0.00, -1.00, 136.6, 30.0)">d</text><text xml:space="preserve" font-family="Helvetica-Bold" font-weight="bold" font-size="16.0" fill="#52575F" transform="matrix(1.00, 0.00, -0.00, -1.00, 146.3, 30.0)">a</text><text xml:space="preserve" font-family="Helvetica-Bold" font-weight="bold" font-size="16.0" fill="#52575F" transform="matrix(1.00, 0.00, -0.00, -1.00, 155.2, 30.0)">t</text><text xml:space="preserve" font-family="Helvetica-Bold" font-weight="bold" font-size="16.0" fill="#52575F" transform="matrix(1.00, 0.00, -0.00, -1.00, 160.6, 30.0)">a</text><text xml:space="preserve" font-family="Helvetica-Bold" font-weight="bold" font-size="16.0" fill="#52575F" transform="matrix(1.00, 0.00, -0.00, -1.00, 21.0, 11.0)">a</text><text xml:space="preserve" font-family="Helvetica-Bold" font-weight="bold" font-size="16.0" fill="#52575F" transform="matrix(1.00, 0.00, -0.00, -1.00, 29.9, 11.0)">s</text><text xml:space="preserve" font-family="Helvetica-Bold" font-weight="bold" font-size="16.0" fill="#52575F" transform="matrix(1.00, 0.00, -0.00, -1.00, 38.8, 11.0)">s</text><text xml:space="preserve" font-family="Helvetica-Bold" font-weight="bold" font-size="16.0" fill="#52575F" transform="matrix(1.00, 0.00, -0.00, -1.00, 47.7, 11.0)">e</text><text xml:space="preserve" font-family="Helvetica-Bold" font-weight="bold" font-size="16.0" fill="#52575F" transform="matrix(1.00, 0.00, -0.00, -1.00, 56.6, 11.0)">t</text><text xml:space="preserve" font-family="Helvetica-Bold" font-weight="bold" font-size="16.0" fill="#52575F" transform="matrix(1.00, 0.00, -0.00, -1.00, 61.9, 11.0)">s</text></g></g></g></svg>