<?xml version="1.0" encoding="UTF-8" standalone="no"?><svg xmlns="http://www.w3.org/2000/svg" xmlns:xlink="http://www.w3.org/1999/xlink" clip-rule="evenodd" stroke-miterlimit="4.00" viewBox="0 0 243 85"><desc>SVG generated by Keynote</desc><defs></defs><g transform="matrix(1.00, 0.00, -0.00, -1.00, 0.0, 85.0)"><text xml:space="preserve" font-family="Helvetica" font-size="26.0" fill="#52575F" transform="matrix(1.00, 0.00, -0.00, -1.00, 1.0, 65.0)">P</text><text xml:space="preserve" font-family="Helvetica" font-size="26.0" fill="#52575F" transform="matrix(1.00, 0.00, -0.00, -1.00, 18.3, 65.0)">u</text><text xml:space="preserve" font-family="Helvetica" font-size="26.0" fill="#52575F" transform="matrix(1.00, 0.00, -0.00, -1.00, 32.8, 65.0)">t</text><text xml:space="preserve" font-family="Helvetica" font-size="26.0" fill="#52575F" transform="matrix(1.00, 0.00, -0.00, -1.00, 40.0, 65.0)"> </text><text xml:space="preserve" font-family="Helvetica" font-size="26.0" fill="#52575F" transform="matrix(1.00, 0.00, -0.00, -1.00, 47.2, 65.0)">b</text><text xml:space="preserve" font-family="Helvetica" font-size="26.0" fill="#52575F" transform="matrix(1.00, 0.00, -0.00, -1.00, 61.7, 65.0)">a</text><text xml:space="preserve" font-family="Helvetica" font-size="26.0" fill="#52575F" transform="matrix(1.00, 0.00, -0.00, -1.00, 76.2, 65.0)">c</text><text xml:space="preserve" font-family="Helvetica" font-size="26.0" fill="#52575F" transform="matrix(1.00, 0.00, -0.00, -1.00, 89.2, 65.0)">k</text><text xml:space="preserve" font-family="Helvetica" font-size="26.0" fill="#52575F" transform="matrix(1.00, 0.00, -0.00, -1.00, 102.2, 65.0)"> </text><text xml:space="preserve" font-family="Helvetica" font-size="26.0" fill="#52575F" transform="matrix(1.00, 0.00, -0.00, -1.00, 109.4, 65.0)">t</text><text xml:space="preserve" font-family="Helvetica" font-size="26.0" fill="#52575F" transform="matrix(1.00, 0.00, -0.00, -1.00, 116.6, 65.0)">h</text><text xml:space="preserve" font-family="Helvetica" font-size="26.0" fill="#52575F" transform="matrix(1.00, 0.00, -0.00, -1.00, 131.1, 65.0)">e</text><text xml:space="preserve" font-family="Helvetica" font-size="26.0" fill="#52575F" transform="matrix(1.00, 0.00, -0.00, -1.00, 145.5, 65.0)"> </text><text xml:space="preserve" font-family="Helvetica" font-size="26.0" fill="#52575F" transform="matrix(1.00, 0.00, -0.00, -1.00, 152.8, 65.0)">7</text><text xml:space="preserve" font-family="Helvetica" font-size="26.0" fill="#52575F" transform="matrix(1.00, 0.00, -0.00, -1.00, 167.2, 65.0)"> </text><text xml:space="preserve" font-family="Helvetica" font-size="26.0" fill="#52575F" transform="matrix(1.00, 0.00, -0.00, -1.00, 174.4, 65.0)">b</text><text xml:space="preserve" font-family="Helvetica" font-size="26.0" fill="#52575F" transform="matrix(1.00, 0.00, -0.00, -1.00, 188.9, 65.0)">r</text><text xml:space="preserve" font-family="Helvetica" font-size="26.0" fill="#52575F" transform="matrix(1.00, 0.00, -0.00, -1.00, 197.6, 65.0)">a</text><text xml:space="preserve" font-family="Helvetica" font-size="26.0" fill="#52575F" transform="matrix(1.00, 0.00, -0.00, -1.00, 212.0, 65.0)">n</text><text xml:space="preserve" font-family="Helvetica" font-size="26.0" fill="#52575F" transform="matrix(1.00, 0.00, -0.00, -1.00, 226.5, 65.0)">d</text><text xml:space="preserve" font-family="Helvetica" font-size="26.0" fill="#52575F" transform="matrix(1.00, 0.00, -0.00, -1.00, 241.0, 65.0)"> </text><text xml:space="preserve" font-family="Helvetica" font-size="26.0" fill="#52575F" transform="matrix(1.00, 0.00, -0.00, -1.00, 1.0, 34.0)">b</text><text xml:space="preserve" font-family="Helvetica" font-size="26.0" fill="#52575F" transform="matrix(1.00, 0.00, -0.00, -1.00, 15.5, 34.0)">u</text><text xml:space="preserve" font-family="Helvetica" font-size="26.0" fill="#52575F" transform="matrix(1.00, 0.00, -0.00, -1.00, 29.9, 34.0)">i</text><text xml:space="preserve" font-family="Helvetica" font-size="26.0" fill="#52575F" transform="matrix(1.00, 0.00, -0.00, -1.00, 35.7, 34.0)">l</text><text xml:space="preserve" font-family="Helvetica" font-size="26.0" fill="#52575F" transform="matrix(1.00, 0.00, -0.00, -1.00, 41.5, 34.0)">d</text><text xml:space="preserve" font-family="Helvetica" font-size="26.0" fill="#52575F" transform="matrix(1.00, 0.00, -0.00, -1.00, 56.0, 34.0)">i</text><text xml:space="preserve" font-family="Helvetica" font-size="26.0" fill="#52575F" transform="matrix(1.00, 0.00, -0.00, -1.00, 61.7, 34.0)">n</text><text xml:space="preserve" font-family="Helvetica" font-size="26.0" fill="#52575F" transform="matrix(1.00, 0.00, -0.00, -1.00, 76.2, 34.0)">g</text><text xml:space="preserve" font-family="Helvetica" font-size="26.0" fill="#52575F" transform="matrix(1.00, 0.00, -0.00, -1.00, 90.7, 34.0)"> </text><text xml:space="preserve" font-family="Helvetica" font-size="26.0" fill="#52575F" transform="matrix(1.00, 0.00, -0.00, -1.00, 97.9, 34.0)">s</text><text xml:space="preserve" font-family="Helvetica" font-size="26.0" fill="#52575F" transform="matrix(1.00, 0.00, -0.00, -1.00, 110.9, 34.0)">t</text><text xml:space="preserve" font-family="Helvetica" font-size="26.0" fill="#52575F" transform="matrix(1.00, 0.00, -0.00, -1.00, 118.1, 34.0)">e</text><text xml:space="preserve" font-family="Helvetica" font-size="26.0" fill="#52575F" transform="matrix(1.00, 0.00, -0.00, -1.00, 132.6, 34.0)">p</text><text xml:space="preserve" font-family="Helvetica" font-size="26.0" fill="#52575F" transform="matrix(1.00, 0.00, -0.00, -1.00, 147.0, 34.0)">s</text><text xml:space="preserve" font-family="Helvetica" font-size="26.0" fill="#52575F" transform="matrix(1.00, 0.00, -0.00, -1.00, 160.0, 34.0)"> </text><text xml:space="preserve" font-family="Helvetica" font-size="26.0" fill="#52575F" transform="matrix(1.00, 0.00, -0.00, -1.00, 167.3, 34.0)">i</text><text xml:space="preserve" font-family="Helvetica" font-size="26.0" fill="#52575F" transform="matrix(1.00, 0.00, -0.00, -1.00, 173.0, 34.0)">n</text><text xml:space="preserve" font-family="Helvetica" font-size="26.0" fill="#52575F" transform="matrix(1.00, 0.00, -0.00, -1.00, 187.5, 34.0)"> </text><text xml:space="preserve" font-family="Helvetica" font-size="26.0" fill="#52575F" transform="matrix(1.00, 0.00, -0.00, -1.00, 194.7, 34.0)">t</text><text xml:space="preserve" font-family="Helvetica" font-size="26.0" fill="#52575F" transform="matrix(1.00, 0.00, -0.00, -1.00, 201.9, 34.0)">h</text><text xml:space="preserve" font-family="Helvetica" font-size="26.0" fill="#52575F" transform="matrix(1.00, 0.00, -0.00, -1.00, 216.4, 34.0)">e</text><text xml:space="preserve" font-family="Helvetica" font-size="26.0" fill="#52575F" transform="matrix(1.00, 0.00, -0.00, -1.00, 230.9, 34.0)"> </text><text xml:space="preserve" font-family="Helvetica" font-size="26.0" fill="#52575F" transform="matrix(1.00, 0.00, -0.00, -1.00, 1.0, 3.0)">c</text><text xml:space="preserve" font-family="Helvetica" font-size="26.0" fill="#52575F" transform="matrix(1.00, 0.00, -0.00, -1.00, 14.0, 3.0)">o</text><text xml:space="preserve" font-family="Helvetica" font-size="26.0" fill="#52575F" transform="matrix(1.00, 0.00, -0.00, -1.00, 28.5, 3.0)">r</text><text xml:space="preserve" font-family="Helvetica" font-size="26.0" fill="#52575F" transform="matrix(1.00, 0.00, -0.00, -1.00, 37.1, 3.0)">r</text><text xml:space="preserve" font-family="Helvetica" font-size="26.0" fill="#52575F" transform="matrix(1.00, 0.00, -0.00, -1.00, 45.8, 3.0)">e</text><text xml:space="preserve" font-family="Helvetica" font-size="26.0" fill="#52575F" transform="matrix(1.00, 0.00, -0.00, -1.00, 60.2, 3.0)">c</text><text xml:space="preserve" font-family="Helvetica" font-size="26.0" fill="#52575F" transform="matrix(1.00, 0.00, -0.00, -1.00, 73.2, 3.0)">t</text><text xml:space="preserve" font-family="Helvetica" font-size="26.0" fill="#52575F" transform="matrix(1.00, 0.00, -0.00, -1.00, 80.5, 3.0)"> </text><text xml:space="preserve" font-family="Helvetica" font-size="26.0" fill="#52575F" transform="matrix(1.00, 0.00, -0.00, -1.00, 87.7, 3.0)">o</text><text xml:space="preserve" font-family="Helvetica" font-size="26.0" fill="#52575F" transform="matrix(1.00, 0.00, -0.00, -1.00, 102.1, 3.0)">r</text><text xml:space="preserve" font-family="Helvetica" font-size="26.0" fill="#52575F" transform="matrix(1.00, 0.00, -0.00, -1.00, 110.8, 3.0)">d</text><text xml:space="preserve" font-family="Helvetica" font-size="26.0" fill="#52575F" transform="matrix(1.00, 0.00, -0.00, -1.00, 125.3, 3.0)">e</text><text xml:space="preserve" font-family="Helvetica" font-size="26.0" fill="#52575F" transform="matrix(1.00, 0.00, -0.00, -1.00, 139.7, 3.0)">r</text><text xml:space="preserve" font-family="Helvetica" font-size="26.0" fill="#52575F" transform="matrix(1.00, 0.00, -0.00, -1.00, 148.4, 3.0)"> </text></g></svg>