<?xml version="1.0" encoding="UTF-8" standalone="no"?><svg xmlns="http://www.w3.org/2000/svg" xmlns:xlink="http://www.w3.org/1999/xlink" clip-rule="evenodd" stroke-miterlimit="4.00" viewBox="0 0 318 54"><desc>SVG generated by Keynote</desc><defs></defs><g transform="matrix(1.00, 0.00, -0.00, -1.00, 0.0, 54.0)"><path d="M 1.9 52.8 L 316.7 52.8 L 316.7 1.8 L 1.9 1.8 Z M 1.9 52.8 " fill="#D9D9D9"></path><g><clipPath id="clip-329"><path d="M 1.9 1.8 L 316.7 1.8 L 316.7 52.8 L 1.9 52.8 Z M 1.9 1.8 "></path></clipPath><g clip-path="url(#clip-329)"><text xml:space="preserve" font-family="Helvetica-Bold" font-weight="bold" font-size="16.0" fill="#52575F" transform="matrix(1.00, 0.00, -0.00, -1.00, 21.0, 30.0)">R</text><text xml:space="preserve" font-family="Helvetica-Bold" font-weight="bold" font-size="16.0" fill="#52575F" transform="matrix(1.00, 0.00, -0.00, -1.00, 32.6, 30.0)">e</text><text xml:space="preserve" font-family="Helvetica-Bold" font-weight="bold" font-size="16.0" fill="#52575F" transform="matrix(1.00, 0.00, -0.00, -1.00, 41.5, 30.0)">ï¬</text><text xml:space="preserve" font-family="Helvetica-Bold" font-weight="bold" font-size="16.0" fill="#52575F" transform="matrix(1.00, 0.00, -0.00, -1.00, 51.2, 30.0)">n</text><text xml:space="preserve" font-family="Helvetica-Bold" font-weight="bold" font-size="16.0" fill="#52575F" transform="matrix(1.00, 0.00, -0.00, -1.00, 61.0, 30.0)">e</text><text xml:space="preserve" font-family="Helvetica-Bold" font-weight="bold" font-size="16.0" fill="#52575F" transform="matrix(1.00, 0.00, -0.00, -1.00, 69.9, 30.0)"> </text><text xml:space="preserve" font-family="Helvetica-Bold" font-weight="bold" font-size="16.0" fill="#52575F" transform="matrix(1.00, 0.00, -0.00, -1.00, 74.4, 30.0)">y</text><text xml:space="preserve" font-family="Helvetica-Bold" font-weight="bold" font-size="16.0" fill="#52575F" transform="matrix(1.00, 0.00, -0.00, -1.00, 83.3, 30.0)">o</text><text xml:space="preserve" font-family="Helvetica-Bold" font-weight="bold" font-size="16.0" fill="#52575F" transform="matrix(1.00, 0.00, -0.00, -1.00, 93.0, 30.0)">u</text><text xml:space="preserve" font-family="Helvetica-Bold" font-weight="bold" font-size="16.0" fill="#52575F" transform="matrix(1.00, 0.00, -0.00, -1.00, 102.8, 30.0)">r</text><text xml:space="preserve" font-family="Helvetica-Bold" font-weight="bold" font-size="16.0" fill="#52575F" transform="matrix(1.00, 0.00, -0.00, -1.00, 109.0, 30.0)"> </text><text xml:space="preserve" font-family="Helvetica-Bold" font-weight="bold" font-size="16.0" fill="#52575F" transform="matrix(1.00, 0.00, -0.00, -1.00, 113.5, 30.0)">a</text><text xml:space="preserve" font-family="Helvetica-Bold" font-weight="bold" font-size="16.0" fill="#52575F" transform="matrix(1.00, 0.00, -0.00, -1.00, 122.4, 30.0)">u</text><text xml:space="preserve" font-family="Helvetica-Bold" font-weight="bold" font-size="16.0" fill="#52575F" transform="matrix(1.00, 0.00, -0.00, -1.00, 132.2, 30.0)">d</text><text xml:space="preserve" font-family="Helvetica-Bold" font-weight="bold" font-size="16.0" fill="#52575F" transform="matrix(1.00, 0.00, -0.00, -1.00, 142.0, 30.0)">i</text><text xml:space="preserve" font-family="Helvetica-Bold" font-weight="bold" font-size="16.0" fill="#52575F" transform="matrix(1.00, 0.00, -0.00, -1.00, 146.4, 30.0)">e</text><text xml:space="preserve" font-family="Helvetica-Bold" font-weight="bold" font-size="16.0" fill="#52575F" transform="matrix(1.00, 0.00, -0.00, -1.00, 155.3, 30.0)">n</text><text xml:space="preserve" font-family="Helvetica-Bold" font-weight="bold" font-size="16.0" fill="#52575F" transform="matrix(1.00, 0.00, -0.00, -1.00, 165.1, 30.0)">c</text><text xml:space="preserve" font-family="Helvetica-Bold" font-weight="bold" font-size="16.0" fill="#52575F" transform="matrix(1.00, 0.00, -0.00, -1.00, 174.0, 30.0)">e</text><text xml:space="preserve" font-family="Helvetica-Bold" font-weight="bold" font-size="16.0" fill="#52575F" transform="matrix(1.00, 0.00, -0.00, -1.00, 21.0, 11.0)">w</text><text xml:space="preserve" font-family="Helvetica-Bold" font-weight="bold" font-size="16.0" fill="#52575F" transform="matrix(1.00, 0.00, -0.00, -1.00, 33.4, 11.0)">i</text><text xml:space="preserve" font-family="Helvetica-Bold" font-weight="bold" font-size="16.0" fill="#52575F" transform="matrix(1.00, 0.00, -0.00, -1.00, 37.9, 11.0)">t</text><text xml:space="preserve" font-family="Helvetica-Bold" font-weight="bold" font-size="16.0" fill="#52575F" transform="matrix(1.00, 0.00, -0.00, -1.00, 43.2, 11.0)">h</text><text xml:space="preserve" font-family="Helvetica-Bold" font-weight="bold" font-size="16.0" fill="#52575F" transform="matrix(1.00, 0.00, -0.00, -1.00, 53.0, 11.0)"> </text><text xml:space="preserve" font-family="Helvetica-Bold" font-weight="bold" font-size="16.0" fill="#52575F" transform="matrix(1.00, 0.00, -0.00, -1.00, 57.4, 11.0)">d</text><text xml:space="preserve" font-family="Helvetica-Bold" font-weight="bold" font-size="16.0" fill="#52575F" transform="matrix(1.00, 0.00, -0.00, -1.00, 67.2, 11.0)">i</text><text xml:space="preserve" font-family="Helvetica-Bold" font-weight="bold" font-size="16.0" fill="#52575F" transform="matrix(1.00, 0.00, -0.00, -1.00, 71.6, 11.0)">g</text><text xml:space="preserve" font-family="Helvetica-Bold" font-weight="bold" font-size="16.0" fill="#52575F" transform="matrix(1.00, 0.00, -0.00, -1.00, 81.4, 11.0)">i</text><text xml:space="preserve" font-family="Helvetica-Bold" font-weight="bold" font-size="16.0" fill="#52575F" transform="matrix(1.00, 0.00, -0.00, -1.00, 85.8, 11.0)">t</text><text xml:space="preserve" font-family="Helvetica-Bold" font-weight="bold" font-size="16.0" fill="#52575F" transform="matrix(1.00, 0.00, -0.00, -1.00, 91.2, 11.0)">a</text><text xml:space="preserve" font-family="Helvetica-Bold" font-weight="bold" font-size="16.0" fill="#52575F" transform="matrix(1.00, 0.00, -0.00, -1.00, 100.1, 11.0)">l</text><text xml:space="preserve" font-family="Helvetica-Bold" font-weight="bold" font-size="16.0" fill="#52575F" transform="matrix(1.00, 0.00, -0.00, -1.00, 104.5, 11.0)"> </text><text xml:space="preserve" font-family="Helvetica-Bold" font-weight="bold" font-size="16.0" fill="#52575F" transform="matrix(1.00, 0.00, -0.00, -1.00, 109.0, 11.0)">s</text><text xml:space="preserve" font-family="Helvetica-Bold" font-weight="bold" font-size="16.0" fill="#52575F" transform="matrix(1.00, 0.00, -0.00, -1.00, 117.9, 11.0)">i</text><text xml:space="preserve" font-family="Helvetica-Bold" font-weight="bold" font-size="16.0" fill="#52575F" transform="matrix(1.00, 0.00, -0.00, -1.00, 122.3, 11.0)">g</text><text xml:space="preserve" font-family="Helvetica-Bold" font-weight="bold" font-size="16.0" fill="#52575F" transform="matrix(1.00, 0.00, -0.00, -1.00, 132.1, 11.0)">n</text><text xml:space="preserve" font-family="Helvetica-Bold" font-weight="bold" font-size="16.0" fill="#52575F" transform="matrix(1.00, 0.00, -0.00, -1.00, 141.8, 11.0)">a</text><text xml:space="preserve" font-family="Helvetica-Bold" font-weight="bold" font-size="16.0" fill="#52575F" transform="matrix(1.00, 0.00, -0.00, -1.00, 150.7, 11.0)">l</text><text xml:space="preserve" font-family="Helvetica-Bold" font-weight="bold" font-size="16.0" fill="#52575F" transform="matrix(1.00, 0.00, -0.00, -1.00, 155.2, 11.0)">s</text></g></g></g></svg>