<?xml version="1.0" encoding="UTF-8" standalone="no"?><svg xmlns="http://www.w3.org/2000/svg" xmlns:xlink="http://www.w3.org/1999/xlink" clip-rule="evenodd" stroke-miterlimit="4.00" viewBox="0 0 318 54"><desc>SVG generated by Keynote</desc><defs></defs><g transform="matrix(1.00, 0.00, -0.00, -1.00, 0.0, 54.0)"><path d="M 1.7 52.7 L 316.5 52.7 L 316.5 1.7 L 1.7 1.7 Z M 1.7 52.7 " fill="#D9D9D9"></path><g><clipPath id="clip-335"><path d="M 1.7 1.7 L 316.5 1.7 L 316.5 52.7 L 1.7 52.7 Z M 1.7 1.7 "></path></clipPath><g clip-path="url(#clip-335)"><text xml:space="preserve" font-family="Helvetica-Bold" font-weight="bold" font-size="16.0" fill="#52575F" transform="matrix(1.00, 0.00, -0.00, -1.00, 21.0, 21.0)">R</text><text xml:space="preserve" font-family="Helvetica-Bold" font-weight="bold" font-size="16.0" fill="#52575F" transform="matrix(1.00, 0.00, -0.00, -1.00, 32.6, 21.0)">u</text><text xml:space="preserve" font-family="Helvetica-Bold" font-weight="bold" font-size="16.0" fill="#52575F" transform="matrix(1.00, 0.00, -0.00, -1.00, 42.3, 21.0)">n</text><text xml:space="preserve" font-family="Helvetica-Bold" font-weight="bold" font-size="16.0" fill="#52575F" transform="matrix(1.00, 0.00, -0.00, -1.00, 52.1, 21.0)"> </text><text xml:space="preserve" font-family="Helvetica-Bold" font-weight="bold" font-size="16.0" fill="#52575F" transform="matrix(1.00, 0.00, -0.00, -1.00, 56.5, 21.0)">d</text><text xml:space="preserve" font-family="Helvetica-Bold" font-weight="bold" font-size="16.0" fill="#52575F" transform="matrix(1.00, 0.00, -0.00, -1.00, 66.3, 21.0)">i</text><text xml:space="preserve" font-family="Helvetica-Bold" font-weight="bold" font-size="16.0" fill="#52575F" transform="matrix(1.00, 0.00, -0.00, -1.00, 70.8, 21.0)">g</text><text xml:space="preserve" font-family="Helvetica-Bold" font-weight="bold" font-size="16.0" fill="#52575F" transform="matrix(1.00, 0.00, -0.00, -1.00, 80.5, 21.0)">i</text><text xml:space="preserve" font-family="Helvetica-Bold" font-weight="bold" font-size="16.0" fill="#52575F" transform="matrix(1.00, 0.00, -0.00, -1.00, 85.0, 21.0)">t</text><text xml:space="preserve" font-family="Helvetica-Bold" font-weight="bold" font-size="16.0" fill="#52575F" transform="matrix(1.00, 0.00, -0.00, -1.00, 90.3, 21.0)">a</text><text xml:space="preserve" font-family="Helvetica-Bold" font-weight="bold" font-size="16.0" fill="#52575F" transform="matrix(1.00, 0.00, -0.00, -1.00, 99.2, 21.0)">l</text><text xml:space="preserve" font-family="Helvetica-Bold" font-weight="bold" font-size="16.0" fill="#52575F" transform="matrix(1.00, 0.00, -0.00, -1.00, 103.6, 21.0)"> </text><text xml:space="preserve" font-family="Helvetica-Bold" font-weight="bold" font-size="16.0" fill="#52575F" transform="matrix(1.00, 0.00, -0.00, -1.00, 108.1, 21.0)">c</text><text xml:space="preserve" font-family="Helvetica-Bold" font-weight="bold" font-size="16.0" fill="#52575F" transform="matrix(1.00, 0.00, -0.00, -1.00, 117.0, 21.0)">a</text><text xml:space="preserve" font-family="Helvetica-Bold" font-weight="bold" font-size="16.0" fill="#52575F" transform="matrix(1.00, 0.00, -0.00, -1.00, 125.9, 21.0)">m</text><text xml:space="preserve" font-family="Helvetica-Bold" font-weight="bold" font-size="16.0" fill="#52575F" transform="matrix(1.00, 0.00, -0.00, -1.00, 140.1, 21.0)">p</text><text xml:space="preserve" font-family="Helvetica-Bold" font-weight="bold" font-size="16.0" fill="#52575F" transform="matrix(1.00, 0.00, -0.00, -1.00, 149.9, 21.0)">a</text><text xml:space="preserve" font-family="Helvetica-Bold" font-weight="bold" font-size="16.0" fill="#52575F" transform="matrix(1.00, 0.00, -0.00, -1.00, 158.8, 21.0)">i</text><text xml:space="preserve" font-family="Helvetica-Bold" font-weight="bold" font-size="16.0" fill="#52575F" transform="matrix(1.00, 0.00, -0.00, -1.00, 163.2, 21.0)">g</text><text xml:space="preserve" font-family="Helvetica-Bold" font-weight="bold" font-size="16.0" fill="#52575F" transform="matrix(1.00, 0.00, -0.00, -1.00, 173.0, 21.0)">n</text><text xml:space="preserve" font-family="Helvetica-Bold" font-weight="bold" font-size="16.0" fill="#52575F" transform="matrix(1.00, 0.00, -0.00, -1.00, 182.8, 21.0)">s</text></g></g></g></svg>