<?xml version="1.0" encoding="UTF-8" standalone="no"?><svg xmlns="http://www.w3.org/2000/svg" xmlns:xlink="http://www.w3.org/1999/xlink" clip-rule="evenodd" stroke-miterlimit="4.00" viewBox="0 0 318 54"><desc>SVG generated by Keynote</desc><defs></defs><g transform="matrix(1.00, 0.00, -0.00, -1.00, 0.0, 54.0)"><g><clipPath id="clip-311"><path d="M 0.7 0.3 L 317.5 0.3 L 317.5 53.3 L 0.7 53.3 Z M 0.7 0.3 "></path></clipPath><g clip-path="url(#clip-311)"><path d="M 1.7 52.3 L 316.5 52.3 L 316.5 1.3 L 1.7 1.3 Z M 1.7 52.3 " fill="#D9D9D9"></path></g></g><g><clipPath id="clip-312"><path d="M 1.7 1.3 L 316.5 1.3 L 316.5 52.3 L 1.7 52.3 Z M 1.7 1.3 "></path></clipPath><g clip-path="url(#clip-312)"><text xml:space="preserve" font-family="Helvetica-Bold" font-weight="bold" font-size="16.0" fill="#52575F" transform="matrix(1.00, 0.00, -0.00, -1.00, 21.0, 30.0)">R</text><text xml:space="preserve" font-family="Helvetica-Bold" font-weight="bold" font-size="16.0" fill="#52575F" transform="matrix(1.00, 0.00, -0.00, -1.00, 32.6, 30.0)">u</text><text xml:space="preserve" font-family="Helvetica-Bold" font-weight="bold" font-size="16.0" fill="#52575F" transform="matrix(1.00, 0.00, -0.00, -1.00, 42.3, 30.0)">n</text><text xml:space="preserve" font-family="Helvetica-Bold" font-weight="bold" font-size="16.0" fill="#52575F" transform="matrix(1.00, 0.00, -0.00, -1.00, 52.1, 30.0)"> </text><text xml:space="preserve" font-family="Helvetica-Bold" font-weight="bold" font-size="16.0" fill="#52575F" transform="matrix(1.00, 0.00, -0.00, -1.00, 56.5, 30.0)">c</text><text xml:space="preserve" font-family="Helvetica-Bold" font-weight="bold" font-size="16.0" fill="#52575F" transform="matrix(1.00, 0.00, -0.00, -1.00, 65.4, 30.0)">a</text><text xml:space="preserve" font-family="Helvetica-Bold" font-weight="bold" font-size="16.0" fill="#52575F" transform="matrix(1.00, 0.00, -0.00, -1.00, 74.3, 30.0)">m</text><text xml:space="preserve" font-family="Helvetica-Bold" font-weight="bold" font-size="16.0" fill="#52575F" transform="matrix(1.00, 0.00, -0.00, -1.00, 88.6, 30.0)">p</text><text xml:space="preserve" font-family="Helvetica-Bold" font-weight="bold" font-size="16.0" fill="#52575F" transform="matrix(1.00, 0.00, -0.00, -1.00, 98.3, 30.0)">a</text><text xml:space="preserve" font-family="Helvetica-Bold" font-weight="bold" font-size="16.0" fill="#52575F" transform="matrix(1.00, 0.00, -0.00, -1.00, 107.2, 30.0)">i</text><text xml:space="preserve" font-family="Helvetica-Bold" font-weight="bold" font-size="16.0" fill="#52575F" transform="matrix(1.00, 0.00, -0.00, -1.00, 111.7, 30.0)">g</text><text xml:space="preserve" font-family="Helvetica-Bold" font-weight="bold" font-size="16.0" fill="#52575F" transform="matrix(1.00, 0.00, -0.00, -1.00, 121.5, 30.0)">n</text><text xml:space="preserve" font-family="Helvetica-Bold" font-weight="bold" font-size="16.0" fill="#52575F" transform="matrix(1.00, 0.00, -0.00, -1.00, 131.2, 30.0)">s</text><text xml:space="preserve" font-family="Helvetica-Bold" font-weight="bold" font-size="16.0" fill="#52575F" transform="matrix(1.00, 0.00, -0.00, -1.00, 140.1, 30.0)"> </text><text xml:space="preserve" font-family="Helvetica-Bold" font-weight="bold" font-size="16.0" fill="#52575F" transform="matrix(1.00, 0.00, -0.00, -1.00, 144.6, 30.0)">w</text><text xml:space="preserve" font-family="Helvetica-Bold" font-weight="bold" font-size="16.0" fill="#52575F" transform="matrix(1.00, 0.00, -0.00, -1.00, 157.0, 30.0)">i</text><text xml:space="preserve" font-family="Helvetica-Bold" font-weight="bold" font-size="16.0" fill="#52575F" transform="matrix(1.00, 0.00, -0.00, -1.00, 161.5, 30.0)">t</text><text xml:space="preserve" font-family="Helvetica-Bold" font-weight="bold" font-size="16.0" fill="#52575F" transform="matrix(1.00, 0.00, -0.00, -1.00, 166.8, 30.0)">h</text><text xml:space="preserve" font-family="Helvetica-Bold" font-weight="bold" font-size="16.0" fill="#52575F" transform="matrix(1.00, 0.00, -0.00, -1.00, 176.6, 30.0)"> </text><text xml:space="preserve" font-family="Helvetica-Bold" font-weight="bold" font-size="16.0" fill="#52575F" transform="matrix(1.00, 0.00, -0.00, -1.00, 21.0, 11.0)">b</text><text xml:space="preserve" font-family="Helvetica-Bold" font-weight="bold" font-size="16.0" fill="#52575F" transform="matrix(1.00, 0.00, -0.00, -1.00, 30.8, 11.0)">a</text><text xml:space="preserve" font-family="Helvetica-Bold" font-weight="bold" font-size="16.0" fill="#52575F" transform="matrix(1.00, 0.00, -0.00, -1.00, 39.7, 11.0)">s</text><text xml:space="preserve" font-family="Helvetica-Bold" font-weight="bold" font-size="16.0" fill="#52575F" transform="matrix(1.00, 0.00, -0.00, -1.00, 48.6, 11.0)">i</text><text xml:space="preserve" font-family="Helvetica-Bold" font-weight="bold" font-size="16.0" fill="#52575F" transform="matrix(1.00, 0.00, -0.00, -1.00, 53.0, 11.0)">c</text><text xml:space="preserve" font-family="Helvetica-Bold" font-weight="bold" font-size="16.0" fill="#52575F" transform="matrix(1.00, 0.00, -0.00, -1.00, 61.9, 11.0)"> </text><text xml:space="preserve" font-family="Helvetica-Bold" font-weight="bold" font-size="16.0" fill="#52575F" transform="matrix(1.00, 0.00, -0.00, -1.00, 66.4, 11.0)">t</text><text xml:space="preserve" font-family="Helvetica-Bold" font-weight="bold" font-size="16.0" fill="#52575F" transform="matrix(1.00, 0.00, -0.00, -1.00, 71.7, 11.0)">a</text><text xml:space="preserve" font-family="Helvetica-Bold" font-weight="bold" font-size="16.0" fill="#52575F" transform="matrix(1.00, 0.00, -0.00, -1.00, 80.6, 11.0)">r</text><text xml:space="preserve" font-family="Helvetica-Bold" font-weight="bold" font-size="16.0" fill="#52575F" transform="matrix(1.00, 0.00, -0.00, -1.00, 86.8, 11.0)">g</text><text xml:space="preserve" font-family="Helvetica-Bold" font-weight="bold" font-size="16.0" fill="#52575F" transform="matrix(1.00, 0.00, -0.00, -1.00, 96.6, 11.0)">e</text><text xml:space="preserve" font-family="Helvetica-Bold" font-weight="bold" font-size="16.0" fill="#52575F" transform="matrix(1.00, 0.00, -0.00, -1.00, 105.5, 11.0)">t</text><text xml:space="preserve" font-family="Helvetica-Bold" font-weight="bold" font-size="16.0" fill="#52575F" transform="matrix(1.00, 0.00, -0.00, -1.00, 110.8, 11.0)">i</text><text xml:space="preserve" font-family="Helvetica-Bold" font-weight="bold" font-size="16.0" fill="#52575F" transform="matrix(1.00, 0.00, -0.00, -1.00, 115.3, 11.0)">n</text><text xml:space="preserve" font-family="Helvetica-Bold" font-weight="bold" font-size="16.0" fill="#52575F" transform="matrix(1.00, 0.00, -0.00, -1.00, 125.0, 11.0)">g</text></g></g><g><clipPath id="clip-313"><path d="M 263.0 7.5 L 307.2 7.5 L 307.2 46.2 L 263.0 46.2 Z M 263.0 7.5 "></path></clipPath><g clip-path="url(#clip-313)"><path d="M 0.0 0.0 L 41.2 0.0 L 41.2 35.7 L 0.0 35.7 Z M 0.0 0.0 " fill="none" stroke="#52575F" stroke-width="1.10" stroke-dasharray="1.1, 1.1" transform="matrix(1.00, 0.00, 0.00, -1.00, 264.5, 44.7)"></path></g></g><g><clipPath id="clip-314"><path d="M 265.3 10.0 L 304.9 10.0 L 304.9 43.7 L 265.3 43.7 Z M 265.3 10.0 "></path></clipPath><g clip-path="url(#clip-314)"><text xml:space="preserve" font-family="ZapfDingbatsITC" font-size="17.0" fill="#52575F" transform="matrix(1.00, 0.00, -0.00, -1.00, 278.0, 21.0)">▲</text></g></g><g><clipPath id="clip-315"><path d="M 212.8 7.4 L 257.0 7.4 L 257.0 46.3 L 212.8 46.3 Z M 212.8 7.4 "></path></clipPath><g clip-path="url(#clip-315)"><path d="M 0.0 0.0 L 41.2 0.0 L 41.2 35.9 L 0.0 35.9 Z M 0.0 0.0 " fill="none" stroke="#52575F" stroke-width="1.10" stroke-dasharray="1.1, 1.1" transform="matrix(1.00, 0.00, 0.00, -1.00, 214.3, 44.8)"></path></g></g><g><clipPath id="clip-316"><path d="M 214.6 9.9 L 255.2 9.9 L 255.2 43.8 L 214.6 43.8 Z M 214.6 9.9 "></path></clipPath><g clip-path="url(#clip-316)"><text xml:space="preserve" font-family="LucidaGrande" font-size="16.0" fill="#52575F" transform="matrix(1.00, 0.00, -0.00, -1.00, 227.0, 21.0)">▼</text></g></g></g></svg>