<?xml version="1.0" encoding="UTF-8" standalone="no"?><svg xmlns="http://www.w3.org/2000/svg" xmlns:xlink="http://www.w3.org/1999/xlink" clip-rule="evenodd" stroke-miterlimit="4.00" viewBox="0 0 330 71"><desc>SVG generated by Keynote</desc><defs></defs><g transform="matrix(1.00, 0.00, -0.00, -1.00, 0.0, 71.0)"><g><clipPath id="clip-132"><path d="M 131.4 0.7 L 199.6 0.7 L 199.6 70.7 L 131.4 70.7 Z M 131.4 0.7 "></path></clipPath><g clip-path="url(#clip-132)"><path d="M 132.9 69.2 L 198.1 69.2 L 198.1 2.2 L 132.9 2.2 Z M 132.9 69.2 " fill="#52575F"></path><path d="M 0.0 0.0 L 65.2 0.0 L 65.2 67.0 L 0.0 67.0 Z M 0.0 0.0 " fill="none" stroke="#FEFFFE" stroke-width="1.00" transform="matrix(1.00, 0.00, 0.00, -1.00, 132.9, 69.2)"></path></g></g><g><clipPath id="clip-133"><path d="M 133.4 3.2 L 197.6 3.2 L 197.6 68.2 L 133.4 68.2 Z M 133.4 3.2 "></path></clipPath><g clip-path="url(#clip-133)"><text xml:space="preserve" font-family="Helvetica-Bold" font-weight="bold" font-size="18.0" fill="#A6AAA8" transform="matrix(1.00, 0.00, -0.00, -1.00, 148.0, 28.0)">3</text><text xml:space="preserve" font-family="Helvetica-Bold" font-weight="bold" font-size="18.0" fill="#A6AAA8" transform="matrix(1.00, 0.00, -0.00, -1.00, 158.0, 28.0)">7</text><text xml:space="preserve" font-family="Helvetica-Bold" font-weight="bold" font-size="18.0" fill="#A6AAA8" transform="matrix(1.00, 0.00, -0.00, -1.00, 168.0, 28.0)">%</text></g></g><g><clipPath id="clip-134"><path d="M 196.1 0.7 L 264.3 0.7 L 264.3 70.7 L 196.1 70.7 Z M 196.1 0.7 "></path></clipPath><g clip-path="url(#clip-134)"><path d="M 197.6 69.2 L 262.8 69.2 L 262.8 2.2 L 197.6 2.2 Z M 197.6 69.2 " fill="#52575F"></path><path d="M 0.0 0.0 L 65.2 0.0 L 65.2 67.0 L 0.0 67.0 Z M 0.0 0.0 " fill="none" stroke="#FEFFFE" stroke-width="1.00" transform="matrix(1.00, 0.00, 0.00, -1.00, 197.6, 69.2)"></path></g></g><g><clipPath id="clip-135"><path d="M 198.1 3.2 L 262.3 3.2 L 262.3 68.2 L 198.1 68.2 Z M 198.1 3.2 "></path></clipPath><g clip-path="url(#clip-135)"><text xml:space="preserve" font-family="Helvetica-Bold" font-weight="bold" font-size="18.0" fill="#FEFFFF" transform="matrix(1.00, 0.00, -0.00, -1.00, 217.0, 28.0)">4</text><text xml:space="preserve" font-family="Helvetica-Bold" font-weight="bold" font-size="18.0" fill="#FEFFFF" transform="matrix(1.00, 0.00, -0.00, -1.00, 227.0, 28.0)">%</text></g></g><g><clipPath id="clip-136"><path d="M 261.3 0.7 L 329.5 0.7 L 329.5 70.7 L 261.3 70.7 Z M 261.3 0.7 "></path></clipPath><g clip-path="url(#clip-136)"><path d="M 262.8 69.2 L 328.0 69.2 L 328.0 2.2 L 262.8 2.2 Z M 262.8 69.2 " fill="#52575F"></path><path d="M 0.0 0.0 L 65.2 0.0 L 65.2 67.0 L 0.0 67.0 Z M 0.0 0.0 " fill="none" stroke="#FEFFFE" stroke-width="1.00" transform="matrix(1.00, 0.00, 0.00, -1.00, 262.8, 69.2)"></path></g></g><g><clipPath id="clip-137"><path d="M 263.3 3.2 L 327.5 3.2 L 327.5 68.2 L 263.3 68.2 Z M 263.3 3.2 "></path></clipPath><g clip-path="url(#clip-137)"><text xml:space="preserve" font-family="Helvetica-Bold" font-weight="bold" font-size="18.0" fill="#FEFFFF" transform="matrix(1.00, 0.00, -0.00, -1.00, 278.0, 28.0)">1</text><text xml:space="preserve" font-family="Helvetica-Bold" font-weight="bold" font-size="18.0" fill="#FEFFFF" transform="matrix(1.00, 0.00, -0.00, -1.00, 287.0, 28.0)">1</text><text xml:space="preserve" font-family="Helvetica-Bold" font-weight="bold" font-size="18.0" fill="#FEFFFF" transform="matrix(1.00, 0.00, -0.00, -1.00, 297.0, 28.0)">%</text></g></g><g><clipPath id="clip-138"><path d="M 66.2 0.7 L 134.4 0.7 L 134.4 70.7 L 66.2 70.7 Z M 66.2 0.7 "></path></clipPath><g clip-path="url(#clip-138)"><path d="M 67.7 69.2 L 132.9 69.2 L 132.9 2.2 L 67.7 2.2 Z M 67.7 69.2 " fill="#52575F"></path><path d="M 0.0 0.0 L 65.2 0.0 L 65.2 67.0 L 0.0 67.0 Z M 0.0 0.0 " fill="none" stroke="#FEFFFE" stroke-width="1.00" transform="matrix(1.00, 0.00, 0.00, -1.00, 67.7, 69.2)"></path></g></g><g><clipPath id="clip-139"><path d="M 68.2 3.2 L 132.4 3.2 L 132.4 68.2 L 68.2 68.2 Z M 68.2 3.2 "></path></clipPath><g clip-path="url(#clip-139)"><text xml:space="preserve" font-family="Helvetica-Bold" font-weight="bold" font-size="18.0" fill="#A6AAA8" transform="matrix(1.00, 0.00, -0.00, -1.00, 82.0, 28.0)">2</text><text xml:space="preserve" font-family="Helvetica-Bold" font-weight="bold" font-size="18.0" fill="#A6AAA8" transform="matrix(1.00, 0.00, -0.00, -1.00, 92.0, 28.0)">4</text><text xml:space="preserve" font-family="Helvetica-Bold" font-weight="bold" font-size="18.0" fill="#A6AAA8" transform="matrix(1.00, 0.00, -0.00, -1.00, 102.0, 28.0)">%</text></g></g><g><clipPath id="clip-140"><path d="M 1.0 0.7 L 69.2 0.7 L 69.2 70.7 L 1.0 70.7 Z M 1.0 0.7 "></path></clipPath><g clip-path="url(#clip-140)"><path d="M 2.5 69.2 L 67.7 69.2 L 67.7 2.2 L 2.5 2.2 Z M 2.5 69.2 " fill="#52575F"></path><path d="M 0.0 0.0 L 65.2 0.0 L 65.2 67.0 L 0.0 67.0 Z M 0.0 0.0 " fill="none" stroke="#FEFFFE" stroke-width="1.00" transform="matrix(1.00, 0.00, 0.00, -1.00, 2.5, 69.2)"></path></g></g><g><clipPath id="clip-141"><path d="M 3.0 3.2 L 67.2 3.2 L 67.2 68.2 L 3.0 68.2 Z M 3.0 3.2 "></path></clipPath><g clip-path="url(#clip-141)"><text xml:space="preserve" font-family="Helvetica-Bold" font-weight="bold" font-size="18.0" fill="#FEFFFF" transform="matrix(1.00, 0.00, -0.00, -1.00, 17.0, 28.0)">2</text><text xml:space="preserve" font-family="Helvetica-Bold" font-weight="bold" font-size="18.0" fill="#FEFFFF" transform="matrix(1.00, 0.00, -0.00, -1.00, 27.0, 28.0)">4</text><text xml:space="preserve" font-family="Helvetica-Bold" font-weight="bold" font-size="18.0" fill="#FEFFFF" transform="matrix(1.00, 0.00, -0.00, -1.00, 37.0, 28.0)">%</text></g></g></g></svg>