<?xml version="1.0" encoding="UTF-8" standalone="no"?><svg xmlns="http://www.w3.org/2000/svg" xmlns:xlink="http://www.w3.org/1999/xlink" clip-rule="evenodd" stroke-miterlimit="4.00" viewBox="0 0 329 71"><desc>SVG generated by Keynote</desc><defs></defs><g transform="matrix(1.00, 0.00, -0.00, -1.00, 0.0, 71.0)"><g><clipPath id="clip-154"><path d="M 130.5 0.9 L 198.7 0.9 L 198.7 70.9 L 130.5 70.9 Z M 130.5 0.9 "></path></clipPath><g clip-path="url(#clip-154)"><path d="M 132.0 69.4 L 197.2 69.4 L 197.2 2.4 L 132.0 2.4 Z M 132.0 69.4 " fill="#52575F"></path><path d="M 0.0 0.0 L 65.2 0.0 L 65.2 67.0 L 0.0 67.0 Z M 0.0 0.0 " fill="none" stroke="#FEFFFE" stroke-width="1.00" transform="matrix(1.00, 0.00, 0.00, -1.00, 132.0, 69.4)"></path></g></g><g><clipPath id="clip-155"><path d="M 132.5 3.4 L 196.7 3.4 L 196.7 68.4 L 132.5 68.4 Z M 132.5 3.4 "></path></clipPath><g clip-path="url(#clip-155)"><text xml:space="preserve" font-family="Helvetica-Bold" font-weight="bold" font-size="18.0" fill="#A6AAA8" transform="matrix(1.00, 0.00, -0.00, -1.00, 147.0, 29.0)">3</text><text xml:space="preserve" font-family="Helvetica-Bold" font-weight="bold" font-size="18.0" fill="#A6AAA8" transform="matrix(1.00, 0.00, -0.00, -1.00, 157.0, 29.0)">7</text><text xml:space="preserve" font-family="Helvetica-Bold" font-weight="bold" font-size="18.0" fill="#A6AAA8" transform="matrix(1.00, 0.00, -0.00, -1.00, 167.0, 29.0)">%</text></g></g><g><clipPath id="clip-156"><path d="M 195.2 0.9 L 263.4 0.9 L 263.4 70.9 L 195.2 70.9 Z M 195.2 0.9 "></path></clipPath><g clip-path="url(#clip-156)"><path d="M 196.7 69.4 L 261.9 69.4 L 261.9 2.4 L 196.7 2.4 Z M 196.7 69.4 " fill="#52575F"></path><path d="M 0.0 0.0 L 65.2 0.0 L 65.2 67.0 L 0.0 67.0 Z M 0.0 0.0 " fill="none" stroke="#FEFFFE" stroke-width="1.00" transform="matrix(1.00, 0.00, 0.00, -1.00, 196.7, 69.4)"></path></g></g><g><clipPath id="clip-157"><path d="M 197.2 3.4 L 261.4 3.4 L 261.4 68.4 L 197.2 68.4 Z M 197.2 3.4 "></path></clipPath><g clip-path="url(#clip-157)"><text xml:space="preserve" font-family="Helvetica-Bold" font-weight="bold" font-size="18.0" fill="#A6AAA8" transform="matrix(1.00, 0.00, -0.00, -1.00, 216.0, 29.0)">4</text><text xml:space="preserve" font-family="Helvetica-Bold" font-weight="bold" font-size="18.0" fill="#A6AAA8" transform="matrix(1.00, 0.00, -0.00, -1.00, 226.0, 29.0)">%</text></g></g><g><clipPath id="clip-158"><path d="M 260.4 0.9 L 328.6 0.9 L 328.6 70.9 L 260.4 70.9 Z M 260.4 0.9 "></path></clipPath><g clip-path="url(#clip-158)"><path d="M 261.9 69.4 L 327.1 69.4 L 327.1 2.4 L 261.9 2.4 Z M 261.9 69.4 " fill="#52575F"></path><path d="M 0.0 0.0 L 65.2 0.0 L 65.2 67.0 L 0.0 67.0 Z M 0.0 0.0 " fill="none" stroke="#FEFFFE" stroke-width="1.00" transform="matrix(1.00, 0.00, 0.00, -1.00, 261.9, 69.4)"></path></g></g><g><clipPath id="clip-159"><path d="M 262.4 3.4 L 326.6 3.4 L 326.6 68.4 L 262.4 68.4 Z M 262.4 3.4 "></path></clipPath><g clip-path="url(#clip-159)"><text xml:space="preserve" font-family="Helvetica-Bold" font-weight="bold" font-size="18.0" fill="#FEFFFF" transform="matrix(1.00, 0.00, -0.00, -1.00, 277.0, 29.0)">1</text><text xml:space="preserve" font-family="Helvetica-Bold" font-weight="bold" font-size="18.0" fill="#FEFFFF" transform="matrix(1.00, 0.00, -0.00, -1.00, 286.0, 29.0)">1</text><text xml:space="preserve" font-family="Helvetica-Bold" font-weight="bold" font-size="18.0" fill="#FEFFFF" transform="matrix(1.00, 0.00, -0.00, -1.00, 296.0, 29.0)">%</text></g></g><g><clipPath id="clip-160"><path d="M 65.3 0.9 L 133.5 0.9 L 133.5 70.9 L 65.3 70.9 Z M 65.3 0.9 "></path></clipPath><g clip-path="url(#clip-160)"><path d="M 66.8 69.4 L 132.0 69.4 L 132.0 2.4 L 66.8 2.4 Z M 66.8 69.4 " fill="#52575F"></path><path d="M 0.0 0.0 L 65.2 0.0 L 65.2 67.0 L 0.0 67.0 Z M 0.0 0.0 " fill="none" stroke="#FEFFFE" stroke-width="1.00" transform="matrix(1.00, 0.00, 0.00, -1.00, 66.8, 69.4)"></path></g></g><g><clipPath id="clip-161"><path d="M 67.3 3.4 L 131.5 3.4 L 131.5 68.4 L 67.3 68.4 Z M 67.3 3.4 "></path></clipPath><g clip-path="url(#clip-161)"><text xml:space="preserve" font-family="Helvetica-Bold" font-weight="bold" font-size="18.0" fill="#A6AAA8" transform="matrix(1.00, 0.00, -0.00, -1.00, 81.0, 29.0)">2</text><text xml:space="preserve" font-family="Helvetica-Bold" font-weight="bold" font-size="18.0" fill="#A6AAA8" transform="matrix(1.00, 0.00, -0.00, -1.00, 91.0, 29.0)">4</text><text xml:space="preserve" font-family="Helvetica-Bold" font-weight="bold" font-size="18.0" fill="#A6AAA8" transform="matrix(1.00, 0.00, -0.00, -1.00, 101.0, 29.0)">%</text></g></g><g><clipPath id="clip-162"><path d="M 0.1 0.9 L 68.3 0.9 L 68.3 70.9 L 0.1 70.9 Z M 0.1 0.9 "></path></clipPath><g clip-path="url(#clip-162)"><path d="M 1.6 69.4 L 66.8 69.4 L 66.8 2.4 L 1.6 2.4 Z M 1.6 69.4 " fill="#52575F"></path><path d="M 0.0 0.0 L 65.2 0.0 L 65.2 67.0 L 0.0 67.0 Z M 0.0 0.0 " fill="none" stroke="#FEFFFE" stroke-width="1.00" transform="matrix(1.00, 0.00, 0.00, -1.00, 1.6, 69.4)"></path></g></g><g><clipPath id="clip-163"><path d="M 2.1 3.4 L 66.3 3.4 L 66.3 68.4 L 2.1 68.4 Z M 2.1 3.4 "></path></clipPath><g clip-path="url(#clip-163)"><text xml:space="preserve" font-family="Helvetica-Bold" font-weight="bold" font-size="18.0" fill="#A6AAA8" transform="matrix(1.00, 0.00, -0.00, -1.00, 16.0, 29.0)">2</text><text xml:space="preserve" font-family="Helvetica-Bold" font-weight="bold" font-size="18.0" fill="#A6AAA8" transform="matrix(1.00, 0.00, -0.00, -1.00, 26.0, 29.0)">4</text><text xml:space="preserve" font-family="Helvetica-Bold" font-weight="bold" font-size="18.0" fill="#A6AAA8" transform="matrix(1.00, 0.00, -0.00, -1.00, 36.0, 29.0)">%</text></g></g></g></svg>