<?xml version="1.0" encoding="UTF-8" standalone="no"?><svg xmlns="http://www.w3.org/2000/svg" xmlns:xlink="http://www.w3.org/1999/xlink" clip-rule="evenodd" stroke-miterlimit="4.00" viewBox="0 0 1024 768"><desc>SVG generated by Keynote</desc><defs></defs><g transform="matrix(1.00, 0.00, -0.00, -1.00, 0.0, 768.0)"><path d="M 0.0 768.0 L 1024.0 768.0 L 1024.0 0.0 L 0.0 0.0 Z M 0.0 768.0 " fill="#000000"></path><text xml:space="preserve" font-family="Helvetica-Light" font-size="45.6" fill="#FEFFFF" transform="matrix(1.00, 0.00, -0.00, -1.00, 110.0, 365.0)">D</text><text xml:space="preserve" font-family="Helvetica-Light" font-size="45.6" fill="#FEFFFF" transform="matrix(1.00, 0.00, -0.00, -1.00, 142.9, 365.0)">r</text><text xml:space="preserve" font-family="Helvetica-Light" font-size="45.6" fill="#FEFFFF" transform="matrix(1.00, 0.00, -0.00, -1.00, 158.1, 365.0)">a</text><text xml:space="preserve" font-family="Helvetica-Light" font-size="45.6" fill="#FEFFFF" transform="matrix(1.00, 0.00, -0.00, -1.00, 183.5, 365.0)">g</text><text xml:space="preserve" font-family="Helvetica-Light" font-size="45.6" fill="#FEFFFF" transform="matrix(1.00, 0.00, -0.00, -1.00, 211.3, 365.0)"> </text><text xml:space="preserve" font-family="Helvetica-Light" font-size="45.6" fill="#FEFFFF" transform="matrix(1.00, 0.00, -0.00, -1.00, 224.0, 365.0)">&amp;</text><text xml:space="preserve" font-family="Helvetica-Light" font-size="45.6" fill="#FEFFFF" transform="matrix(1.00, 0.00, -0.00, -1.00, 254.4, 365.0)"> </text><text xml:space="preserve" font-family="Helvetica-Light" font-size="45.6" fill="#FEFFFF" transform="matrix(1.00, 0.00, -0.00, -1.00, 267.1, 365.0)">d</text><text xml:space="preserve" font-family="Helvetica-Light" font-size="45.6" fill="#FEFFFF" transform="matrix(1.00, 0.00, -0.00, -1.00, 295.0, 365.0)">r</text><text xml:space="preserve" font-family="Helvetica-Light" font-size="45.6" fill="#FEFFFF" transform="matrix(1.00, 0.00, -0.00, -1.00, 309.3, 365.0)">o</text><text xml:space="preserve" font-family="Helvetica-Light" font-size="45.6" fill="#FEFFFF" transform="matrix(1.00, 0.00, -0.00, -1.00, 334.7, 365.0)">p</text><text xml:space="preserve" font-family="LucidaGrande" font-size="45.6" fill="#FEFFFF" transform="matrix(1.00, 0.00, -0.00, -1.00, 362.5, 365.0)"> </text><text xml:space="preserve" font-family="Helvetica-Bold" font-weight="bold" font-size="45.6" fill="#FEFFFF" transform="matrix(1.00, 0.00, -0.00, -1.00, 121.0, 311.0)">a</text><text xml:space="preserve" font-family="Helvetica-Bold" font-weight="bold" font-size="45.6" fill="#FEFFFF" transform="matrix(1.00, 0.00, -0.00, -1.00, 146.4, 311.0)">d</text><text xml:space="preserve" font-family="Helvetica-Bold" font-weight="bold" font-size="45.6" fill="#FEFFFF" transform="matrix(1.00, 0.00, -0.00, -1.00, 174.2, 311.0)">a</text><text xml:space="preserve" font-family="Helvetica-Bold" font-weight="bold" font-size="45.6" fill="#FEFFFF" transform="matrix(1.00, 0.00, -0.00, -1.00, 199.6, 311.0)">p</text><text xml:space="preserve" font-family="Helvetica-Bold" font-weight="bold" font-size="45.6" fill="#FEFFFF" transform="matrix(1.00, 0.00, -0.00, -1.00, 227.4, 311.0)">t</text><text xml:space="preserve" font-family="Helvetica-Bold" font-weight="bold" font-size="45.6" fill="#FEFFFF" transform="matrix(1.00, 0.00, -0.00, -1.00, 242.6, 311.0)">a</text><text xml:space="preserve" font-family="Helvetica-Bold" font-weight="bold" font-size="45.6" fill="#FEFFFF" transform="matrix(1.00, 0.00, -0.00, -1.00, 268.0, 311.0)">t</text><text xml:space="preserve" font-family="Helvetica-Bold" font-weight="bold" font-size="45.6" fill="#FEFFFF" transform="matrix(1.00, 0.00, -0.00, -1.00, 283.2, 311.0)">i</text><text xml:space="preserve" font-family="Helvetica-Bold" font-weight="bold" font-size="45.6" fill="#FEFFFF" transform="matrix(1.00, 0.00, -0.00, -1.00, 295.8, 311.0)">o</text><text xml:space="preserve" font-family="Helvetica-Bold" font-weight="bold" font-size="45.6" fill="#FEFFFF" transform="matrix(1.00, 0.00, -0.00, -1.00, 323.7, 311.0)">n</text><path d="M 512.1 740.9 L 945.9 740.9 L 945.9 20.0 L 512.1 20.0 Z M 512.1 740.9 " fill="#FEFFFE"></path><text xml:space="preserve" font-family="Helvetica" font-size="26.0" fill="#52575F" transform="matrix(1.00, 0.00, -0.00, -1.00, 544.0, 637.0)">W</text><text xml:space="preserve" font-family="Helvetica" font-size="26.0" fill="#52575F" transform="matrix(1.00, 0.00, -0.00, -1.00, 568.5, 637.0)">h</text><text xml:space="preserve" font-family="Helvetica" font-size="26.0" fill="#52575F" transform="matrix(1.00, 0.00, -0.00, -1.00, 583.0, 637.0)">a</text><text xml:space="preserve" font-family="Helvetica" font-size="26.0" fill="#52575F" transform="matrix(1.00, 0.00, -0.00, -1.00, 597.5, 637.0)">t</text><text xml:space="preserve" font-family="Helvetica" font-size="26.0" fill="#52575F" transform="matrix(1.00, 0.00, -0.00, -1.00, 604.7, 637.0)"> </text><text xml:space="preserve" font-family="Helvetica" font-size="26.0" fill="#52575F" transform="matrix(1.00, 0.00, -0.00, -1.00, 611.9, 637.0)">i</text><text xml:space="preserve" font-family="Helvetica" font-size="26.0" fill="#52575F" transform="matrix(1.00, 0.00, -0.00, -1.00, 617.7, 637.0)">s</text><text xml:space="preserve" font-family="Helvetica" font-size="26.0" fill="#52575F" transform="matrix(1.00, 0.00, -0.00, -1.00, 630.7, 637.0)"> </text><text xml:space="preserve" font-family="Helvetica" font-size="26.0" fill="#52575F" transform="matrix(1.00, 0.00, -0.00, -1.00, 637.9, 637.0)">t</text><text xml:space="preserve" font-family="Helvetica" font-size="26.0" fill="#52575F" transform="matrix(1.00, 0.00, -0.00, -1.00, 645.1, 637.0)">h</text><text xml:space="preserve" font-family="Helvetica" font-size="26.0" fill="#52575F" transform="matrix(1.00, 0.00, -0.00, -1.00, 659.6, 637.0)">e</text><text xml:space="preserve" font-family="Helvetica" font-size="26.0" fill="#52575F" transform="matrix(1.00, 0.00, -0.00, -1.00, 674.1, 637.0)"> </text><text xml:space="preserve" font-family="Helvetica" font-size="26.0" fill="#52575F" transform="matrix(1.00, 0.00, -0.00, -1.00, 681.3, 637.0)">a</text><text xml:space="preserve" font-family="Helvetica" font-size="26.0" fill="#52575F" transform="matrix(1.00, 0.00, -0.00, -1.00, 695.7, 637.0)">u</text><text xml:space="preserve" font-family="Helvetica" font-size="26.0" fill="#52575F" transform="matrix(1.00, 0.00, -0.00, -1.00, 710.2, 637.0)">d</text><text xml:space="preserve" font-family="Helvetica" font-size="26.0" fill="#52575F" transform="matrix(1.00, 0.00, -0.00, -1.00, 724.7, 637.0)">i</text><text xml:space="preserve" font-family="Helvetica" font-size="26.0" fill="#52575F" transform="matrix(1.00, 0.00, -0.00, -1.00, 730.4, 637.0)">e</text><text xml:space="preserve" font-family="Helvetica" font-size="26.0" fill="#52575F" transform="matrix(1.00, 0.00, -0.00, -1.00, 744.9, 637.0)">n</text><text xml:space="preserve" font-family="Helvetica" font-size="26.0" fill="#52575F" transform="matrix(1.00, 0.00, -0.00, -1.00, 759.4, 637.0)">c</text><text xml:space="preserve" font-family="Helvetica" font-size="26.0" fill="#52575F" transform="matrix(1.00, 0.00, -0.00, -1.00, 772.4, 637.0)">e</text><text xml:space="preserve" font-family="Helvetica" font-size="26.0" fill="#52575F" transform="matrix(1.00, 0.00, -0.00, -1.00, 786.8, 637.0)"> </text><text xml:space="preserve" font-family="Helvetica" font-size="26.0" fill="#52575F" transform="matrix(1.00, 0.00, -0.00, -1.00, 794.1, 637.0)">p</text><text xml:space="preserve" font-family="Helvetica" font-size="26.0" fill="#52575F" transform="matrix(1.00, 0.00, -0.00, -1.00, 808.5, 637.0)">a</text><text xml:space="preserve" font-family="Helvetica" font-size="26.0" fill="#52575F" transform="matrix(1.00, 0.00, -0.00, -1.00, 823.0, 637.0)">r</text><text xml:space="preserve" font-family="Helvetica" font-size="26.0" fill="#52575F" transform="matrix(1.00, 0.00, -0.00, -1.00, 831.6, 637.0)">t</text><text xml:space="preserve" font-family="Helvetica" font-size="26.0" fill="#52575F" transform="matrix(1.00, 0.00, -0.00, -1.00, 838.9, 637.0)"> </text><text xml:space="preserve" font-family="Helvetica" font-size="26.0" fill="#52575F" transform="matrix(1.00, 0.00, -0.00, -1.00, 846.1, 637.0)">o</text><text xml:space="preserve" font-family="Helvetica" font-size="26.0" fill="#52575F" transform="matrix(1.00, 0.00, -0.00, -1.00, 860.6, 637.0)">f</text><text xml:space="preserve" font-family="Helvetica" font-size="26.0" fill="#52575F" transform="matrix(1.00, 0.00, -0.00, -1.00, 867.8, 637.0)"> </text><text xml:space="preserve" font-family="Helvetica" font-size="26.0" fill="#52575F" transform="matrix(1.00, 0.00, -0.00, -1.00, 544.0, 606.0)">e</text><text xml:space="preserve" font-family="Helvetica" font-size="26.0" fill="#52575F" transform="matrix(1.00, 0.00, -0.00, -1.00, 558.5, 606.0)">a</text><text xml:space="preserve" font-family="Helvetica" font-size="26.0" fill="#52575F" transform="matrix(1.00, 0.00, -0.00, -1.00, 572.9, 606.0)">c</text><text xml:space="preserve" font-family="Helvetica" font-size="26.0" fill="#52575F" transform="matrix(1.00, 0.00, -0.00, -1.00, 585.9, 606.0)">h</text><text xml:space="preserve" font-family="Helvetica" font-size="26.0" fill="#52575F" transform="matrix(1.00, 0.00, -0.00, -1.00, 600.4, 606.0)"> </text><text xml:space="preserve" font-family="Helvetica" font-size="26.0" fill="#52575F" transform="matrix(1.00, 0.00, -0.00, -1.00, 607.6, 606.0)">o</text><text xml:space="preserve" font-family="Helvetica" font-size="26.0" fill="#52575F" transform="matrix(1.00, 0.00, -0.00, -1.00, 622.1, 606.0)">f</text><text xml:space="preserve" font-family="Helvetica" font-size="26.0" fill="#52575F" transform="matrix(1.00, 0.00, -0.00, -1.00, 629.3, 606.0)"> </text><text xml:space="preserve" font-family="Helvetica" font-size="26.0" fill="#52575F" transform="matrix(1.00, 0.00, -0.00, -1.00, 636.5, 606.0)">t</text><text xml:space="preserve" font-family="Helvetica" font-size="26.0" fill="#52575F" transform="matrix(1.00, 0.00, -0.00, -1.00, 643.7, 606.0)">h</text><text xml:space="preserve" font-family="Helvetica" font-size="26.0" fill="#52575F" transform="matrix(1.00, 0.00, -0.00, -1.00, 658.2, 606.0)">e</text><text xml:space="preserve" font-family="Helvetica" font-size="26.0" fill="#52575F" transform="matrix(1.00, 0.00, -0.00, -1.00, 672.7, 606.0)">s</text><text xml:space="preserve" font-family="Helvetica" font-size="26.0" fill="#52575F" transform="matrix(1.00, 0.00, -0.00, -1.00, 685.7, 606.0)">e</text><text xml:space="preserve" font-family="Helvetica" font-size="26.0" fill="#52575F" transform="matrix(1.00, 0.00, -0.00, -1.00, 700.1, 606.0)"> </text><text xml:space="preserve" font-family="Helvetica" font-size="26.0" fill="#52575F" transform="matrix(1.00, 0.00, -0.00, -1.00, 707.3, 606.0)">t</text><text xml:space="preserve" font-family="Helvetica" font-size="26.0" fill="#52575F" transform="matrix(1.00, 0.00, -0.00, -1.00, 714.6, 606.0)">r</text><text xml:space="preserve" font-family="Helvetica" font-size="26.0" fill="#52575F" transform="matrix(1.00, 0.00, -0.00, -1.00, 723.2, 606.0)">a</text><text xml:space="preserve" font-family="Helvetica" font-size="26.0" fill="#52575F" transform="matrix(1.00, 0.00, -0.00, -1.00, 737.7, 606.0)">d</text><text xml:space="preserve" font-family="Helvetica" font-size="26.0" fill="#52575F" transform="matrix(1.00, 0.00, -0.00, -1.00, 752.2, 606.0)">i</text><text xml:space="preserve" font-family="Helvetica" font-size="26.0" fill="#52575F" transform="matrix(1.00, 0.00, -0.00, -1.00, 757.9, 606.0)">t</text><text xml:space="preserve" font-family="Helvetica" font-size="26.0" fill="#52575F" transform="matrix(1.00, 0.00, -0.00, -1.00, 765.2, 606.0)">i</text><text xml:space="preserve" font-family="Helvetica" font-size="26.0" fill="#52575F" transform="matrix(1.00, 0.00, -0.00, -1.00, 770.9, 606.0)">o</text><text xml:space="preserve" font-family="Helvetica" font-size="26.0" fill="#52575F" transform="matrix(1.00, 0.00, -0.00, -1.00, 785.4, 606.0)">n</text><text xml:space="preserve" font-family="Helvetica" font-size="26.0" fill="#52575F" transform="matrix(1.00, 0.00, -0.00, -1.00, 799.9, 606.0)">a</text><text xml:space="preserve" font-family="Helvetica" font-size="26.0" fill="#52575F" transform="matrix(1.00, 0.00, -0.00, -1.00, 814.3, 606.0)">l</text><text xml:space="preserve" font-family="Helvetica" font-size="26.0" fill="#52575F" transform="matrix(1.00, 0.00, -0.00, -1.00, 820.1, 606.0)"> </text><text xml:space="preserve" font-family="Helvetica" font-size="26.0" fill="#52575F" transform="matrix(1.00, 0.00, -0.00, -1.00, 544.0, 575.0)">m</text><text xml:space="preserve" font-family="Helvetica" font-size="26.0" fill="#52575F" transform="matrix(1.00, 0.00, -0.00, -1.00, 565.7, 575.0)">e</text><text xml:space="preserve" font-family="Helvetica" font-size="26.0" fill="#52575F" transform="matrix(1.00, 0.00, -0.00, -1.00, 580.1, 575.0)">d</text><text xml:space="preserve" font-family="Helvetica" font-size="26.0" fill="#52575F" transform="matrix(1.00, 0.00, -0.00, -1.00, 594.6, 575.0)">i</text><text xml:space="preserve" font-family="Helvetica" font-size="26.0" fill="#52575F" transform="matrix(1.00, 0.00, -0.00, -1.00, 600.4, 575.0)">a</text><text xml:space="preserve" font-family="Helvetica" font-size="26.0" fill="#52575F" transform="matrix(1.00, 0.00, -0.00, -1.00, 614.8, 575.0)"> </text><text xml:space="preserve" font-family="Helvetica" font-size="26.0" fill="#52575F" transform="matrix(1.00, 0.00, -0.00, -1.00, 622.1, 575.0)">?</text><text xml:space="preserve" font-family="Helvetica" font-size="26.0" fill="#52575F" transform="matrix(1.00, 0.00, -0.00, -1.00, 636.5, 575.0)"> </text><text xml:space="preserve" font-family="Helvetica-Bold" font-weight="bold" font-size="36.0" fill="#000000" transform="matrix(1.00, 0.00, -0.00, -1.00, 545.0, 679.0)">Q</text><text xml:space="preserve" font-family="Helvetica-Bold" font-weight="bold" font-size="36.0" fill="#000000" transform="matrix(1.00, 0.00, -0.00, -1.00, 573.0, 679.0)">u</text><text xml:space="preserve" font-family="Helvetica-Bold" font-weight="bold" font-size="36.0" fill="#000000" transform="matrix(1.00, 0.00, -0.00, -1.00, 595.0, 679.0)">i</text><text xml:space="preserve" font-family="Helvetica-Bold" font-weight="bold" font-size="36.0" fill="#000000" transform="matrix(1.00, 0.00, -0.00, -1.00, 605.0, 679.0)">z</text><path d="M 540.5 547.5 L 664.7 547.5 L 664.7 480.5 L 540.5 480.5 Z M 540.5 547.5 " fill="#D9D9D9"></path><path d="M 664.1 547.5 L 917.5 547.5 L 917.5 480.5 L 664.1 480.5 Z M 664.1 547.5 " fill="#D9D9D9"></path><g><clipPath id="clip-165"><path d="M 663.6 480.5 L 918.0 480.5 L 918.0 547.5 L 663.6 547.5 Z M 663.6 480.5 "></path></clipPath><g clip-path="url(#clip-165)"><text xml:space="preserve" font-family="Helvetica-Bold" font-weight="bold" font-size="18.0" fill="#52575F" transform="matrix(1.00, 0.00, -0.00, -1.00, 668.0, 507.0)">T</text><text xml:space="preserve" font-family="Helvetica-Bold" font-weight="bold" font-size="18.0" fill="#52575F" transform="matrix(1.00, 0.00, -0.00, -1.00, 679.0, 507.0)">V</text></g></g><path d="M 561.0 102.7 L 892.2 102.7 C 898.8 102.7 902.1 102.7 905.7 101.6 C 909.5 100.2 912.6 97.1 914.0 93.2 C 915.1 89.7 915.1 86.3 915.1 79.7 L 915.1 74.6 C 915.1 68.1 915.1 64.7 914.0 61.2 C 912.6 57.3 909.5 54.2 905.7 52.8 C 902.1 51.7 898.8 51.7 892.1 51.7 L 561.0 51.7 C 554.5 51.7 551.1 51.7 547.6 52.8 C 543.7 54.2 540.6 57.3 539.2 61.2 C 538.1 64.7 538.1 68.1 538.1 74.7 L 538.1 79.8 C 538.1 86.3 538.1 89.7 539.2 93.2 C 540.6 97.1 543.7 100.2 547.6 101.6 C 551.1 102.7 554.5 102.7 561.1 102.7 Z M 561.0 102.7 " fill="#1497FC"></path><g><clipPath id="clip-166"><path d="M 537.0 51.7 L 916.2 51.7 L 916.2 102.7 L 537.0 102.7 Z M 537.0 51.7 "></path></clipPath><g clip-path="url(#clip-166)"><text xml:space="preserve" font-family="Helvetica-Bold" font-weight="bold" font-size="26.0" fill="#FEFFFF" transform="matrix(1.00, 0.00, -0.00, -1.00, 691.0, 68.0)">V</text><text xml:space="preserve" font-family="Helvetica-Bold" font-weight="bold" font-size="26.0" fill="#FEFFFF" transform="matrix(1.00, 0.00, -0.00, -1.00, 706.9, 68.0)">e</text><text xml:space="preserve" font-family="Helvetica-Bold" font-weight="bold" font-size="26.0" fill="#FEFFFF" transform="matrix(1.00, 0.00, -0.00, -1.00, 721.4, 68.0)">r</text><text xml:space="preserve" font-family="Helvetica-Bold" font-weight="bold" font-size="26.0" fill="#FEFFFF" transform="matrix(1.00, 0.00, -0.00, -1.00, 731.5, 68.0)">i</text><text xml:space="preserve" font-family="Helvetica-Bold" font-weight="bold" font-size="26.0" fill="#FEFFFF" transform="matrix(1.00, 0.00, -0.00, -1.00, 738.7, 68.0)">f</text><text xml:space="preserve" font-family="Helvetica-Bold" font-weight="bold" font-size="26.0" fill="#FEFFFF" transform="matrix(1.00, 0.00, -0.00, -1.00, 747.4, 68.0)">y</text></g></g><image xlink:href="../../1E3C804E-423B-4CF8-81B0-D727698E286C/assets/BEF03B71616C73BF5D3086B8F47535C7.png" width="67.00" height="59.00" transform="matrix(0.99, 0.00, -0.00, -1.00, 572.0, 543.0)"></image><path d="M 22.9 0.0 L 40.7 0.0 C 47.2 0.0 50.6 0.0 54.1 1.1 C 58.0 2.5 61.1 5.6 62.5 9.5 C 63.6 13.0 63.6 16.4 63.6 23.0 L 63.6 26.4 C 63.6 33.0 63.6 36.3 62.5 39.8 C 61.1 43.7 58.0 46.8 54.1 48.2 C 50.6 49.3 47.2 49.3 40.6 49.3 L 22.9 49.3 C 16.4 49.3 13.0 49.3 9.5 48.2 C 5.6 46.8 2.5 43.7 1.1 39.8 C 0.0 36.3 0.0 33.0 0.0 26.3 L 0.0 22.9 C 0.0 16.4 0.0 13.0 1.1 9.5 C 2.5 5.6 5.6 2.5 9.5 1.1 C 13.0 0.0 16.4 0.0 23.0 0.0 Z M 22.9 0.0 " fill="none" stroke="#52575F" stroke-width="1.10" stroke-dasharray="1.1, 1.1" transform="matrix(1.00, 0.00, 0.00, -1.00, 833.5, 538.7)"></path><g><clipPath id="clip-167"><path d="M 833.5 489.3 L 897.1 489.3 L 897.1 538.7 L 833.5 538.7 Z M 833.5 489.3 "></path></clipPath><g clip-path="url(#clip-167)"><text xml:space="preserve" font-family="Helvetica-Light" font-size="26.0" fill="#52575F" transform="matrix(1.00, 0.00, -0.00, -1.00, 859.0, 505.0)">?</text></g></g><path d="M 540.5 463.3 L 664.7 463.3 L 664.7 396.3 L 540.5 396.3 Z M 540.5 463.3 " fill="#D9D9D9"></path><path d="M 664.1 463.3 L 917.5 463.3 L 917.5 396.3 L 664.1 396.3 Z M 664.1 463.3 " fill="#D9D9D9"></path><g><clipPath id="clip-168"><path d="M 663.6 396.3 L 918.0 396.3 L 918.0 463.3 L 663.6 463.3 Z M 663.6 396.3 "></path></clipPath><g clip-path="url(#clip-168)"><text xml:space="preserve" font-family="Helvetica-Bold" font-weight="bold" font-size="18.0" fill="#52575F" transform="matrix(1.00, 0.00, -0.00, -1.00, 668.0, 422.0)">R</text><text xml:space="preserve" font-family="Helvetica-Bold" font-weight="bold" font-size="18.0" fill="#52575F" transform="matrix(1.00, 0.00, -0.00, -1.00, 681.0, 422.0)">a</text><text xml:space="preserve" font-family="Helvetica-Bold" font-weight="bold" font-size="18.0" fill="#52575F" transform="matrix(1.00, 0.00, -0.00, -1.00, 691.0, 422.0)">d</text><text xml:space="preserve" font-family="Helvetica-Bold" font-weight="bold" font-size="18.0" fill="#52575F" transform="matrix(1.00, 0.00, -0.00, -1.00, 702.0, 422.0)">i</text><text xml:space="preserve" font-family="Helvetica-Bold" font-weight="bold" font-size="18.0" fill="#52575F" transform="matrix(1.00, 0.00, -0.00, -1.00, 707.0, 422.0)">o</text></g></g><path d="M 22.9 0.0 L 40.7 0.0 C 47.2 0.0 50.6 0.0 54.1 1.1 C 58.0 2.5 61.1 5.6 62.5 9.5 C 63.6 13.0 63.6 16.4 63.6 23.0 L 63.6 26.4 C 63.6 33.0 63.6 36.3 62.5 39.8 C 61.1 43.7 58.0 46.8 54.1 48.2 C 50.6 49.3 47.2 49.3 40.6 49.3 L 22.9 49.3 C 16.4 49.3 13.0 49.3 9.5 48.2 C 5.6 46.8 2.5 43.7 1.1 39.8 C 0.0 36.3 0.0 33.0 0.0 26.3 L 0.0 22.9 C 0.0 16.4 0.0 13.0 1.1 9.5 C 2.5 5.6 5.6 2.5 9.5 1.1 C 13.0 0.0 16.4 0.0 23.0 0.0 Z M 22.9 0.0 " fill="none" stroke="#52575F" stroke-width="1.10" stroke-dasharray="1.1, 1.1" transform="matrix(1.00, 0.00, 0.00, -1.00, 833.5, 454.5)"></path><g><clipPath id="clip-169"><path d="M 833.5 405.2 L 897.1 405.2 L 897.1 454.5 L 833.5 454.5 Z M 833.5 405.2 "></path></clipPath><g clip-path="url(#clip-169)"><text xml:space="preserve" font-family="Helvetica-Light" font-size="26.0" fill="#52575F" transform="matrix(1.00, 0.00, -0.00, -1.00, 859.0, 421.0)">?</text></g></g><image xlink:href="../../1E3C804E-423B-4CF8-81B0-D727698E286C/assets/D96A14B11CA28ACCC5A7E288342093FA.png" width="74.00" height="50.00" transform="matrix(1.00, 0.00, -0.00, -1.00, 568.0, 459.0)"></image><path d="M 540.5 379.2 L 664.7 379.2 L 664.7 312.2 L 540.5 312.2 Z M 540.5 379.2 " fill="#D9D9D9"></path><path d="M 664.1 379.2 L 917.5 379.2 L 917.5 312.2 L 664.1 312.2 Z M 664.1 379.2 " fill="#D9D9D9"></path><g><clipPath id="clip-170"><path d="M 663.6 312.2 L 918.0 312.2 L 918.0 379.2 L 663.6 379.2 Z M 663.6 312.2 "></path></clipPath><g clip-path="url(#clip-170)"><text xml:space="preserve" font-family="Helvetica-Bold" font-weight="bold" font-size="18.0" fill="#52575F" transform="matrix(1.00, 0.00, -0.00, -1.00, 668.0, 338.0)">N</text><text xml:space="preserve" font-family="Helvetica-Bold" font-weight="bold" font-size="18.0" fill="#52575F" transform="matrix(1.00, 0.00, -0.00, -1.00, 681.0, 338.0)">e</text><text xml:space="preserve" font-family="Helvetica-Bold" font-weight="bold" font-size="18.0" fill="#52575F" transform="matrix(1.00, 0.00, -0.00, -1.00, 691.0, 338.0)">w</text><text xml:space="preserve" font-family="Helvetica-Bold" font-weight="bold" font-size="18.0" fill="#52575F" transform="matrix(1.00, 0.00, -0.00, -1.00, 705.0, 338.0)">s</text><text xml:space="preserve" font-family="Helvetica-Bold" font-weight="bold" font-size="18.0" fill="#52575F" transform="matrix(1.00, 0.00, -0.00, -1.00, 715.0, 338.0)">p</text><text xml:space="preserve" font-family="Helvetica-Bold" font-weight="bold" font-size="18.0" fill="#52575F" transform="matrix(1.00, 0.00, -0.00, -1.00, 726.0, 338.0)">a</text><text xml:space="preserve" font-family="Helvetica-Bold" font-weight="bold" font-size="18.0" fill="#52575F" transform="matrix(1.00, 0.00, -0.00, -1.00, 736.0, 338.0)">p</text><text xml:space="preserve" font-family="Helvetica-Bold" font-weight="bold" font-size="18.0" fill="#52575F" transform="matrix(1.00, 0.00, -0.00, -1.00, 747.0, 338.0)">e</text><text xml:space="preserve" font-family="Helvetica-Bold" font-weight="bold" font-size="18.0" fill="#52575F" transform="matrix(1.00, 0.00, -0.00, -1.00, 757.1, 338.0)">r</text></g></g><path d="M 22.9 0.0 L 40.7 0.0 C 47.2 0.0 50.6 0.0 54.1 1.1 C 58.0 2.5 61.1 5.6 62.5 9.5 C 63.6 13.0 63.6 16.4 63.6 23.0 L 63.6 26.4 C 63.6 33.0 63.6 36.3 62.5 39.8 C 61.1 43.7 58.0 46.8 54.1 48.2 C 50.6 49.3 47.2 49.3 40.6 49.3 L 22.9 49.3 C 16.4 49.3 13.0 49.3 9.5 48.2 C 5.6 46.8 2.5 43.7 1.1 39.8 C 0.0 36.3 0.0 33.0 0.0 26.3 L 0.0 22.9 C 0.0 16.4 0.0 13.0 1.1 9.5 C 2.5 5.6 5.6 2.5 9.5 1.1 C 13.0 0.0 16.4 0.0 23.0 0.0 Z M 22.9 0.0 " fill="none" stroke="#52575F" stroke-width="1.10" stroke-dasharray="1.1, 1.1" transform="matrix(1.00, 0.00, 0.00, -1.00, 833.5, 370.3)"></path><g><clipPath id="clip-171"><path d="M 833.5 321.0 L 897.1 321.0 L 897.1 370.3 L 833.5 370.3 Z M 833.5 321.0 "></path></clipPath><g clip-path="url(#clip-171)"><text xml:space="preserve" font-family="Helvetica-Light" font-size="26.0" fill="#52575F" transform="matrix(1.00, 0.00, -0.00, -1.00, 859.0, 337.0)">?</text></g></g><image xlink:href="../../1E3C804E-423B-4CF8-81B0-D727698E286C/assets/922601614862C0DAF238BDE0C812C6A2.png" width="67.00" height="62.00" transform="matrix(0.99, 0.00, -0.00, -1.00, 572.0, 377.0)"></image><path d="M 538.1 295.0 L 662.3 295.0 L 662.3 228.0 L 538.1 228.0 Z M 538.1 295.0 " fill="#D9D9D9"></path><path d="M 661.7 295.0 L 915.1 295.0 L 915.1 228.0 L 661.7 228.0 Z M 661.7 295.0 " fill="#D9D9D9"></path><g><clipPath id="clip-172"><path d="M 661.2 228.0 L 915.6 228.0 L 915.6 295.0 L 661.2 295.0 Z M 661.2 228.0 "></path></clipPath><g clip-path="url(#clip-172)"><text xml:space="preserve" font-family="Helvetica-Bold" font-weight="bold" font-size="18.0" fill="#52575F" transform="matrix(1.00, 0.00, -0.00, -1.00, 666.0, 254.0)">D</text><text xml:space="preserve" font-family="Helvetica-Bold" font-weight="bold" font-size="18.0" fill="#52575F" transform="matrix(1.00, 0.00, -0.00, -1.00, 679.0, 254.0)">e</text><text xml:space="preserve" font-family="Helvetica-Bold" font-weight="bold" font-size="18.0" fill="#52575F" transform="matrix(1.00, 0.00, -0.00, -1.00, 689.0, 254.0)">s</text><text xml:space="preserve" font-family="Helvetica-Bold" font-weight="bold" font-size="18.0" fill="#52575F" transform="matrix(1.00, 0.00, -0.00, -1.00, 699.0, 254.0)">k</text><text xml:space="preserve" font-family="Helvetica-Bold" font-weight="bold" font-size="18.0" fill="#52575F" transform="matrix(1.00, 0.00, -0.00, -1.00, 709.0, 254.0)">t</text><text xml:space="preserve" font-family="Helvetica-Bold" font-weight="bold" font-size="18.0" fill="#52575F" transform="matrix(1.00, 0.00, -0.00, -1.00, 715.0, 254.0)">o</text><text xml:space="preserve" font-family="Helvetica-Bold" font-weight="bold" font-size="18.0" fill="#52575F" transform="matrix(1.00, 0.00, -0.00, -1.00, 726.0, 254.0)">p</text></g></g><path d="M 22.9 0.0 L 40.7 0.0 C 47.2 0.0 50.6 0.0 54.1 1.1 C 58.0 2.5 61.1 5.6 62.5 9.5 C 63.6 13.0 63.6 16.4 63.6 23.0 L 63.6 26.4 C 63.6 33.0 63.6 36.3 62.5 39.8 C 61.1 43.7 58.0 46.8 54.1 48.2 C 50.6 49.3 47.2 49.3 40.6 49.3 L 22.9 49.3 C 16.4 49.3 13.0 49.3 9.5 48.2 C 5.6 46.8 2.5 43.7 1.1 39.8 C 0.0 36.3 0.0 33.0 0.0 26.3 L 0.0 22.9 C 0.0 16.4 0.0 13.0 1.1 9.5 C 2.5 5.6 5.6 2.5 9.5 1.1 C 13.0 0.0 16.4 0.0 23.0 0.0 Z M 22.9 0.0 " fill="none" stroke="#52575F" stroke-width="1.10" stroke-dasharray="1.1, 1.1" transform="matrix(1.00, 0.00, 0.00, -1.00, 831.1, 286.2)"></path><g><clipPath id="clip-173"><path d="M 831.1 236.9 L 894.7 236.9 L 894.7 286.2 L 831.1 286.2 Z M 831.1 236.9 "></path></clipPath><g clip-path="url(#clip-173)"><text xml:space="preserve" font-family="Helvetica-Light" font-size="26.0" fill="#52575F" transform="matrix(1.00, 0.00, -0.00, -1.00, 856.0, 252.0)">?</text></g></g><path d="M 538.1 208.0 L 662.3 208.0 L 662.3 141.0 L 538.1 141.0 Z M 538.1 208.0 " fill="#D9D9D9"></path><path d="M 661.7 208.0 L 915.1 208.0 L 915.1 141.0 L 661.7 141.0 Z M 661.7 208.0 " fill="#D9D9D9"></path><g><clipPath id="clip-174"><path d="M 661.2 141.0 L 915.6 141.0 L 915.6 208.0 L 661.2 208.0 Z M 661.2 141.0 "></path></clipPath><g clip-path="url(#clip-174)"><text xml:space="preserve" font-family="Helvetica-Bold" font-weight="bold" font-size="18.0" fill="#52575F" transform="matrix(1.00, 0.00, -0.00, -1.00, 666.0, 167.0)">S</text><text xml:space="preserve" font-family="Helvetica-Bold" font-weight="bold" font-size="18.0" fill="#52575F" transform="matrix(1.00, 0.00, -0.00, -1.00, 678.0, 167.0)">m</text><text xml:space="preserve" font-family="Helvetica-Bold" font-weight="bold" font-size="18.0" fill="#52575F" transform="matrix(1.00, 0.00, -0.00, -1.00, 694.0, 167.0)">a</text><text xml:space="preserve" font-family="Helvetica-Bold" font-weight="bold" font-size="18.0" fill="#52575F" transform="matrix(1.00, 0.00, -0.00, -1.00, 704.0, 167.0)">r</text><text xml:space="preserve" font-family="Helvetica-Bold" font-weight="bold" font-size="18.0" fill="#52575F" transform="matrix(1.00, 0.00, -0.00, -1.00, 711.0, 167.0)">t</text><text xml:space="preserve" font-family="Helvetica-Bold" font-weight="bold" font-size="18.0" fill="#52575F" transform="matrix(1.00, 0.00, -0.00, -1.00, 717.0, 167.0)">p</text><text xml:space="preserve" font-family="Helvetica-Bold" font-weight="bold" font-size="18.0" fill="#52575F" transform="matrix(1.00, 0.00, -0.00, -1.00, 728.0, 167.0)">h</text><text xml:space="preserve" font-family="Helvetica-Bold" font-weight="bold" font-size="18.0" fill="#52575F" transform="matrix(1.00, 0.00, -0.00, -1.00, 739.0, 167.0)">o</text><text xml:space="preserve" font-family="Helvetica-Bold" font-weight="bold" font-size="18.0" fill="#52575F" transform="matrix(1.00, 0.00, -0.00, -1.00, 750.0, 167.0)">n</text><text xml:space="preserve" font-family="Helvetica-Bold" font-weight="bold" font-size="18.0" fill="#52575F" transform="matrix(1.00, 0.00, -0.00, -1.00, 761.0, 167.0)">e</text></g></g><path d="M 22.9 0.0 L 40.7 0.0 C 47.2 0.0 50.6 0.0 54.1 1.1 C 58.0 2.5 61.1 5.6 62.5 9.5 C 63.6 13.0 63.6 16.4 63.6 23.0 L 63.6 26.4 C 63.6 33.0 63.6 36.3 62.5 39.8 C 61.1 43.7 58.0 46.8 54.1 48.2 C 50.6 49.3 47.2 49.3 40.6 49.3 L 22.9 49.3 C 16.4 49.3 13.0 49.3 9.5 48.2 C 5.6 46.8 2.5 43.7 1.1 39.8 C 0.0 36.3 0.0 33.0 0.0 26.3 L 0.0 22.9 C 0.0 16.4 0.0 13.0 1.1 9.5 C 2.5 5.6 5.6 2.5 9.5 1.1 C 13.0 0.0 16.4 0.0 23.0 0.0 Z M 22.9 0.0 " fill="none" stroke="#52575F" stroke-width="1.10" stroke-dasharray="1.1, 1.1" transform="matrix(1.00, 0.00, 0.00, -1.00, 831.1, 199.2)"></path><g><clipPath id="clip-175"><path d="M 831.1 149.9 L 894.7 149.9 L 894.7 199.2 L 831.1 199.2 Z M 831.1 149.9 "></path></clipPath><g clip-path="url(#clip-175)"><text xml:space="preserve" font-family="Helvetica-Light" font-size="26.0" fill="#52575F" transform="matrix(1.00, 0.00, -0.00, -1.00, 856.0, 165.0)">?</text></g></g><image xlink:href="../../1E3C804E-423B-4CF8-81B0-D727698E286C/assets/766799A7D29EECB99F7BEABDD4CA88A8.png" width="81.00" height="56.00" transform="matrix(0.99, 0.00, -0.00, -0.98, 565.0, 289.0)"></image><image xlink:href="../../1E3C804E-423B-4CF8-81B0-D727698E286C/assets/30E55781965633A87669061BCF43975A.png" width="49.00" height="59.00" transform="matrix(1.00, 0.00, -0.00, -1.00, 581.0, 204.0)"></image><path d="M 819.3 548.0 L 912.9 548.0 L 912.9 481.0 L 819.3 481.0 Z M 819.3 548.0 " fill="#D9D9D9"></path><g><clipPath id="clip-176"><path d="M 818.8 481.0 L 913.4 481.0 L 913.4 548.0 L 818.8 548.0 Z M 818.8 481.0 "></path></clipPath><g clip-path="url(#clip-176)"><text xml:space="preserve" font-family="Helvetica-Bold" font-weight="bold" font-size="18.0" fill="#1497FC" transform="matrix(1.00, 0.00, -0.00, -1.00, 848.0, 507.0)">3</text><text xml:space="preserve" font-family="Helvetica-Bold" font-weight="bold" font-size="18.0" fill="#1497FC" transform="matrix(1.00, 0.00, -0.00, -1.00, 858.0, 507.0)">7</text><text xml:space="preserve" font-family="Helvetica-Bold" font-weight="bold" font-size="18.0" fill="#1497FC" transform="matrix(1.00, 0.00, -0.00, -1.00, 868.0, 507.0)">%</text></g></g><path d="M 819.8 463.3 L 913.4 463.3 L 913.4 396.3 L 819.8 396.3 Z M 819.8 463.3 " fill="#D9D9D9"></path><g><clipPath id="clip-177"><path d="M 819.3 396.3 L 913.9 396.3 L 913.9 463.3 L 819.3 463.3 Z M 819.3 396.3 "></path></clipPath><g clip-path="url(#clip-177)"><text xml:space="preserve" font-family="Helvetica-Bold" font-weight="bold" font-size="18.0" fill="#1497FC" transform="matrix(1.00, 0.00, -0.00, -1.00, 849.0, 422.0)">2</text><text xml:space="preserve" font-family="Helvetica-Bold" font-weight="bold" font-size="18.0" fill="#1497FC" transform="matrix(1.00, 0.00, -0.00, -1.00, 859.0, 422.0)">4</text><text xml:space="preserve" font-family="Helvetica-Bold" font-weight="bold" font-size="18.0" fill="#1497FC" transform="matrix(1.00, 0.00, -0.00, -1.00, 869.0, 422.0)">%</text></g></g><path d="M 819.3 379.2 L 912.9 379.2 L 912.9 312.2 L 819.3 312.2 Z M 819.3 379.2 " fill="#D9D9D9"></path><g><clipPath id="clip-178"><path d="M 818.8 312.2 L 913.4 312.2 L 913.4 379.2 L 818.8 379.2 Z M 818.8 312.2 "></path></clipPath><g clip-path="url(#clip-178)"><text xml:space="preserve" font-family="Helvetica-Bold" font-weight="bold" font-size="18.0" fill="#1497FC" transform="matrix(1.00, 0.00, -0.00, -1.00, 848.0, 338.0)">2</text><text xml:space="preserve" font-family="Helvetica-Bold" font-weight="bold" font-size="18.0" fill="#1497FC" transform="matrix(1.00, 0.00, -0.00, -1.00, 858.0, 338.0)">4</text><text xml:space="preserve" font-family="Helvetica-Bold" font-weight="bold" font-size="18.0" fill="#1497FC" transform="matrix(1.00, 0.00, -0.00, -1.00, 868.0, 338.0)">%</text></g></g><path d="M 817.4 295.0 L 911.0 295.0 L 911.0 228.0 L 817.4 228.0 Z M 817.4 295.0 " fill="#D9D9D9"></path><g><clipPath id="clip-179"><path d="M 816.9 228.0 L 911.5 228.0 L 911.5 295.0 L 816.9 295.0 Z M 816.9 228.0 "></path></clipPath><g clip-path="url(#clip-179)"><text xml:space="preserve" font-family="Helvetica-Bold" font-weight="bold" font-size="18.0" fill="#1497FC" transform="matrix(1.00, 0.00, -0.00, -1.00, 851.0, 254.0)">4</text><text xml:space="preserve" font-family="Helvetica-Bold" font-weight="bold" font-size="18.0" fill="#1497FC" transform="matrix(1.00, 0.00, -0.00, -1.00, 861.0, 254.0)">%</text></g></g><path d="M 817.4 207.4 L 911.0 207.4 L 911.0 140.4 L 817.4 140.4 Z M 817.4 207.4 " fill="#D9D9D9"></path><g><clipPath id="clip-180"><path d="M 816.9 140.4 L 911.5 140.4 L 911.5 207.4 L 816.9 207.4 Z M 816.9 140.4 "></path></clipPath><g clip-path="url(#clip-180)"><text xml:space="preserve" font-family="Helvetica-Bold" font-weight="bold" font-size="18.0" fill="#1497FC" transform="matrix(1.00, 0.00, -0.00, -1.00, 847.0, 167.0)">1</text><text xml:space="preserve" font-family="Helvetica-Bold" font-weight="bold" font-size="18.0" fill="#1497FC" transform="matrix(1.00, 0.00, -0.00, -1.00, 856.0, 167.0)">1</text><text xml:space="preserve" font-family="Helvetica-Bold" font-weight="bold" font-size="18.0" fill="#1497FC" transform="matrix(1.00, 0.00, -0.00, -1.00, 866.0, 167.0)">%</text></g></g><path d="M 917.5 639.2 L 945.9 639.2 L 945.9 121.7 L 917.5 121.7 Z M 917.5 639.2 " fill="#FEFFFE"></path><path d="M 945.9 635.0 L 1032.9 635.0 L 1032.9 102.7 L 945.9 102.7 Z M 945.9 635.0 " fill="#000000"></path></g></svg>