<?xml version="1.0" encoding="UTF-8" standalone="no"?><svg xmlns="http://www.w3.org/2000/svg" xmlns:xlink="http://www.w3.org/1999/xlink" clip-rule="evenodd" stroke-miterlimit="4.00" viewBox="0 0 125 70"><desc>SVG generated by Keynote</desc><defs></defs><g transform="matrix(1.00, 0.00, -0.00, -1.00, 0.0, 70.0)"><path d="M 1.8 68.2 L 123.9 68.2 L 123.9 1.2 L 1.8 1.2 Z M 1.8 68.2 " fill="#D9D9D9"></path><g><clipPath id="clip-214"><path d="M 1.3 1.2 L 124.4 1.2 L 124.4 68.2 L 1.3 68.2 Z M 1.3 1.2 "></path></clipPath><g clip-path="url(#clip-214)"><text xml:space="preserve" font-family="Helvetica-Bold" font-weight="bold" font-size="18.0" fill="#1497FC" transform="matrix(1.00, 0.00, -0.00, -1.00, 14.0, 38.0)">t</text><text xml:space="preserve" font-family="Helvetica-Bold" font-weight="bold" font-size="18.0" fill="#1497FC" transform="matrix(1.00, 0.00, -0.00, -1.00, 20.0, 38.0)">w</text><text xml:space="preserve" font-family="Helvetica-Bold" font-weight="bold" font-size="18.0" fill="#1497FC" transform="matrix(1.00, 0.00, -0.00, -1.00, 34.0, 38.0)">e</text><text xml:space="preserve" font-family="Helvetica-Bold" font-weight="bold" font-size="18.0" fill="#1497FC" transform="matrix(1.00, 0.00, -0.00, -1.00, 44.0, 38.0)">n</text><text xml:space="preserve" font-family="Helvetica-Bold" font-weight="bold" font-size="18.0" fill="#1497FC" transform="matrix(1.00, 0.00, -0.00, -1.00, 55.0, 38.0)">t</text><text xml:space="preserve" font-family="Helvetica-Bold" font-weight="bold" font-size="18.0" fill="#1497FC" transform="matrix(1.00, 0.00, -0.00, -1.00, 61.0, 38.0)">y</text><text xml:space="preserve" font-family="Helvetica-Bold" font-weight="bold" font-size="18.0" fill="#1497FC" transform="matrix(1.00, 0.00, -0.00, -1.00, 71.0, 38.0)"> </text><text xml:space="preserve" font-family="Helvetica-Bold" font-weight="bold" font-size="18.0" fill="#1497FC" transform="matrix(1.00, 0.00, -0.00, -1.00, 76.0, 38.0)">f</text><text xml:space="preserve" font-family="Helvetica-Bold" font-weight="bold" font-size="18.0" fill="#1497FC" transform="matrix(1.00, 0.00, -0.00, -1.00, 82.0, 38.0)">o</text><text xml:space="preserve" font-family="Helvetica-Bold" font-weight="bold" font-size="18.0" fill="#1497FC" transform="matrix(1.00, 0.00, -0.00, -1.00, 93.0, 38.0)">u</text><text xml:space="preserve" font-family="Helvetica-Bold" font-weight="bold" font-size="18.0" fill="#1497FC" transform="matrix(1.00, 0.00, -0.00, -1.00, 104.0, 38.0)">r</text><text xml:space="preserve" font-family="Helvetica-Bold" font-weight="bold" font-size="18.0" fill="#1497FC" transform="matrix(1.00, 0.00, -0.00, -1.00, 111.0, 38.0)"> </text><text xml:space="preserve" font-family="Helvetica-Bold" font-weight="bold" font-size="18.0" fill="#1497FC" transform="matrix(1.00, 0.00, -0.00, -1.00, 25.0, 16.0)">p</text><text xml:space="preserve" font-family="Helvetica-Bold" font-weight="bold" font-size="18.0" fill="#1497FC" transform="matrix(1.00, 0.00, -0.00, -1.00, 36.0, 16.0)">e</text><text xml:space="preserve" font-family="Helvetica-Bold" font-weight="bold" font-size="18.0" fill="#1497FC" transform="matrix(1.00, 0.00, -0.00, -1.00, 46.0, 16.0)">r</text><text xml:space="preserve" font-family="Helvetica-Bold" font-weight="bold" font-size="18.0" fill="#1497FC" transform="matrix(1.00, 0.00, -0.00, -1.00, 53.0, 16.0)">c</text><text xml:space="preserve" font-family="Helvetica-Bold" font-weight="bold" font-size="18.0" fill="#1497FC" transform="matrix(1.00, 0.00, -0.00, -1.00, 63.0, 16.0)">e</text><text xml:space="preserve" font-family="Helvetica-Bold" font-weight="bold" font-size="18.0" fill="#1497FC" transform="matrix(1.00, 0.00, -0.00, -1.00, 73.0, 16.0)">n</text><text xml:space="preserve" font-family="Helvetica-Bold" font-weight="bold" font-size="18.0" fill="#1497FC" transform="matrix(1.00, 0.00, -0.00, -1.00, 84.0, 16.0)">t</text><text xml:space="preserve" font-family="Helvetica-Bold" font-weight="bold" font-size="18.0" fill="#1497FC" transform="matrix(1.00, 0.00, -0.00, -1.00, 90.0, 16.0)">s</text></g></g></g></svg>