<?xml version="1.0" encoding="UTF-8" standalone="no"?><svg xmlns="http://www.w3.org/2000/svg" xmlns:xlink="http://www.w3.org/1999/xlink" clip-rule="evenodd" stroke-miterlimit="4.00" viewBox="0 0 128 70"><desc>SVG generated by Keynote</desc><defs></defs><g transform="matrix(1.00, 0.00, -0.00, -1.00, 0.0, 70.0)"><path d="M 1.4 68.3 L 126.4 68.3 L 126.4 1.3 L 1.4 1.3 Z M 1.4 68.3 " fill="#D9D9D9"></path><g><clipPath id="clip-213"><path d="M 0.9 1.3 L 126.9 1.3 L 126.9 68.3 L 0.9 68.3 Z M 0.9 1.3 "></path></clipPath><g clip-path="url(#clip-213)"><text xml:space="preserve" font-family="Helvetica-Bold" font-weight="bold" font-size="18.0" fill="#1497FC" transform="matrix(1.00, 0.00, -0.00, -1.00, 15.0, 38.0)">t</text><text xml:space="preserve" font-family="Helvetica-Bold" font-weight="bold" font-size="18.0" fill="#1497FC" transform="matrix(1.00, 0.00, -0.00, -1.00, 21.0, 38.0)">w</text><text xml:space="preserve" font-family="Helvetica-Bold" font-weight="bold" font-size="18.0" fill="#1497FC" transform="matrix(1.00, 0.00, -0.00, -1.00, 35.0, 38.0)">e</text><text xml:space="preserve" font-family="Helvetica-Bold" font-weight="bold" font-size="18.0" fill="#1497FC" transform="matrix(1.00, 0.00, -0.00, -1.00, 45.0, 38.0)">n</text><text xml:space="preserve" font-family="Helvetica-Bold" font-weight="bold" font-size="18.0" fill="#1497FC" transform="matrix(1.00, 0.00, -0.00, -1.00, 56.0, 38.0)">t</text><text xml:space="preserve" font-family="Helvetica-Bold" font-weight="bold" font-size="18.0" fill="#1497FC" transform="matrix(1.00, 0.00, -0.00, -1.00, 62.0, 38.0)">y</text><text xml:space="preserve" font-family="Helvetica-Bold" font-weight="bold" font-size="18.0" fill="#1497FC" transform="matrix(1.00, 0.00, -0.00, -1.00, 72.0, 38.0)"> </text><text xml:space="preserve" font-family="Helvetica-Bold" font-weight="bold" font-size="18.0" fill="#1497FC" transform="matrix(1.00, 0.00, -0.00, -1.00, 77.0, 38.0)">f</text><text xml:space="preserve" font-family="Helvetica-Bold" font-weight="bold" font-size="18.0" fill="#1497FC" transform="matrix(1.00, 0.00, -0.00, -1.00, 83.0, 38.0)">o</text><text xml:space="preserve" font-family="Helvetica-Bold" font-weight="bold" font-size="18.0" fill="#1497FC" transform="matrix(1.00, 0.00, -0.00, -1.00, 94.0, 38.0)">u</text><text xml:space="preserve" font-family="Helvetica-Bold" font-weight="bold" font-size="18.0" fill="#1497FC" transform="matrix(1.00, 0.00, -0.00, -1.00, 105.0, 38.0)">r</text><text xml:space="preserve" font-family="Helvetica-Bold" font-weight="bold" font-size="18.0" fill="#1497FC" transform="matrix(1.00, 0.00, -0.00, -1.00, 112.0, 38.0)"> </text><text xml:space="preserve" font-family="Helvetica-Bold" font-weight="bold" font-size="18.0" fill="#1497FC" transform="matrix(1.00, 0.00, -0.00, -1.00, 26.0, 16.0)">p</text><text xml:space="preserve" font-family="Helvetica-Bold" font-weight="bold" font-size="18.0" fill="#1497FC" transform="matrix(1.00, 0.00, -0.00, -1.00, 37.0, 16.0)">e</text><text xml:space="preserve" font-family="Helvetica-Bold" font-weight="bold" font-size="18.0" fill="#1497FC" transform="matrix(1.00, 0.00, -0.00, -1.00, 47.0, 16.0)">r</text><text xml:space="preserve" font-family="Helvetica-Bold" font-weight="bold" font-size="18.0" fill="#1497FC" transform="matrix(1.00, 0.00, -0.00, -1.00, 54.0, 16.0)">c</text><text xml:space="preserve" font-family="Helvetica-Bold" font-weight="bold" font-size="18.0" fill="#1497FC" transform="matrix(1.00, 0.00, -0.00, -1.00, 64.0, 16.0)">e</text><text xml:space="preserve" font-family="Helvetica-Bold" font-weight="bold" font-size="18.0" fill="#1497FC" transform="matrix(1.00, 0.00, -0.00, -1.00, 74.0, 16.0)">n</text><text xml:space="preserve" font-family="Helvetica-Bold" font-weight="bold" font-size="18.0" fill="#1497FC" transform="matrix(1.00, 0.00, -0.00, -1.00, 85.0, 16.0)">t</text><text xml:space="preserve" font-family="Helvetica-Bold" font-weight="bold" font-size="18.0" fill="#1497FC" transform="matrix(1.00, 0.00, -0.00, -1.00, 91.0, 16.0)">s</text></g></g></g></svg>