<?xml version="1.0" encoding="UTF-8" standalone="no"?><svg xmlns="http://www.w3.org/2000/svg" xmlns:xlink="http://www.w3.org/1999/xlink" clip-rule="evenodd" stroke-miterlimit="4.00" viewBox="0 0 125 70"><desc>SVG generated by Keynote</desc><defs></defs><g transform="matrix(1.00, 0.00, -0.00, -1.00, 0.0, 70.0)"><path d="M 1.9 68.0 L 124.0 68.0 L 124.0 1.0 L 1.9 1.0 Z M 1.9 68.0 " fill="#D9D9D9"></path><g><clipPath id="clip-215"><path d="M 1.4 1.0 L 124.5 1.0 L 124.5 68.0 L 1.4 68.0 Z M 1.4 1.0 "></path></clipPath><g clip-path="url(#clip-215)"><text xml:space="preserve" font-family="Helvetica-Bold" font-weight="bold" font-size="18.0" fill="#1497FC" transform="matrix(1.00, 0.00, -0.00, -1.00, 45.0, 38.0)">f</text><text xml:space="preserve" font-family="Helvetica-Bold" font-weight="bold" font-size="18.0" fill="#1497FC" transform="matrix(1.00, 0.00, -0.00, -1.00, 51.0, 38.0)">o</text><text xml:space="preserve" font-family="Helvetica-Bold" font-weight="bold" font-size="18.0" fill="#1497FC" transform="matrix(1.00, 0.00, -0.00, -1.00, 62.0, 38.0)">u</text><text xml:space="preserve" font-family="Helvetica-Bold" font-weight="bold" font-size="18.0" fill="#1497FC" transform="matrix(1.00, 0.00, -0.00, -1.00, 73.0, 38.0)">r</text><text xml:space="preserve" font-family="Helvetica-Bold" font-weight="bold" font-size="18.0" fill="#1497FC" transform="matrix(1.00, 0.00, -0.00, -1.00, 80.0, 38.0)"> </text><text xml:space="preserve" font-family="Helvetica-Bold" font-weight="bold" font-size="18.0" fill="#1497FC" transform="matrix(1.00, 0.00, -0.00, -1.00, 25.0, 16.0)">p</text><text xml:space="preserve" font-family="Helvetica-Bold" font-weight="bold" font-size="18.0" fill="#1497FC" transform="matrix(1.00, 0.00, -0.00, -1.00, 36.0, 16.0)">e</text><text xml:space="preserve" font-family="Helvetica-Bold" font-weight="bold" font-size="18.0" fill="#1497FC" transform="matrix(1.00, 0.00, -0.00, -1.00, 46.0, 16.0)">r</text><text xml:space="preserve" font-family="Helvetica-Bold" font-weight="bold" font-size="18.0" fill="#1497FC" transform="matrix(1.00, 0.00, -0.00, -1.00, 53.0, 16.0)">c</text><text xml:space="preserve" font-family="Helvetica-Bold" font-weight="bold" font-size="18.0" fill="#1497FC" transform="matrix(1.00, 0.00, -0.00, -1.00, 63.0, 16.0)">e</text><text xml:space="preserve" font-family="Helvetica-Bold" font-weight="bold" font-size="18.0" fill="#1497FC" transform="matrix(1.00, 0.00, -0.00, -1.00, 73.0, 16.0)">n</text><text xml:space="preserve" font-family="Helvetica-Bold" font-weight="bold" font-size="18.0" fill="#1497FC" transform="matrix(1.00, 0.00, -0.00, -1.00, 84.0, 16.0)">t</text><text xml:space="preserve" font-family="Helvetica-Bold" font-weight="bold" font-size="18.0" fill="#1497FC" transform="matrix(1.00, 0.00, -0.00, -1.00, 90.0, 16.0)">s</text></g></g></g></svg>