<?xml version="1.0" encoding="UTF-8" standalone="no"?><svg xmlns="http://www.w3.org/2000/svg" xmlns:xlink="http://www.w3.org/1999/xlink" clip-rule="evenodd" stroke-miterlimit="4.00" viewBox="0 0 359 101"><desc>SVG generated by Keynote</desc><defs></defs><g transform="matrix(1.00, 0.00, -0.00, -1.00, 0.0, 101.0)"><text xml:space="preserve" font-family="Helvetica-Bold" font-weight="bold" font-size="45.6" fill="#FEFFFF" transform="matrix(1.00, 0.00, -0.00, -1.00, 61.0, 66.0)">A</text><text xml:space="preserve" font-family="Helvetica-Bold" font-weight="bold" font-size="45.6" fill="#FEFFFF" transform="matrix(1.00, 0.00, -0.00, -1.00, 93.9, 66.0)">d</text><text xml:space="preserve" font-family="Helvetica-Bold" font-weight="bold" font-size="45.6" fill="#FEFFFF" transform="matrix(1.00, 0.00, -0.00, -1.00, 121.8, 66.0)">a</text><text xml:space="preserve" font-family="Helvetica-Bold" font-weight="bold" font-size="45.6" fill="#FEFFFF" transform="matrix(1.00, 0.00, -0.00, -1.00, 147.2, 66.0)">p</text><text xml:space="preserve" font-family="Helvetica-Bold" font-weight="bold" font-size="45.6" fill="#FEFFFF" transform="matrix(1.00, 0.00, -0.00, -1.00, 175.0, 66.0)">t</text><text xml:space="preserve" font-family="Helvetica-Bold" font-weight="bold" font-size="45.6" fill="#FEFFFF" transform="matrix(1.00, 0.00, -0.00, -1.00, 190.2, 66.0)">a</text><text xml:space="preserve" font-family="Helvetica-Bold" font-weight="bold" font-size="45.6" fill="#FEFFFF" transform="matrix(1.00, 0.00, -0.00, -1.00, 215.6, 66.0)">t</text><text xml:space="preserve" font-family="Helvetica-Bold" font-weight="bold" font-size="45.6" fill="#FEFFFF" transform="matrix(1.00, 0.00, -0.00, -1.00, 230.7, 66.0)">i</text><text xml:space="preserve" font-family="Helvetica-Bold" font-weight="bold" font-size="45.6" fill="#FEFFFF" transform="matrix(1.00, 0.00, -0.00, -1.00, 243.4, 66.0)">o</text><text xml:space="preserve" font-family="Helvetica-Bold" font-weight="bold" font-size="45.6" fill="#FEFFFF" transform="matrix(1.00, 0.00, -0.00, -1.00, 271.2, 66.0)">n</text><text xml:space="preserve" font-family="Helvetica-Light" font-size="45.6" fill="#FEFFFF" transform="matrix(1.00, 0.00, -0.00, -1.00, 1.0, 12.0)">w</text><text xml:space="preserve" font-family="Helvetica-Light" font-size="45.6" fill="#FEFFFF" transform="matrix(1.00, 0.00, -0.00, -1.00, 33.9, 12.0)">i</text><text xml:space="preserve" font-family="Helvetica-Light" font-size="45.6" fill="#FEFFFF" transform="matrix(1.00, 0.00, -0.00, -1.00, 44.0, 12.0)">t</text><text xml:space="preserve" font-family="Helvetica-Light" font-size="45.6" fill="#FEFFFF" transform="matrix(1.00, 0.00, -0.00, -1.00, 56.7, 12.0)">h</text><text xml:space="preserve" font-family="Helvetica-Light" font-size="45.6" fill="#FEFFFF" transform="matrix(1.00, 0.00, -0.00, -1.00, 82.1, 12.0)"> </text><text xml:space="preserve" font-family="Helvetica-Light" font-size="45.6" fill="#FEFFFF" transform="matrix(1.00, 0.00, -0.00, -1.00, 94.8, 12.0)">l</text><text xml:space="preserve" font-family="Helvetica-Light" font-size="45.6" fill="#FEFFFF" transform="matrix(1.00, 0.00, -0.00, -1.00, 104.9, 12.0)">o</text><text xml:space="preserve" font-family="Helvetica-Light" font-size="45.6" fill="#FEFFFF" transform="matrix(1.00, 0.00, -0.00, -1.00, 130.2, 12.0)">n</text><text xml:space="preserve" font-family="Helvetica-Light" font-size="45.6" fill="#FEFFFF" transform="matrix(1.00, 0.00, -0.00, -1.00, 155.6, 12.0)">g</text><text xml:space="preserve" font-family="Helvetica-Light" font-size="45.6" fill="#FEFFFF" transform="matrix(1.00, 0.00, -0.00, -1.00, 183.4, 12.0)">e</text><text xml:space="preserve" font-family="Helvetica-Light" font-size="45.6" fill="#FEFFFF" transform="matrix(1.00, 0.00, -0.00, -1.00, 208.8, 12.0)">r</text><text xml:space="preserve" font-family="Helvetica-Light" font-size="45.6" fill="#FEFFFF" transform="matrix(1.00, 0.00, -0.00, -1.00, 224.0, 12.0)"> </text><text xml:space="preserve" font-family="Helvetica-Light" font-size="45.6" fill="#FEFFFF" transform="matrix(1.00, 0.00, -0.00, -1.00, 236.7, 12.0)">l</text><text xml:space="preserve" font-family="Helvetica-Light" font-size="45.6" fill="#FEFFFF" transform="matrix(1.00, 0.00, -0.00, -1.00, 246.8, 12.0)">a</text><text xml:space="preserve" font-family="Helvetica-Light" font-size="45.6" fill="#FEFFFF" transform="matrix(1.00, 0.00, -0.00, -1.00, 272.1, 12.0)">b</text><text xml:space="preserve" font-family="Helvetica-Light" font-size="45.6" fill="#FEFFFF" transform="matrix(1.00, 0.00, -0.00, -1.00, 300.0, 12.0)">e</text><text xml:space="preserve" font-family="Helvetica-Light" font-size="45.6" fill="#FEFFFF" transform="matrix(1.00, 0.00, -0.00, -1.00, 325.4, 12.0)">l</text><text xml:space="preserve" font-family="Helvetica-Light" font-size="45.6" fill="#FEFFFF" transform="matrix(1.00, 0.00, -0.00, -1.00, 335.5, 12.0)">s</text></g></svg>