<?xml version="1.0" encoding="UTF-8" standalone="no"?><svg xmlns="http://www.w3.org/2000/svg" xmlns:xlink="http://www.w3.org/1999/xlink" clip-rule="evenodd" stroke-miterlimit="4.00" viewBox="0 0 1024 768"><desc>SVG generated by Keynote</desc><defs></defs><g transform="matrix(1.00, 0.00, -0.00, -1.00, 0.0, 768.0)"><path d="M 0.0 768.0 L 1024.0 768.0 L 1024.0 0.0 L 0.0 0.0 Z M 0.0 768.0 " fill="#000000"></path><path d="M 512.1 740.9 L 945.9 740.9 L 945.9 20.0 L 512.1 20.0 Z M 512.1 740.9 " fill="#FEFFFE"></path><path d="M 786.4 547.5 L 848.5 547.5 L 848.5 480.5 L 786.4 480.5 Z M 786.4 547.5 " fill="#D9D9D9"></path><g><clipPath id="clip-69"><path d="M 786.4 480.5 L 848.5 480.5 L 848.5 547.5 L 786.4 547.5 Z M 786.4 480.5 "></path></clipPath><g clip-path="url(#clip-69)"><text xml:space="preserve" font-family="Helvetica-Bold" font-weight="bold" font-size="14.0" fill="#52575F" transform="matrix(1.00, 0.00, -0.00, -1.00, 804.0, 488.0)">1</text><text xml:space="preserve" font-family="Helvetica-Bold" font-weight="bold" font-size="14.0" fill="#52575F" transform="matrix(1.00, 0.00, -0.00, -1.00, 811.0, 488.0)">1</text><text xml:space="preserve" font-family="Helvetica-Bold" font-weight="bold" font-size="14.0" fill="#52575F" transform="matrix(1.00, 0.00, -0.00, -1.00, 818.8, 488.0)">%</text></g></g><path d="M 600.2 547.5 L 662.4 547.5 L 662.4 480.5 L 600.2 480.5 Z M 600.2 547.5 " fill="#D9D9D9"></path><g><clipPath id="clip-70"><path d="M 600.2 480.5 L 662.4 480.5 L 662.4 547.5 L 600.2 547.5 Z M 600.2 480.5 "></path></clipPath><g clip-path="url(#clip-70)"><text xml:space="preserve" font-family="Helvetica-Bold" font-weight="bold" font-size="14.0" fill="#52575F" transform="matrix(1.00, 0.00, -0.00, -1.00, 617.0, 488.0)">2</text><text xml:space="preserve" font-family="Helvetica-Bold" font-weight="bold" font-size="14.0" fill="#52575F" transform="matrix(1.00, 0.00, -0.00, -1.00, 624.8, 488.0)">4</text><text xml:space="preserve" font-family="Helvetica-Bold" font-weight="bold" font-size="14.0" fill="#52575F" transform="matrix(1.00, 0.00, -0.00, -1.00, 632.6, 488.0)">%</text></g></g><text xml:space="preserve" font-family="Helvetica-Light" font-size="45.6" fill="#FEFFFF" transform="matrix(1.00, 0.00, -0.00, -1.00, 110.0, 365.0)">D</text><text xml:space="preserve" font-family="Helvetica-Light" font-size="45.6" fill="#FEFFFF" transform="matrix(1.00, 0.00, -0.00, -1.00, 142.9, 365.0)">r</text><text xml:space="preserve" font-family="Helvetica-Light" font-size="45.6" fill="#FEFFFF" transform="matrix(1.00, 0.00, -0.00, -1.00, 158.1, 365.0)">a</text><text xml:space="preserve" font-family="Helvetica-Light" font-size="45.6" fill="#FEFFFF" transform="matrix(1.00, 0.00, -0.00, -1.00, 183.5, 365.0)">g</text><text xml:space="preserve" font-family="Helvetica-Light" font-size="45.6" fill="#FEFFFF" transform="matrix(1.00, 0.00, -0.00, -1.00, 211.3, 365.0)"> </text><text xml:space="preserve" font-family="Helvetica-Light" font-size="45.6" fill="#FEFFFF" transform="matrix(1.00, 0.00, -0.00, -1.00, 224.0, 365.0)">&amp;</text><text xml:space="preserve" font-family="Helvetica-Light" font-size="45.6" fill="#FEFFFF" transform="matrix(1.00, 0.00, -0.00, -1.00, 254.4, 365.0)"> </text><text xml:space="preserve" font-family="Helvetica-Light" font-size="45.6" fill="#FEFFFF" transform="matrix(1.00, 0.00, -0.00, -1.00, 267.1, 365.0)">d</text><text xml:space="preserve" font-family="Helvetica-Light" font-size="45.6" fill="#FEFFFF" transform="matrix(1.00, 0.00, -0.00, -1.00, 295.0, 365.0)">r</text><text xml:space="preserve" font-family="Helvetica-Light" font-size="45.6" fill="#FEFFFF" transform="matrix(1.00, 0.00, -0.00, -1.00, 309.3, 365.0)">o</text><text xml:space="preserve" font-family="Helvetica-Light" font-size="45.6" fill="#FEFFFF" transform="matrix(1.00, 0.00, -0.00, -1.00, 334.7, 365.0)">p</text><text xml:space="preserve" font-family="LucidaGrande" font-size="45.6" fill="#FEFFFF" transform="matrix(1.00, 0.00, -0.00, -1.00, 362.5, 365.0)"> </text><text xml:space="preserve" font-family="Helvetica-Bold" font-weight="bold" font-size="45.6" fill="#FEFFFF" transform="matrix(1.00, 0.00, -0.00, -1.00, 92.0, 311.0)">t</text><text xml:space="preserve" font-family="Helvetica-Bold" font-weight="bold" font-size="45.6" fill="#FEFFFF" transform="matrix(1.00, 0.00, -0.00, -1.00, 107.2, 311.0)">r</text><text xml:space="preserve" font-family="Helvetica-Bold" font-weight="bold" font-size="45.6" fill="#FEFFFF" transform="matrix(1.00, 0.00, -0.00, -1.00, 124.9, 311.0)">a</text><text xml:space="preserve" font-family="Helvetica-Bold" font-weight="bold" font-size="45.6" fill="#FEFFFF" transform="matrix(1.00, 0.00, -0.00, -1.00, 150.3, 311.0)">n</text><text xml:space="preserve" font-family="Helvetica-Bold" font-weight="bold" font-size="45.6" fill="#FEFFFF" transform="matrix(1.00, 0.00, -0.00, -1.00, 178.2, 311.0)">s</text><text xml:space="preserve" font-family="Helvetica-Bold" font-weight="bold" font-size="45.6" fill="#FEFFFF" transform="matrix(1.00, 0.00, -0.00, -1.00, 203.5, 311.0)">p</text><text xml:space="preserve" font-family="Helvetica-Bold" font-weight="bold" font-size="45.6" fill="#FEFFFF" transform="matrix(1.00, 0.00, -0.00, -1.00, 231.4, 311.0)">o</text><text xml:space="preserve" font-family="Helvetica-Bold" font-weight="bold" font-size="45.6" fill="#FEFFFF" transform="matrix(1.00, 0.00, -0.00, -1.00, 259.2, 311.0)">s</text><text xml:space="preserve" font-family="Helvetica-Bold" font-weight="bold" font-size="45.6" fill="#FEFFFF" transform="matrix(1.00, 0.00, -0.00, -1.00, 284.6, 311.0)">i</text><text xml:space="preserve" font-family="Helvetica-Bold" font-weight="bold" font-size="45.6" fill="#FEFFFF" transform="matrix(1.00, 0.00, -0.00, -1.00, 297.2, 311.0)">t</text><text xml:space="preserve" font-family="Helvetica-Bold" font-weight="bold" font-size="45.6" fill="#FEFFFF" transform="matrix(1.00, 0.00, -0.00, -1.00, 312.4, 311.0)">i</text><text xml:space="preserve" font-family="Helvetica-Bold" font-weight="bold" font-size="45.6" fill="#FEFFFF" transform="matrix(1.00, 0.00, -0.00, -1.00, 325.1, 311.0)">o</text><text xml:space="preserve" font-family="Helvetica-Bold" font-weight="bold" font-size="45.6" fill="#FEFFFF" transform="matrix(1.00, 0.00, -0.00, -1.00, 352.9, 311.0)">n</text><text xml:space="preserve" font-family="Helvetica" font-size="26.0" fill="#52575F" transform="matrix(1.00, 0.00, -0.00, -1.00, 544.0, 637.0)">W</text><text xml:space="preserve" font-family="Helvetica" font-size="26.0" fill="#52575F" transform="matrix(1.00, 0.00, -0.00, -1.00, 568.5, 637.0)">h</text><text xml:space="preserve" font-family="Helvetica" font-size="26.0" fill="#52575F" transform="matrix(1.00, 0.00, -0.00, -1.00, 583.0, 637.0)">a</text><text xml:space="preserve" font-family="Helvetica" font-size="26.0" fill="#52575F" transform="matrix(1.00, 0.00, -0.00, -1.00, 597.5, 637.0)">t</text><text xml:space="preserve" font-family="Helvetica" font-size="26.0" fill="#52575F" transform="matrix(1.00, 0.00, -0.00, -1.00, 604.7, 637.0)"> </text><text xml:space="preserve" font-family="Helvetica" font-size="26.0" fill="#52575F" transform="matrix(1.00, 0.00, -0.00, -1.00, 611.9, 637.0)">i</text><text xml:space="preserve" font-family="Helvetica" font-size="26.0" fill="#52575F" transform="matrix(1.00, 0.00, -0.00, -1.00, 617.7, 637.0)">s</text><text xml:space="preserve" font-family="Helvetica" font-size="26.0" fill="#52575F" transform="matrix(1.00, 0.00, -0.00, -1.00, 630.7, 637.0)"> </text><text xml:space="preserve" font-family="Helvetica" font-size="26.0" fill="#52575F" transform="matrix(1.00, 0.00, -0.00, -1.00, 637.9, 637.0)">t</text><text xml:space="preserve" font-family="Helvetica" font-size="26.0" fill="#52575F" transform="matrix(1.00, 0.00, -0.00, -1.00, 645.1, 637.0)">h</text><text xml:space="preserve" font-family="Helvetica" font-size="26.0" fill="#52575F" transform="matrix(1.00, 0.00, -0.00, -1.00, 659.6, 637.0)">e</text><text xml:space="preserve" font-family="Helvetica" font-size="26.0" fill="#52575F" transform="matrix(1.00, 0.00, -0.00, -1.00, 674.1, 637.0)"> </text><text xml:space="preserve" font-family="Helvetica" font-size="26.0" fill="#52575F" transform="matrix(1.00, 0.00, -0.00, -1.00, 681.3, 637.0)">c</text><text xml:space="preserve" font-family="Helvetica" font-size="26.0" fill="#52575F" transform="matrix(1.00, 0.00, -0.00, -1.00, 694.3, 637.0)">o</text><text xml:space="preserve" font-family="Helvetica" font-size="26.0" fill="#52575F" transform="matrix(1.00, 0.00, -0.00, -1.00, 708.7, 637.0)">r</text><text xml:space="preserve" font-family="Helvetica" font-size="26.0" fill="#52575F" transform="matrix(1.00, 0.00, -0.00, -1.00, 717.4, 637.0)">r</text><text xml:space="preserve" font-family="Helvetica" font-size="26.0" fill="#52575F" transform="matrix(1.00, 0.00, -0.00, -1.00, 726.1, 637.0)">e</text><text xml:space="preserve" font-family="Helvetica" font-size="26.0" fill="#52575F" transform="matrix(1.00, 0.00, -0.00, -1.00, 740.5, 637.0)">c</text><text xml:space="preserve" font-family="Helvetica" font-size="26.0" fill="#52575F" transform="matrix(1.00, 0.00, -0.00, -1.00, 753.5, 637.0)">t</text><text xml:space="preserve" font-family="Helvetica" font-size="26.0" fill="#52575F" transform="matrix(1.00, 0.00, -0.00, -1.00, 760.7, 637.0)"> </text><text xml:space="preserve" font-family="Helvetica" font-size="26.0" fill="#52575F" transform="matrix(1.00, 0.00, -0.00, -1.00, 768.0, 637.0)">a</text><text xml:space="preserve" font-family="Helvetica" font-size="26.0" fill="#52575F" transform="matrix(1.00, 0.00, -0.00, -1.00, 782.4, 637.0)">u</text><text xml:space="preserve" font-family="Helvetica" font-size="26.0" fill="#52575F" transform="matrix(1.00, 0.00, -0.00, -1.00, 796.9, 637.0)">d</text><text xml:space="preserve" font-family="Helvetica" font-size="26.0" fill="#52575F" transform="matrix(1.00, 0.00, -0.00, -1.00, 811.3, 637.0)">i</text><text xml:space="preserve" font-family="Helvetica" font-size="26.0" fill="#52575F" transform="matrix(1.00, 0.00, -0.00, -1.00, 817.1, 637.0)">e</text><text xml:space="preserve" font-family="Helvetica" font-size="26.0" fill="#52575F" transform="matrix(1.00, 0.00, -0.00, -1.00, 831.6, 637.0)">n</text><text xml:space="preserve" font-family="Helvetica" font-size="26.0" fill="#52575F" transform="matrix(1.00, 0.00, -0.00, -1.00, 846.1, 637.0)">c</text><text xml:space="preserve" font-family="Helvetica" font-size="26.0" fill="#52575F" transform="matrix(1.00, 0.00, -0.00, -1.00, 859.1, 637.0)">e</text><text xml:space="preserve" font-family="Helvetica" font-size="26.0" fill="#52575F" transform="matrix(1.00, 0.00, -0.00, -1.00, 873.5, 637.0)"> </text><text xml:space="preserve" font-family="Helvetica" font-size="26.0" fill="#52575F" transform="matrix(1.00, 0.00, -0.00, -1.00, 544.0, 606.0)">r</text><text xml:space="preserve" font-family="Helvetica" font-size="26.0" fill="#52575F" transform="matrix(1.00, 0.00, -0.00, -1.00, 552.7, 606.0)">e</text><text xml:space="preserve" font-family="Helvetica" font-size="26.0" fill="#52575F" transform="matrix(1.00, 0.00, -0.00, -1.00, 567.1, 606.0)">p</text><text xml:space="preserve" font-family="Helvetica" font-size="26.0" fill="#52575F" transform="matrix(1.00, 0.00, -0.00, -1.00, 581.6, 606.0)">a</text><text xml:space="preserve" font-family="Helvetica" font-size="26.0" fill="#52575F" transform="matrix(1.00, 0.00, -0.00, -1.00, 596.1, 606.0)">r</text><text xml:space="preserve" font-family="Helvetica" font-size="26.0" fill="#52575F" transform="matrix(1.00, 0.00, -0.00, -1.00, 604.7, 606.0)">t</text><text xml:space="preserve" font-family="Helvetica" font-size="26.0" fill="#52575F" transform="matrix(1.00, 0.00, -0.00, -1.00, 611.9, 606.0)">i</text><text xml:space="preserve" font-family="Helvetica" font-size="26.0" fill="#52575F" transform="matrix(1.00, 0.00, -0.00, -1.00, 617.7, 606.0)">t</text><text xml:space="preserve" font-family="Helvetica" font-size="26.0" fill="#52575F" transform="matrix(1.00, 0.00, -0.00, -1.00, 624.9, 606.0)">i</text><text xml:space="preserve" font-family="Helvetica" font-size="26.0" fill="#52575F" transform="matrix(1.00, 0.00, -0.00, -1.00, 630.7, 606.0)">o</text><text xml:space="preserve" font-family="Helvetica" font-size="26.0" fill="#52575F" transform="matrix(1.00, 0.00, -0.00, -1.00, 645.2, 606.0)">n</text><text xml:space="preserve" font-family="Helvetica" font-size="26.0" fill="#52575F" transform="matrix(1.00, 0.00, -0.00, -1.00, 659.6, 606.0)"> </text><text xml:space="preserve" font-family="Helvetica" font-size="26.0" fill="#52575F" transform="matrix(1.00, 0.00, -0.00, -1.00, 666.9, 606.0)">o</text><text xml:space="preserve" font-family="Helvetica" font-size="26.0" fill="#52575F" transform="matrix(1.00, 0.00, -0.00, -1.00, 681.3, 606.0)">f</text><text xml:space="preserve" font-family="Helvetica" font-size="26.0" fill="#52575F" transform="matrix(1.00, 0.00, -0.00, -1.00, 688.5, 606.0)"> </text><text xml:space="preserve" font-family="Helvetica" font-size="26.0" fill="#52575F" transform="matrix(1.00, 0.00, -0.00, -1.00, 695.8, 606.0)">t</text><text xml:space="preserve" font-family="Helvetica" font-size="26.0" fill="#52575F" transform="matrix(1.00, 0.00, -0.00, -1.00, 703.0, 606.0)">h</text><text xml:space="preserve" font-family="Helvetica" font-size="26.0" fill="#52575F" transform="matrix(1.00, 0.00, -0.00, -1.00, 717.4, 606.0)">e</text><text xml:space="preserve" font-family="Helvetica" font-size="26.0" fill="#52575F" transform="matrix(1.00, 0.00, -0.00, -1.00, 731.9, 606.0)">s</text><text xml:space="preserve" font-family="Helvetica" font-size="26.0" fill="#52575F" transform="matrix(1.00, 0.00, -0.00, -1.00, 744.9, 606.0)">e</text><text xml:space="preserve" font-family="Helvetica" font-size="26.0" fill="#52575F" transform="matrix(1.00, 0.00, -0.00, -1.00, 759.4, 606.0)"> </text><text xml:space="preserve" font-family="Helvetica" font-size="26.0" fill="#52575F" transform="matrix(1.00, 0.00, -0.00, -1.00, 766.6, 606.0)">t</text><text xml:space="preserve" font-family="Helvetica" font-size="26.0" fill="#52575F" transform="matrix(1.00, 0.00, -0.00, -1.00, 773.8, 606.0)">r</text><text xml:space="preserve" font-family="Helvetica" font-size="26.0" fill="#52575F" transform="matrix(1.00, 0.00, -0.00, -1.00, 782.5, 606.0)">a</text><text xml:space="preserve" font-family="Helvetica" font-size="26.0" fill="#52575F" transform="matrix(1.00, 0.00, -0.00, -1.00, 796.9, 606.0)">d</text><text xml:space="preserve" font-family="Helvetica" font-size="26.0" fill="#52575F" transform="matrix(1.00, 0.00, -0.00, -1.00, 811.4, 606.0)">i</text><text xml:space="preserve" font-family="Helvetica" font-size="26.0" fill="#52575F" transform="matrix(1.00, 0.00, -0.00, -1.00, 817.2, 606.0)">t</text><text xml:space="preserve" font-family="Helvetica" font-size="26.0" fill="#52575F" transform="matrix(1.00, 0.00, -0.00, -1.00, 824.4, 606.0)">i</text><text xml:space="preserve" font-family="Helvetica" font-size="26.0" fill="#52575F" transform="matrix(1.00, 0.00, -0.00, -1.00, 830.2, 606.0)">o</text><text xml:space="preserve" font-family="Helvetica" font-size="26.0" fill="#52575F" transform="matrix(1.00, 0.00, -0.00, -1.00, 844.6, 606.0)">n</text><text xml:space="preserve" font-family="Helvetica" font-size="26.0" fill="#52575F" transform="matrix(1.00, 0.00, -0.00, -1.00, 859.1, 606.0)">a</text><text xml:space="preserve" font-family="Helvetica" font-size="26.0" fill="#52575F" transform="matrix(1.00, 0.00, -0.00, -1.00, 873.6, 606.0)">l</text><text xml:space="preserve" font-family="Helvetica" font-size="26.0" fill="#52575F" transform="matrix(1.00, 0.00, -0.00, -1.00, 879.4, 606.0)"> </text><text xml:space="preserve" font-family="Helvetica" font-size="26.0" fill="#52575F" transform="matrix(1.00, 0.00, -0.00, -1.00, 544.0, 575.0)">m</text><text xml:space="preserve" font-family="Helvetica" font-size="26.0" fill="#52575F" transform="matrix(1.00, 0.00, -0.00, -1.00, 565.7, 575.0)">e</text><text xml:space="preserve" font-family="Helvetica" font-size="26.0" fill="#52575F" transform="matrix(1.00, 0.00, -0.00, -1.00, 580.1, 575.0)">d</text><text xml:space="preserve" font-family="Helvetica" font-size="26.0" fill="#52575F" transform="matrix(1.00, 0.00, -0.00, -1.00, 594.6, 575.0)">i</text><text xml:space="preserve" font-family="Helvetica" font-size="26.0" fill="#52575F" transform="matrix(1.00, 0.00, -0.00, -1.00, 600.4, 575.0)">a</text><text xml:space="preserve" font-family="Helvetica" font-size="26.0" fill="#52575F" transform="matrix(1.00, 0.00, -0.00, -1.00, 614.8, 575.0)"> </text><text xml:space="preserve" font-family="Helvetica" font-size="26.0" fill="#52575F" transform="matrix(1.00, 0.00, -0.00, -1.00, 622.1, 575.0)">?</text><text xml:space="preserve" font-family="Helvetica-Bold" font-weight="bold" font-size="36.0" fill="#000000" transform="matrix(1.00, 0.00, -0.00, -1.00, 545.0, 679.0)">Q</text><text xml:space="preserve" font-family="Helvetica-Bold" font-weight="bold" font-size="36.0" fill="#000000" transform="matrix(1.00, 0.00, -0.00, -1.00, 573.0, 679.0)">u</text><text xml:space="preserve" font-family="Helvetica-Bold" font-weight="bold" font-size="36.0" fill="#000000" transform="matrix(1.00, 0.00, -0.00, -1.00, 595.0, 679.0)">i</text><text xml:space="preserve" font-family="Helvetica-Bold" font-weight="bold" font-size="36.0" fill="#000000" transform="matrix(1.00, 0.00, -0.00, -1.00, 605.0, 679.0)">z</text><image xlink:href="../../5CC1B0B1-7F9E-413D-BC1A-5746618C7E8F/assets/4F2390C3E6556E9263682E2FC5C964EB.png" width="62.00" height="42.00" transform="matrix(1.00, 0.00, -0.00, -1.00, 600.0, 546.0)"></image><image xlink:href="../../5CC1B0B1-7F9E-413D-BC1A-5746618C7E8F/assets/FA4D9DC9D3FC073151A1BDAB3287BBCA.png" width="36.00" height="44.00" transform="matrix(1.00, 0.00, -0.00, -0.98, 797.0, 546.0)"></image><path d="M 538.1 547.5 L 600.2 547.5 L 600.2 480.5 L 538.1 480.5 Z M 538.1 547.5 " fill="#D9D9D9"></path><g><clipPath id="clip-71"><path d="M 538.1 480.5 L 600.2 480.5 L 600.2 547.5 L 538.1 547.5 Z M 538.1 480.5 "></path></clipPath><g clip-path="url(#clip-71)"><text xml:space="preserve" font-family="Helvetica-Bold" font-weight="bold" font-size="14.0" fill="#52575F" transform="matrix(1.00, 0.00, -0.00, -1.00, 555.0, 488.0)">3</text><text xml:space="preserve" font-family="Helvetica-Bold" font-weight="bold" font-size="14.0" fill="#52575F" transform="matrix(1.00, 0.00, -0.00, -1.00, 562.8, 488.0)">7</text><text xml:space="preserve" font-family="Helvetica-Bold" font-weight="bold" font-size="14.0" fill="#52575F" transform="matrix(1.00, 0.00, -0.00, -1.00, 570.6, 488.0)">%</text></g></g><path d="M 662.4 547.5 L 724.5 547.5 L 724.5 480.5 L 662.4 480.5 Z M 662.4 547.5 " fill="#D9D9D9"></path><g><clipPath id="clip-72"><path d="M 662.4 480.5 L 724.5 480.5 L 724.5 547.5 L 662.4 547.5 Z M 662.4 480.5 "></path></clipPath><g clip-path="url(#clip-72)"><text xml:space="preserve" font-family="Helvetica-Bold" font-weight="bold" font-size="14.0" fill="#52575F" transform="matrix(1.00, 0.00, -0.00, -1.00, 679.0, 488.0)">2</text><text xml:space="preserve" font-family="Helvetica-Bold" font-weight="bold" font-size="14.0" fill="#52575F" transform="matrix(1.00, 0.00, -0.00, -1.00, 686.8, 488.0)">4</text><text xml:space="preserve" font-family="Helvetica-Bold" font-weight="bold" font-size="14.0" fill="#52575F" transform="matrix(1.00, 0.00, -0.00, -1.00, 694.6, 488.0)">%</text></g></g><path d="M 724.5 547.5 L 786.6 547.5 L 786.6 480.5 L 724.5 480.5 Z M 724.5 547.5 " fill="#D9D9D9"></path><g><clipPath id="clip-73"><path d="M 724.5 480.5 L 786.6 480.5 L 786.6 547.5 L 724.5 547.5 Z M 724.5 480.5 "></path></clipPath><g clip-path="url(#clip-73)"><text xml:space="preserve" font-family="Helvetica-Bold" font-weight="bold" font-size="14.0" fill="#52575F" transform="matrix(1.00, 0.00, -0.00, -1.00, 745.0, 488.0)">4</text><text xml:space="preserve" font-family="Helvetica-Bold" font-weight="bold" font-size="14.0" fill="#52575F" transform="matrix(1.00, 0.00, -0.00, -1.00, 752.8, 488.0)">%</text></g></g><image xlink:href="../../5CC1B0B1-7F9E-413D-BC1A-5746618C7E8F/assets/AC230A3C90B54A079EEB2649D5EA3903.png" width="49.00" height="43.00" transform="matrix(0.98, 0.00, -0.00, -1.00, 545.0, 546.0)"></image><image xlink:href="../../5CC1B0B1-7F9E-413D-BC1A-5746618C7E8F/assets/C27BB1F1C72C815D97E2F8D6D3A4DA1D.png" width="40.00" height="37.00" transform="matrix(1.00, 0.00, -0.00, -1.00, 673.0, 541.0)"></image><image xlink:href="../../5CC1B0B1-7F9E-413D-BC1A-5746618C7E8F/assets/9A8011DAE5E68044B71A9A6D238DDFEF.png" width="55.00" height="38.00" transform="matrix(1.00, 0.00, -0.00, -0.97, 725.0, 541.0)"></image><path d="M 848.5 547.5 L 915.1 547.5 L 915.1 480.5 L 848.5 480.5 Z M 848.5 547.5 " fill="#D9D9D9"></path><path d="M 885.8 524.5 C 891.6 518.7 891.6 509.3 885.8 503.5 C 880.0 497.7 870.5 497.7 864.7 503.5 C 858.9 509.3 858.9 518.7 864.7 524.5 C 870.5 530.3 880.0 530.3 885.8 524.5 Z M 885.8 524.5 " fill="#FEFFFE"></path><path d="M 25.4 4.4 C 31.2 10.2 31.2 19.6 25.4 25.4 C 19.6 31.2 10.2 31.2 4.4 25.4 C -1.5 19.6 -1.5 10.2 4.4 4.4 C 10.2 -1.5 19.6 -1.5 25.4 4.4 Z M 25.4 4.4 " fill="none" stroke="#52575F" stroke-width="1.00" transform="matrix(1.00, 0.00, 0.00, -1.00, 860.4, 528.9)"></path><path d="M 786.4 463.3 L 848.5 463.3 L 848.5 396.3 L 786.4 396.3 Z M 786.4 463.3 " fill="#D9D9D9"></path><g><clipPath id="clip-74"><path d="M 786.4 396.3 L 848.5 396.3 L 848.5 463.3 L 786.4 463.3 Z M 786.4 396.3 "></path></clipPath><g clip-path="url(#clip-74)"><text xml:space="preserve" font-family="Helvetica-Bold" font-weight="bold" font-size="14.0" fill="#52575F" transform="matrix(1.00, 0.00, -0.00, -1.00, 803.0, 404.0)">3</text><text xml:space="preserve" font-family="Helvetica-Bold" font-weight="bold" font-size="14.0" fill="#52575F" transform="matrix(1.00, 0.00, -0.00, -1.00, 810.8, 404.0)">7</text><text xml:space="preserve" font-family="Helvetica-Bold" font-weight="bold" font-size="14.0" fill="#52575F" transform="matrix(1.00, 0.00, -0.00, -1.00, 818.6, 404.0)">%</text></g></g><path d="M 600.3 463.3 L 662.4 463.3 L 662.4 396.3 L 600.3 396.3 Z M 600.3 463.3 " fill="#D9D9D9"></path><g><clipPath id="clip-75"><path d="M 600.3 396.3 L 662.4 396.3 L 662.4 463.3 L 600.3 463.3 Z M 600.3 396.3 "></path></clipPath><g clip-path="url(#clip-75)"><text xml:space="preserve" font-family="Helvetica-Bold" font-weight="bold" font-size="14.0" fill="#52575F" transform="matrix(1.00, 0.00, -0.00, -1.00, 617.0, 404.0)">2</text><text xml:space="preserve" font-family="Helvetica-Bold" font-weight="bold" font-size="14.0" fill="#52575F" transform="matrix(1.00, 0.00, -0.00, -1.00, 624.8, 404.0)">4</text><text xml:space="preserve" font-family="Helvetica-Bold" font-weight="bold" font-size="14.0" fill="#52575F" transform="matrix(1.00, 0.00, -0.00, -1.00, 632.6, 404.0)">%</text></g></g><image xlink:href="../../5CC1B0B1-7F9E-413D-BC1A-5746618C7E8F/assets/4F2390C3E6556E9263682E2FC5C964EB.png" width="62.00" height="42.00" transform="matrix(1.00, 0.00, -0.00, -1.00, 600.0, 462.0)"></image><image xlink:href="../../5CC1B0B1-7F9E-413D-BC1A-5746618C7E8F/assets/FA4D9DC9D3FC073151A1BDAB3287BBCA.png" width="36.00" height="44.00" transform="matrix(1.00, 0.00, -0.00, -0.98, 797.0, 462.0)"></image><path d="M 538.1 463.3 L 600.3 463.3 L 600.3 396.3 L 538.1 396.3 Z M 538.1 463.3 " fill="#D9D9D9"></path><g><clipPath id="clip-76"><path d="M 538.1 396.3 L 600.3 396.3 L 600.3 463.3 L 538.1 463.3 Z M 538.1 396.3 "></path></clipPath><g clip-path="url(#clip-76)"><text xml:space="preserve" font-family="Helvetica-Bold" font-weight="bold" font-size="14.0" fill="#52575F" transform="matrix(1.00, 0.00, -0.00, -1.00, 555.0, 404.0)">2</text><text xml:space="preserve" font-family="Helvetica-Bold" font-weight="bold" font-size="14.0" fill="#52575F" transform="matrix(1.00, 0.00, -0.00, -1.00, 562.8, 404.0)">4</text><text xml:space="preserve" font-family="Helvetica-Bold" font-weight="bold" font-size="14.0" fill="#52575F" transform="matrix(1.00, 0.00, -0.00, -1.00, 570.6, 404.0)">%</text></g></g><path d="M 662.4 463.3 L 724.5 463.3 L 724.5 396.3 L 662.4 396.3 Z M 662.4 463.3 " fill="#D9D9D9"></path><g><clipPath id="clip-77"><path d="M 662.4 396.3 L 724.5 396.3 L 724.5 463.3 L 662.4 463.3 Z M 662.4 396.3 "></path></clipPath><g clip-path="url(#clip-77)"><text xml:space="preserve" font-family="Helvetica-Bold" font-weight="bold" font-size="14.0" fill="#52575F" transform="matrix(1.00, 0.00, -0.00, -1.00, 679.0, 404.0)">2</text><text xml:space="preserve" font-family="Helvetica-Bold" font-weight="bold" font-size="14.0" fill="#52575F" transform="matrix(1.00, 0.00, -0.00, -1.00, 686.8, 404.0)">4</text><text xml:space="preserve" font-family="Helvetica-Bold" font-weight="bold" font-size="14.0" fill="#52575F" transform="matrix(1.00, 0.00, -0.00, -1.00, 694.6, 404.0)">%</text></g></g><path d="M 724.5 463.3 L 786.6 463.3 L 786.6 396.3 L 724.5 396.3 Z M 724.5 463.3 " fill="#D9D9D9"></path><g><clipPath id="clip-78"><path d="M 724.5 396.3 L 786.6 396.3 L 786.6 463.3 L 724.5 463.3 Z M 724.5 396.3 "></path></clipPath><g clip-path="url(#clip-78)"><text xml:space="preserve" font-family="Helvetica-Bold" font-weight="bold" font-size="14.0" fill="#52575F" transform="matrix(1.00, 0.00, -0.00, -1.00, 745.0, 404.0)">4</text><text xml:space="preserve" font-family="Helvetica-Bold" font-weight="bold" font-size="14.0" fill="#52575F" transform="matrix(1.00, 0.00, -0.00, -1.00, 752.8, 404.0)">%</text></g></g><image xlink:href="../../5CC1B0B1-7F9E-413D-BC1A-5746618C7E8F/assets/AC230A3C90B54A079EEB2649D5EA3903.png" width="49.00" height="43.00" transform="matrix(1.00, 0.00, -0.00, -1.00, 545.0, 462.0)"></image><image xlink:href="../../5CC1B0B1-7F9E-413D-BC1A-5746618C7E8F/assets/C27BB1F1C72C815D97E2F8D6D3A4DA1D.png" width="40.00" height="37.00" transform="matrix(1.00, 0.00, -0.00, -1.00, 673.0, 457.0)"></image><image xlink:href="../../5CC1B0B1-7F9E-413D-BC1A-5746618C7E8F/assets/9A8011DAE5E68044B71A9A6D238DDFEF.png" width="55.00" height="38.00" transform="matrix(1.00, 0.00, -0.00, -0.97, 725.0, 457.0)"></image><path d="M 848.5 463.3 L 915.2 463.3 L 915.2 396.3 L 848.5 396.3 Z M 848.5 463.3 " fill="#D9D9D9"></path><path d="M 885.8 440.3 C 891.6 434.5 891.6 425.1 885.8 419.3 C 880.0 413.5 870.6 413.5 864.8 419.3 C 859.0 425.1 859.0 434.5 864.8 440.3 C 870.6 446.2 880.0 446.2 885.8 440.3 Z M 885.8 440.3 " fill="#FEFFFE"></path><path d="M 25.4 4.4 C 31.2 10.2 31.2 19.6 25.4 25.4 C 19.6 31.2 10.2 31.2 4.4 25.4 C -1.5 19.6 -1.5 10.2 4.4 4.4 C 10.2 -1.5 19.6 -1.5 25.4 4.4 Z M 25.4 4.4 " fill="none" stroke="#52575F" stroke-width="1.00" transform="matrix(1.00, 0.00, 0.00, -1.00, 860.4, 444.7)"></path><path d="M 786.4 377.7 L 848.5 377.7 L 848.5 310.7 L 786.4 310.7 Z M 786.4 377.7 " fill="#D9D9D9"></path><g><clipPath id="clip-79"><path d="M 786.4 310.7 L 848.5 310.7 L 848.5 377.7 L 786.4 377.7 Z M 786.4 310.7 "></path></clipPath><g clip-path="url(#clip-79)"><text xml:space="preserve" font-family="Helvetica-Bold" font-weight="bold" font-size="14.0" fill="#52575F" transform="matrix(1.00, 0.00, -0.00, -1.00, 804.0, 318.0)">1</text><text xml:space="preserve" font-family="Helvetica-Bold" font-weight="bold" font-size="14.0" fill="#52575F" transform="matrix(1.00, 0.00, -0.00, -1.00, 811.0, 318.0)">1</text><text xml:space="preserve" font-family="Helvetica-Bold" font-weight="bold" font-size="14.0" fill="#52575F" transform="matrix(1.00, 0.00, -0.00, -1.00, 818.8, 318.0)">%</text></g></g><path d="M 600.2 377.7 L 662.4 377.7 L 662.4 310.7 L 600.2 310.7 Z M 600.2 377.7 " fill="#D9D9D9"></path><g><clipPath id="clip-80"><path d="M 600.2 310.7 L 662.4 310.7 L 662.4 377.7 L 600.2 377.7 Z M 600.2 310.7 "></path></clipPath><g clip-path="url(#clip-80)"><text xml:space="preserve" font-family="Helvetica-Bold" font-weight="bold" font-size="14.0" fill="#52575F" transform="matrix(1.00, 0.00, -0.00, -1.00, 617.0, 318.0)">2</text><text xml:space="preserve" font-family="Helvetica-Bold" font-weight="bold" font-size="14.0" fill="#52575F" transform="matrix(1.00, 0.00, -0.00, -1.00, 624.8, 318.0)">4</text><text xml:space="preserve" font-family="Helvetica-Bold" font-weight="bold" font-size="14.0" fill="#52575F" transform="matrix(1.00, 0.00, -0.00, -1.00, 632.6, 318.0)">%</text></g></g><image xlink:href="../../5CC1B0B1-7F9E-413D-BC1A-5746618C7E8F/assets/4F2390C3E6556E9263682E2FC5C964EB.png" width="62.00" height="42.00" transform="matrix(1.00, 0.00, -0.00, -1.00, 600.0, 376.0)"></image><image xlink:href="../../5CC1B0B1-7F9E-413D-BC1A-5746618C7E8F/assets/FA4D9DC9D3FC073151A1BDAB3287BBCA.png" width="36.00" height="44.00" transform="matrix(1.00, 0.00, -0.00, -0.98, 797.0, 376.0)"></image><path d="M 538.1 377.7 L 600.2 377.7 L 600.2 310.7 L 538.1 310.7 Z M 538.1 377.7 " fill="#D9D9D9"></path><g><clipPath id="clip-81"><path d="M 538.1 310.7 L 600.2 310.7 L 600.2 377.7 L 538.1 377.7 Z M 538.1 310.7 "></path></clipPath><g clip-path="url(#clip-81)"><text xml:space="preserve" font-family="Helvetica-Bold" font-weight="bold" font-size="14.0" fill="#52575F" transform="matrix(1.00, 0.00, -0.00, -1.00, 556.0, 318.0)">1</text><text xml:space="preserve" font-family="Helvetica-Bold" font-weight="bold" font-size="14.0" fill="#52575F" transform="matrix(1.00, 0.00, -0.00, -1.00, 563.0, 318.0)">1</text><text xml:space="preserve" font-family="Helvetica-Bold" font-weight="bold" font-size="14.0" fill="#52575F" transform="matrix(1.00, 0.00, -0.00, -1.00, 570.8, 318.0)">%</text></g></g><path d="M 662.4 377.7 L 724.5 377.7 L 724.5 310.7 L 662.4 310.7 Z M 662.4 377.7 " fill="#D9D9D9"></path><g><clipPath id="clip-82"><path d="M 662.4 310.7 L 724.5 310.7 L 724.5 377.7 L 662.4 377.7 Z M 662.4 310.7 "></path></clipPath><g clip-path="url(#clip-82)"><text xml:space="preserve" font-family="Helvetica-Bold" font-weight="bold" font-size="14.0" fill="#52575F" transform="matrix(1.00, 0.00, -0.00, -1.00, 683.0, 318.0)">4</text><text xml:space="preserve" font-family="Helvetica-Bold" font-weight="bold" font-size="14.0" fill="#52575F" transform="matrix(1.00, 0.00, -0.00, -1.00, 690.8, 318.0)">%</text></g></g><path d="M 724.5 377.7 L 786.6 377.7 L 786.6 310.7 L 724.5 310.7 Z M 724.5 377.7 " fill="#D9D9D9"></path><g><clipPath id="clip-83"><path d="M 724.5 310.7 L 786.6 310.7 L 786.6 377.7 L 724.5 377.7 Z M 724.5 310.7 "></path></clipPath><g clip-path="url(#clip-83)"><text xml:space="preserve" font-family="Helvetica-Bold" font-weight="bold" font-size="14.0" fill="#52575F" transform="matrix(1.00, 0.00, -0.00, -1.00, 742.0, 318.0)">2</text><text xml:space="preserve" font-family="Helvetica-Bold" font-weight="bold" font-size="14.0" fill="#52575F" transform="matrix(1.00, 0.00, -0.00, -1.00, 749.8, 318.0)">4</text><text xml:space="preserve" font-family="Helvetica-Bold" font-weight="bold" font-size="14.0" fill="#52575F" transform="matrix(1.00, 0.00, -0.00, -1.00, 757.6, 318.0)">%</text></g></g><image xlink:href="../../5CC1B0B1-7F9E-413D-BC1A-5746618C7E8F/assets/AC230A3C90B54A079EEB2649D5EA3903.png" width="49.00" height="43.00" transform="matrix(0.98, 0.00, -0.00, -1.00, 545.0, 376.0)"></image><image xlink:href="../../5CC1B0B1-7F9E-413D-BC1A-5746618C7E8F/assets/C27BB1F1C72C815D97E2F8D6D3A4DA1D.png" width="40.00" height="37.00" transform="matrix(1.00, 0.00, -0.00, -1.03, 673.0, 372.0)"></image><image xlink:href="../../5CC1B0B1-7F9E-413D-BC1A-5746618C7E8F/assets/9A8011DAE5E68044B71A9A6D238DDFEF.png" width="55.00" height="38.00" transform="matrix(1.00, 0.00, -0.00, -0.97, 725.0, 371.0)"></image><path d="M 848.5 377.7 L 915.1 377.7 L 915.1 310.7 L 848.5 310.7 Z M 848.5 377.7 " fill="#D9D9D9"></path><path d="M 885.8 354.7 C 891.6 348.9 891.6 339.5 885.8 333.7 C 880.0 327.9 870.5 327.9 864.7 333.7 C 858.9 339.5 858.9 348.9 864.7 354.7 C 870.5 360.5 880.0 360.5 885.8 354.7 Z M 885.8 354.7 " fill="#FEFFFE"></path><path d="M 25.4 4.4 C 31.2 10.2 31.2 19.6 25.4 25.4 C 19.6 31.2 10.2 31.2 4.4 25.4 C -1.5 19.6 -1.5 10.2 4.4 4.4 C 10.2 -1.5 19.6 -1.5 25.4 4.4 Z M 25.4 4.4 " fill="none" stroke="#52575F" stroke-width="1.00" transform="matrix(1.00, 0.00, 0.00, -1.00, 860.4, 359.0)"></path><path d="M 786.4 292.0 L 848.5 292.0 L 848.5 225.0 L 786.4 225.0 Z M 786.4 292.0 " fill="#D9D9D9"></path><g><clipPath id="clip-84"><path d="M 786.4 225.0 L 848.5 225.0 L 848.5 292.0 L 786.4 292.0 Z M 786.4 225.0 "></path></clipPath><g clip-path="url(#clip-84)"><text xml:space="preserve" font-family="Helvetica-Bold" font-weight="bold" font-size="14.0" fill="#52575F" transform="matrix(1.00, 0.00, -0.00, -1.00, 804.0, 232.0)">1</text><text xml:space="preserve" font-family="Helvetica-Bold" font-weight="bold" font-size="14.0" fill="#52575F" transform="matrix(1.00, 0.00, -0.00, -1.00, 811.0, 232.0)">1</text><text xml:space="preserve" font-family="Helvetica-Bold" font-weight="bold" font-size="14.0" fill="#52575F" transform="matrix(1.00, 0.00, -0.00, -1.00, 818.8, 232.0)">%</text></g></g><path d="M 600.2 292.0 L 662.4 292.0 L 662.4 225.0 L 600.2 225.0 Z M 600.2 292.0 " fill="#D9D9D9"></path><g><clipPath id="clip-85"><path d="M 600.2 225.0 L 662.4 225.0 L 662.4 292.0 L 600.2 292.0 Z M 600.2 225.0 "></path></clipPath><g clip-path="url(#clip-85)"><text xml:space="preserve" font-family="Helvetica-Bold" font-weight="bold" font-size="14.0" fill="#52575F" transform="matrix(1.00, 0.00, -0.00, -1.00, 617.0, 232.0)">2</text><text xml:space="preserve" font-family="Helvetica-Bold" font-weight="bold" font-size="14.0" fill="#52575F" transform="matrix(1.00, 0.00, -0.00, -1.00, 624.8, 232.0)">4</text><text xml:space="preserve" font-family="Helvetica-Bold" font-weight="bold" font-size="14.0" fill="#52575F" transform="matrix(1.00, 0.00, -0.00, -1.00, 632.6, 232.0)">%</text></g></g><image xlink:href="../../5CC1B0B1-7F9E-413D-BC1A-5746618C7E8F/assets/4F2390C3E6556E9263682E2FC5C964EB.png" width="62.00" height="42.00" transform="matrix(1.00, 0.00, -0.00, -1.00, 600.0, 290.0)"></image><image xlink:href="../../5CC1B0B1-7F9E-413D-BC1A-5746618C7E8F/assets/FA4D9DC9D3FC073151A1BDAB3287BBCA.png" width="36.00" height="44.00" transform="matrix(1.00, 0.00, -0.00, -0.98, 797.0, 290.0)"></image><path d="M 538.1 292.0 L 600.2 292.0 L 600.2 225.0 L 538.1 225.0 Z M 538.1 292.0 " fill="#D9D9D9"></path><g><clipPath id="clip-86"><path d="M 538.1 225.0 L 600.2 225.0 L 600.2 292.0 L 538.1 292.0 Z M 538.1 225.0 "></path></clipPath><g clip-path="url(#clip-86)"><text xml:space="preserve" font-family="Helvetica-Bold" font-weight="bold" font-size="14.0" fill="#52575F" transform="matrix(1.00, 0.00, -0.00, -1.00, 555.0, 232.0)">3</text><text xml:space="preserve" font-family="Helvetica-Bold" font-weight="bold" font-size="14.0" fill="#52575F" transform="matrix(1.00, 0.00, -0.00, -1.00, 562.8, 232.0)">7</text><text xml:space="preserve" font-family="Helvetica-Bold" font-weight="bold" font-size="14.0" fill="#52575F" transform="matrix(1.00, 0.00, -0.00, -1.00, 570.6, 232.0)">%</text></g></g><path d="M 662.4 292.0 L 724.5 292.0 L 724.5 225.0 L 662.4 225.0 Z M 662.4 292.0 " fill="#D9D9D9"></path><g><clipPath id="clip-87"><path d="M 662.4 225.0 L 724.5 225.0 L 724.5 292.0 L 662.4 292.0 Z M 662.4 225.0 "></path></clipPath><g clip-path="url(#clip-87)"><text xml:space="preserve" font-family="Helvetica-Bold" font-weight="bold" font-size="14.0" fill="#52575F" transform="matrix(1.00, 0.00, -0.00, -1.00, 683.0, 232.0)">4</text><text xml:space="preserve" font-family="Helvetica-Bold" font-weight="bold" font-size="14.0" fill="#52575F" transform="matrix(1.00, 0.00, -0.00, -1.00, 690.8, 232.0)">%</text></g></g><path d="M 724.5 292.0 L 786.6 292.0 L 786.6 225.0 L 724.5 225.0 Z M 724.5 292.0 " fill="#D9D9D9"></path><g><clipPath id="clip-88"><path d="M 724.5 225.0 L 786.6 225.0 L 786.6 292.0 L 724.5 292.0 Z M 724.5 225.0 "></path></clipPath><g clip-path="url(#clip-88)"><text xml:space="preserve" font-family="Helvetica-Bold" font-weight="bold" font-size="14.0" fill="#52575F" transform="matrix(1.00, 0.00, -0.00, -1.00, 742.0, 232.0)">2</text><text xml:space="preserve" font-family="Helvetica-Bold" font-weight="bold" font-size="14.0" fill="#52575F" transform="matrix(1.00, 0.00, -0.00, -1.00, 749.8, 232.0)">4</text><text xml:space="preserve" font-family="Helvetica-Bold" font-weight="bold" font-size="14.0" fill="#52575F" transform="matrix(1.00, 0.00, -0.00, -1.00, 757.6, 232.0)">%</text></g></g><image xlink:href="../../5CC1B0B1-7F9E-413D-BC1A-5746618C7E8F/assets/AC230A3C90B54A079EEB2649D5EA3903.png" width="49.00" height="43.00" transform="matrix(0.98, 0.00, -0.00, -1.00, 545.0, 290.0)"></image><image xlink:href="../../5CC1B0B1-7F9E-413D-BC1A-5746618C7E8F/assets/C27BB1F1C72C815D97E2F8D6D3A4DA1D.png" width="40.00" height="37.00" transform="matrix(1.00, 0.00, -0.00, -1.00, 673.0, 286.0)"></image><image xlink:href="../../5CC1B0B1-7F9E-413D-BC1A-5746618C7E8F/assets/9A8011DAE5E68044B71A9A6D238DDFEF.png" width="55.00" height="38.00" transform="matrix(1.00, 0.00, -0.00, -1.00, 725.0, 286.0)"></image><path d="M 848.5 292.0 L 915.1 292.0 L 915.1 225.0 L 848.5 225.0 Z M 848.5 292.0 " fill="#D9D9D9"></path><path d="M 885.8 269.0 C 891.6 263.2 891.6 253.8 885.8 248.0 C 880.0 242.2 870.5 242.2 864.7 248.0 C 858.9 253.8 858.9 263.2 864.7 269.0 C 870.5 274.8 880.0 274.8 885.8 269.0 Z M 885.8 269.0 " fill="#FEFFFE"></path><path d="M 25.4 4.4 C 31.2 10.2 31.2 19.6 25.4 25.4 C 19.6 31.2 10.2 31.2 4.4 25.4 C -1.5 19.6 -1.5 10.2 4.4 4.4 C 10.2 -1.5 19.6 -1.5 25.4 4.4 Z M 25.4 4.4 " fill="none" stroke="#52575F" stroke-width="1.00" transform="matrix(1.00, 0.00, 0.00, -1.00, 860.4, 273.4)"></path></g></svg>