<?xml version="1.0" encoding="UTF-8" standalone="no"?><svg xmlns="http://www.w3.org/2000/svg" xmlns:xlink="http://www.w3.org/1999/xlink" clip-rule="evenodd" stroke-miterlimit="4.00" viewBox="0 0 1024 768"><desc>SVG generated by Keynote</desc><defs></defs><g transform="matrix(1.00, 0.00, -0.00, -1.00, 0.0, 768.0)"><path d="M 0.0 768.0 L 1024.0 768.0 L 1024.0 0.0 L 0.0 0.0 Z M 0.0 768.0 " fill="#000000"></path><g><clipPath id="clip-2"><path d="M 128.0 716.0 L 896.0 716.0 L 896.0 251.0 L 128.0 251.0 Z M 127.5 716.0 "></path></clipPath><g clip-path="url(#clip-2)"><image xlink:href="../../F679B963-90CB-4D11-AE1B-215FFDD20BAA/assets/08FE4A883A338501BD34C6ABFC8999F0.png" width="800.00" height="600.00" transform="matrix(1.05, 0.00, -0.00, -1.05, 93.0, 826.0)"></image></g></g><text xml:space="preserve" font-family="Helvetica-Light" font-size="78.4" fill="#FEFFFF" transform="matrix(1.00, 0.00, -0.00, -1.00, 107.0, 154.0)">F</text><text xml:space="preserve" font-family="Helvetica-Light" font-size="78.4" fill="#FEFFFF" transform="matrix(1.00, 0.00, -0.00, -1.00, 150.6, 154.0)">u</text><text xml:space="preserve" font-family="Helvetica-Light" font-size="78.4" fill="#FEFFFF" transform="matrix(1.00, 0.00, -0.00, -1.00, 194.2, 154.0)">n</text><text xml:space="preserve" font-family="Helvetica-Light" font-size="78.4" fill="#FEFFFF" transform="matrix(1.00, 0.00, -0.00, -1.00, 237.8, 154.0)">c</text><text xml:space="preserve" font-family="Helvetica-Light" font-size="78.4" fill="#FEFFFF" transform="matrix(1.00, 0.00, -0.00, -1.00, 281.4, 154.0)">t</text><text xml:space="preserve" font-family="Helvetica-Light" font-size="78.4" fill="#FEFFFF" transform="matrix(1.00, 0.00, -0.00, -1.00, 303.2, 154.0)">i</text><text xml:space="preserve" font-family="Helvetica-Light" font-size="78.4" fill="#FEFFFF" transform="matrix(1.00, 0.00, -0.00, -1.00, 320.6, 154.0)">o</text><text xml:space="preserve" font-family="Helvetica-Light" font-size="78.4" fill="#FEFFFF" transform="matrix(1.00, 0.00, -0.00, -1.00, 364.2, 154.0)">n</text><text xml:space="preserve" font-family="Helvetica-Light" font-size="78.4" fill="#FEFFFF" transform="matrix(1.00, 0.00, -0.00, -1.00, 407.7, 154.0)">a</text><text xml:space="preserve" font-family="Helvetica-Light" font-size="78.4" fill="#FEFFFF" transform="matrix(1.00, 0.00, -0.00, -1.00, 451.3, 154.0)">l</text><text xml:space="preserve" font-family="Helvetica-Light" font-size="78.4" fill="#FEFFFF" transform="matrix(1.00, 0.00, -0.00, -1.00, 468.7, 154.0)"> </text><text xml:space="preserve" font-family="Helvetica-Light" font-size="78.4" fill="#FEFFFF" transform="matrix(1.00, 0.00, -0.00, -1.00, 490.5, 154.0)">d</text><text xml:space="preserve" font-family="Helvetica-Light" font-size="78.4" fill="#FEFFFF" transform="matrix(1.00, 0.00, -0.00, -1.00, 538.4, 154.0)">e</text><text xml:space="preserve" font-family="Helvetica-Light" font-size="78.4" fill="#FEFFFF" transform="matrix(1.00, 0.00, -0.00, -1.00, 582.0, 154.0)">g</text><text xml:space="preserve" font-family="Helvetica-Light" font-size="78.4" fill="#FEFFFF" transform="matrix(1.00, 0.00, -0.00, -1.00, 629.9, 154.0)">r</text><text xml:space="preserve" font-family="Helvetica-Light" font-size="78.4" fill="#FEFFFF" transform="matrix(1.00, 0.00, -0.00, -1.00, 656.0, 154.0)">a</text><text xml:space="preserve" font-family="Helvetica-Light" font-size="78.4" fill="#FEFFFF" transform="matrix(1.00, 0.00, -0.00, -1.00, 699.6, 154.0)">d</text><text xml:space="preserve" font-family="Helvetica-Light" font-size="78.4" fill="#FEFFFF" transform="matrix(1.00, 0.00, -0.00, -1.00, 747.5, 154.0)">a</text><text xml:space="preserve" font-family="Helvetica-Light" font-size="78.4" fill="#FEFFFF" transform="matrix(1.00, 0.00, -0.00, -1.00, 791.1, 154.0)">t</text><text xml:space="preserve" font-family="Helvetica-Light" font-size="78.4" fill="#FEFFFF" transform="matrix(1.00, 0.00, -0.00, -1.00, 812.9, 154.0)">i</text><text xml:space="preserve" font-family="Helvetica-Light" font-size="78.4" fill="#FEFFFF" transform="matrix(1.00, 0.00, -0.00, -1.00, 830.3, 154.0)">o</text><text xml:space="preserve" font-family="Helvetica-Light" font-size="78.4" fill="#FEFFFF" transform="matrix(1.00, 0.00, -0.00, -1.00, 873.9, 154.0)">n</text><path d="M 149.4 14.6 C 183.6 34.2 183.6 65.8 149.4 85.4 C 115.2 104.9 59.8 104.9 25.6 85.4 C -8.5 65.8 -8.5 34.2 25.6 14.6 C 59.8 -4.9 115.2 -4.9 149.4 14.6 Z M 149.4 14.6 " fill="none" stroke="#E7A432" stroke-width="6.00" transform="matrix(1.00, 0.00, 0.00, -1.00, 168.9, 504.8)"></path></g></svg>