<?xml version="1.0" encoding="UTF-8" standalone="no"?><svg xmlns="http://www.w3.org/2000/svg" xmlns:xlink="http://www.w3.org/1999/xlink" clip-rule="evenodd" stroke-miterlimit="4.00" viewBox="0 0 802 76"><desc>SVG generated by Keynote</desc><defs></defs><g transform="matrix(1.00, 0.00, -0.00, -1.00, 0.0, 76.0)"><text xml:space="preserve" font-family="Helvetica-Light" font-size="78.4" fill="#FEFFFF" transform="matrix(1.00, 0.00, -0.00, -1.00, -4.0, 18.0)">F</text><text xml:space="preserve" font-family="Helvetica-Light" font-size="78.4" fill="#FEFFFF" transform="matrix(1.00, 0.00, -0.00, -1.00, 39.6, 18.0)">u</text><text xml:space="preserve" font-family="Helvetica-Light" font-size="78.4" fill="#FEFFFF" transform="matrix(1.00, 0.00, -0.00, -1.00, 83.2, 18.0)">n</text><text xml:space="preserve" font-family="Helvetica-Light" font-size="78.4" fill="#FEFFFF" transform="matrix(1.00, 0.00, -0.00, -1.00, 126.8, 18.0)">c</text><text xml:space="preserve" font-family="Helvetica-Light" font-size="78.4" fill="#FEFFFF" transform="matrix(1.00, 0.00, -0.00, -1.00, 170.4, 18.0)">t</text><text xml:space="preserve" font-family="Helvetica-Light" font-size="78.4" fill="#FEFFFF" transform="matrix(1.00, 0.00, -0.00, -1.00, 192.2, 18.0)">i</text><text xml:space="preserve" font-family="Helvetica-Light" font-size="78.4" fill="#FEFFFF" transform="matrix(1.00, 0.00, -0.00, -1.00, 209.6, 18.0)">o</text><text xml:space="preserve" font-family="Helvetica-Light" font-size="78.4" fill="#FEFFFF" transform="matrix(1.00, 0.00, -0.00, -1.00, 253.2, 18.0)">n</text><text xml:space="preserve" font-family="Helvetica-Light" font-size="78.4" fill="#FEFFFF" transform="matrix(1.00, 0.00, -0.00, -1.00, 296.7, 18.0)">a</text><text xml:space="preserve" font-family="Helvetica-Light" font-size="78.4" fill="#FEFFFF" transform="matrix(1.00, 0.00, -0.00, -1.00, 340.3, 18.0)">l</text><text xml:space="preserve" font-family="Helvetica-Light" font-size="78.4" fill="#FEFFFF" transform="matrix(1.00, 0.00, -0.00, -1.00, 357.7, 18.0)"> </text><text xml:space="preserve" font-family="Helvetica-Light" font-size="78.4" fill="#FEFFFF" transform="matrix(1.00, 0.00, -0.00, -1.00, 379.5, 18.0)">d</text><text xml:space="preserve" font-family="Helvetica-Light" font-size="78.4" fill="#FEFFFF" transform="matrix(1.00, 0.00, -0.00, -1.00, 427.4, 18.0)">e</text><text xml:space="preserve" font-family="Helvetica-Light" font-size="78.4" fill="#FEFFFF" transform="matrix(1.00, 0.00, -0.00, -1.00, 471.0, 18.0)">g</text><text xml:space="preserve" font-family="Helvetica-Light" font-size="78.4" fill="#FEFFFF" transform="matrix(1.00, 0.00, -0.00, -1.00, 518.9, 18.0)">r</text><text xml:space="preserve" font-family="Helvetica-Light" font-size="78.4" fill="#FEFFFF" transform="matrix(1.00, 0.00, -0.00, -1.00, 545.0, 18.0)">a</text><text xml:space="preserve" font-family="Helvetica-Light" font-size="78.4" fill="#FEFFFF" transform="matrix(1.00, 0.00, -0.00, -1.00, 588.6, 18.0)">d</text><text xml:space="preserve" font-family="Helvetica-Light" font-size="78.4" fill="#FEFFFF" transform="matrix(1.00, 0.00, -0.00, -1.00, 636.5, 18.0)">a</text><text xml:space="preserve" font-family="Helvetica-Light" font-size="78.4" fill="#FEFFFF" transform="matrix(1.00, 0.00, -0.00, -1.00, 680.1, 18.0)">t</text><text xml:space="preserve" font-family="Helvetica-Light" font-size="78.4" fill="#FEFFFF" transform="matrix(1.00, 0.00, -0.00, -1.00, 701.9, 18.0)">i</text><text xml:space="preserve" font-family="Helvetica-Light" font-size="78.4" fill="#FEFFFF" transform="matrix(1.00, 0.00, -0.00, -1.00, 719.3, 18.0)">o</text><text xml:space="preserve" font-family="Helvetica-Light" font-size="78.4" fill="#FEFFFF" transform="matrix(1.00, 0.00, -0.00, -1.00, 762.9, 18.0)">n</text></g></svg>