<?xml version="1.0" encoding="UTF-8" standalone="no"?><svg xmlns="http://www.w3.org/2000/svg" xmlns:xlink="http://www.w3.org/1999/xlink" clip-rule="evenodd" stroke-miterlimit="4.00" viewBox="0 0 1024 768"><desc>SVG generated by Keynote</desc><defs></defs><g transform="matrix(1.00, 0.00, -0.00, -1.00, 0.0, 768.0)"><path d="M 0.0 768.0 L 1024.0 768.0 L 1024.0 0.0 L 0.0 0.0 Z M 0.0 768.0 " fill="#000000"></path><text xml:space="preserve" font-family="Helvetica-Light" font-size="80.0" fill="#FEFFFF" transform="matrix(1.00, 0.00, -0.00, -1.00, 432.0, 633.0)">H</text><text xml:space="preserve" font-family="Helvetica-Light" font-size="80.0" fill="#FEFFFF" transform="matrix(1.00, 0.00, -0.00, -1.00, 489.8, 633.0)">o</text><text xml:space="preserve" font-family="Helvetica-Light" font-size="80.0" fill="#FEFFFF" transform="matrix(1.00, 0.00, -0.00, -1.00, 534.2, 633.0)">w</text><text xml:space="preserve" font-family="Helvetica-Bold" font-weight="bold" font-size="38.0" fill="#E7A432" transform="matrix(1.00, 0.00, -0.00, -1.00, 79.0, 459.0)">F</text><text xml:space="preserve" font-family="Helvetica-Bold" font-weight="bold" font-size="38.0" fill="#E7A432" transform="matrix(1.00, 0.00, -0.00, -1.00, 102.2, 459.0)">u</text><text xml:space="preserve" font-family="Helvetica-Bold" font-weight="bold" font-size="38.0" fill="#E7A432" transform="matrix(1.00, 0.00, -0.00, -1.00, 125.4, 459.0)">n</text><text xml:space="preserve" font-family="Helvetica-Bold" font-weight="bold" font-size="38.0" fill="#E7A432" transform="matrix(1.00, 0.00, -0.00, -1.00, 148.6, 459.0)">c</text><text xml:space="preserve" font-family="Helvetica-Bold" font-weight="bold" font-size="38.0" fill="#E7A432" transform="matrix(1.00, 0.00, -0.00, -1.00, 169.8, 459.0)">t</text><text xml:space="preserve" font-family="Helvetica-Bold" font-weight="bold" font-size="38.0" fill="#E7A432" transform="matrix(1.00, 0.00, -0.00, -1.00, 182.4, 459.0)">i</text><text xml:space="preserve" font-family="Helvetica-Bold" font-weight="bold" font-size="38.0" fill="#E7A432" transform="matrix(1.00, 0.00, -0.00, -1.00, 193.0, 459.0)">o</text><text xml:space="preserve" font-family="Helvetica-Bold" font-weight="bold" font-size="38.0" fill="#E7A432" transform="matrix(1.00, 0.00, -0.00, -1.00, 216.2, 459.0)">n</text><text xml:space="preserve" font-family="Helvetica-Bold" font-weight="bold" font-size="38.0" fill="#E7A432" transform="matrix(1.00, 0.00, -0.00, -1.00, 239.4, 459.0)">a</text><text xml:space="preserve" font-family="Helvetica-Bold" font-weight="bold" font-size="38.0" fill="#E7A432" transform="matrix(1.00, 0.00, -0.00, -1.00, 260.5, 459.0)">l</text><text xml:space="preserve" font-family="Helvetica-Bold" font-weight="bold" font-size="38.0" fill="#E7A432" transform="matrix(1.00, 0.00, -0.00, -1.00, 271.1, 459.0)"> </text><text xml:space="preserve" font-family="Helvetica-Bold" font-weight="bold" font-size="38.0" fill="#E7A432" transform="matrix(1.00, 0.00, -0.00, -1.00, 281.6, 459.0)">d</text><text xml:space="preserve" font-family="Helvetica-Bold" font-weight="bold" font-size="38.0" fill="#E7A432" transform="matrix(1.00, 0.00, -0.00, -1.00, 304.8, 459.0)">e</text><text xml:space="preserve" font-family="Helvetica-Bold" font-weight="bold" font-size="38.0" fill="#E7A432" transform="matrix(1.00, 0.00, -0.00, -1.00, 326.0, 459.0)">g</text><text xml:space="preserve" font-family="Helvetica-Bold" font-weight="bold" font-size="38.0" fill="#E7A432" transform="matrix(1.00, 0.00, -0.00, -1.00, 349.2, 459.0)">r</text><text xml:space="preserve" font-family="Helvetica-Bold" font-weight="bold" font-size="38.0" fill="#E7A432" transform="matrix(1.00, 0.00, -0.00, -1.00, 364.0, 459.0)">a</text><text xml:space="preserve" font-family="Helvetica-Bold" font-weight="bold" font-size="38.0" fill="#E7A432" transform="matrix(1.00, 0.00, -0.00, -1.00, 385.1, 459.0)">d</text><text xml:space="preserve" font-family="Helvetica-Bold" font-weight="bold" font-size="38.0" fill="#E7A432" transform="matrix(1.00, 0.00, -0.00, -1.00, 408.3, 459.0)">a</text><text xml:space="preserve" font-family="Helvetica-Bold" font-weight="bold" font-size="38.0" fill="#E7A432" transform="matrix(1.00, 0.00, -0.00, -1.00, 429.4, 459.0)">t</text><text xml:space="preserve" font-family="Helvetica-Bold" font-weight="bold" font-size="38.0" fill="#E7A432" transform="matrix(1.00, 0.00, -0.00, -1.00, 442.1, 459.0)">i</text><text xml:space="preserve" font-family="Helvetica-Bold" font-weight="bold" font-size="38.0" fill="#E7A432" transform="matrix(1.00, 0.00, -0.00, -1.00, 452.6, 459.0)">o</text><text xml:space="preserve" font-family="Helvetica-Bold" font-weight="bold" font-size="38.0" fill="#E7A432" transform="matrix(1.00, 0.00, -0.00, -1.00, 475.9, 459.0)">n</text><text xml:space="preserve" font-family="Helvetica-Bold" font-weight="bold" font-size="38.0" fill="#E7A432" transform="matrix(1.00, 0.00, -0.00, -1.00, 499.1, 459.0)"> </text><text xml:space="preserve" font-family="Helvetica-Light" font-size="38.0" fill="#FEFFFE" transform="matrix(1.00, 0.00, -0.00, -1.00, 79.0, 413.0)">Q</text><text xml:space="preserve" font-family="Helvetica-Light" font-size="38.0" fill="#FEFFFE" transform="matrix(1.00, 0.00, -0.00, -1.00, 108.6, 413.0)">u</text><text xml:space="preserve" font-family="Helvetica-Light" font-size="38.0" fill="#FEFFFE" transform="matrix(1.00, 0.00, -0.00, -1.00, 129.7, 413.0)">i</text><text xml:space="preserve" font-family="Helvetica-Light" font-size="38.0" fill="#FEFFFE" transform="matrix(1.00, 0.00, -0.00, -1.00, 138.1, 413.0)">z</text><text xml:space="preserve" font-family="Helvetica-Light" font-size="38.0" fill="#FEFFFE" transform="matrix(1.00, 0.00, -0.00, -1.00, 157.1, 413.0)">z</text><text xml:space="preserve" font-family="Helvetica-Light" font-size="38.0" fill="#FEFFFE" transform="matrix(1.00, 0.00, -0.00, -1.00, 176.1, 413.0)">e</text><text xml:space="preserve" font-family="Helvetica-Light" font-size="38.0" fill="#FEFFFE" transform="matrix(1.00, 0.00, -0.00, -1.00, 197.3, 413.0)">s</text><text xml:space="preserve" font-family="Helvetica-Light" font-size="38.0" fill="#FEFFFE" transform="matrix(1.00, 0.00, -0.00, -1.00, 216.3, 413.0)"> </text><text xml:space="preserve" font-family="Helvetica-Light" font-size="38.0" fill="#FEFFFE" transform="matrix(1.00, 0.00, -0.00, -1.00, 226.8, 413.0)">a</text><text xml:space="preserve" font-family="Helvetica-Light" font-size="38.0" fill="#FEFFFE" transform="matrix(1.00, 0.00, -0.00, -1.00, 247.9, 413.0)">r</text><text xml:space="preserve" font-family="Helvetica-Light" font-size="38.0" fill="#FEFFFE" transform="matrix(1.00, 0.00, -0.00, -1.00, 259.9, 413.0)">e</text><text xml:space="preserve" font-family="Helvetica-Light" font-size="38.0" fill="#FEFFFE" transform="matrix(1.00, 0.00, -0.00, -1.00, 281.0, 413.0)"> </text><text xml:space="preserve" font-family="Helvetica-Light" font-size="38.0" fill="#FEFFFE" transform="matrix(1.00, 0.00, -0.00, -1.00, 291.6, 413.0)">d</text><text xml:space="preserve" font-family="Helvetica-Light" font-size="38.0" fill="#FEFFFE" transform="matrix(1.00, 0.00, -0.00, -1.00, 314.8, 413.0)">i</text><text xml:space="preserve" font-family="Helvetica-Light" font-size="38.0" fill="#FEFFFE" transform="matrix(1.00, 0.00, -0.00, -1.00, 323.3, 413.0)">s</text><text xml:space="preserve" font-family="Helvetica-Light" font-size="38.0" fill="#FEFFFE" transform="matrix(1.00, 0.00, -0.00, -1.00, 342.3, 413.0)">a</text><text xml:space="preserve" font-family="Helvetica-Light" font-size="38.0" fill="#FEFFFE" transform="matrix(1.00, 0.00, -0.00, -1.00, 363.4, 413.0)">b</text><text xml:space="preserve" font-family="Helvetica-Light" font-size="38.0" fill="#FEFFFE" transform="matrix(1.00, 0.00, -0.00, -1.00, 386.6, 413.0)">l</text><text xml:space="preserve" font-family="Helvetica-Light" font-size="38.0" fill="#FEFFFE" transform="matrix(1.00, 0.00, -0.00, -1.00, 395.0, 413.0)">e</text><text xml:space="preserve" font-family="Helvetica-Light" font-size="38.0" fill="#FEFFFE" transform="matrix(1.00, 0.00, -0.00, -1.00, 416.2, 413.0)">d</text><text xml:space="preserve" font-family="Helvetica-Light" font-size="38.0" fill="#FEFFFE" transform="matrix(1.00, 0.00, -0.00, -1.00, 439.4, 413.0)"> </text><text xml:space="preserve" font-family="Helvetica-Light" font-size="38.0" fill="#FEFFFE" transform="matrix(1.00, 0.00, -0.00, -1.00, 450.0, 413.0)">o</text><text xml:space="preserve" font-family="Helvetica-Light" font-size="38.0" fill="#FEFFFE" transform="matrix(1.00, 0.00, -0.00, -1.00, 471.1, 413.0)">n</text><text xml:space="preserve" font-family="Helvetica-Light" font-size="38.0" fill="#FEFFFE" transform="matrix(1.00, 0.00, -0.00, -1.00, 492.2, 413.0)"> </text><text xml:space="preserve" font-family="Helvetica-Light" font-size="38.0" fill="#FEFFFE" transform="matrix(1.00, 0.00, -0.00, -1.00, 502.8, 413.0)">m</text><text xml:space="preserve" font-family="Helvetica-Light" font-size="38.0" fill="#FEFFFE" transform="matrix(1.00, 0.00, -0.00, -1.00, 534.4, 413.0)">o</text><text xml:space="preserve" font-family="Helvetica-Light" font-size="38.0" fill="#FEFFFE" transform="matrix(1.00, 0.00, -0.00, -1.00, 555.6, 413.0)">b</text><text xml:space="preserve" font-family="Helvetica-Light" font-size="38.0" fill="#FEFFFE" transform="matrix(1.00, 0.00, -0.00, -1.00, 578.8, 413.0)">i</text><text xml:space="preserve" font-family="Helvetica-Light" font-size="38.0" fill="#FEFFFE" transform="matrix(1.00, 0.00, -0.00, -1.00, 587.2, 413.0)">l</text><text xml:space="preserve" font-family="Helvetica-Light" font-size="38.0" fill="#FEFFFE" transform="matrix(1.00, 0.00, -0.00, -1.00, 595.6, 413.0)">e</text><text xml:space="preserve" font-family="Helvetica-Bold" font-weight="bold" font-size="38.0" fill="#E7A432" transform="matrix(1.00, 0.00, -0.00, -1.00, 79.0, 325.0)">G</text><text xml:space="preserve" font-family="Helvetica-Bold" font-weight="bold" font-size="38.0" fill="#E7A432" transform="matrix(1.00, 0.00, -0.00, -1.00, 108.6, 325.0)">r</text><text xml:space="preserve" font-family="Helvetica-Bold" font-weight="bold" font-size="38.0" fill="#E7A432" transform="matrix(1.00, 0.00, -0.00, -1.00, 123.3, 325.0)">a</text><text xml:space="preserve" font-family="Helvetica-Bold" font-weight="bold" font-size="38.0" fill="#E7A432" transform="matrix(1.00, 0.00, -0.00, -1.00, 144.5, 325.0)">c</text><text xml:space="preserve" font-family="Helvetica-Bold" font-weight="bold" font-size="38.0" fill="#E7A432" transform="matrix(1.00, 0.00, -0.00, -1.00, 165.6, 325.0)">e</text><text xml:space="preserve" font-family="Helvetica-Bold" font-weight="bold" font-size="38.0" fill="#E7A432" transform="matrix(1.00, 0.00, -0.00, -1.00, 186.8, 325.0)">f</text><text xml:space="preserve" font-family="Helvetica-Bold" font-weight="bold" font-size="38.0" fill="#E7A432" transform="matrix(1.00, 0.00, -0.00, -1.00, 199.4, 325.0)">u</text><text xml:space="preserve" font-family="Helvetica-Bold" font-weight="bold" font-size="38.0" fill="#E7A432" transform="matrix(1.00, 0.00, -0.00, -1.00, 222.6, 325.0)">l</text><text xml:space="preserve" font-family="Helvetica-Bold" font-weight="bold" font-size="38.0" fill="#E7A432" transform="matrix(1.00, 0.00, -0.00, -1.00, 233.2, 325.0)"> </text><text xml:space="preserve" font-family="Helvetica-Bold" font-weight="bold" font-size="38.0" fill="#E7A432" transform="matrix(1.00, 0.00, -0.00, -1.00, 243.7, 325.0)">d</text><text xml:space="preserve" font-family="Helvetica-Bold" font-weight="bold" font-size="38.0" fill="#E7A432" transform="matrix(1.00, 0.00, -0.00, -1.00, 266.9, 325.0)">e</text><text xml:space="preserve" font-family="Helvetica-Bold" font-weight="bold" font-size="38.0" fill="#E7A432" transform="matrix(1.00, 0.00, -0.00, -1.00, 288.1, 325.0)">g</text><text xml:space="preserve" font-family="Helvetica-Bold" font-weight="bold" font-size="38.0" fill="#E7A432" transform="matrix(1.00, 0.00, -0.00, -1.00, 311.3, 325.0)">r</text><text xml:space="preserve" font-family="Helvetica-Bold" font-weight="bold" font-size="38.0" fill="#E7A432" transform="matrix(1.00, 0.00, -0.00, -1.00, 326.1, 325.0)">a</text><text xml:space="preserve" font-family="Helvetica-Bold" font-weight="bold" font-size="38.0" fill="#E7A432" transform="matrix(1.00, 0.00, -0.00, -1.00, 347.2, 325.0)">d</text><text xml:space="preserve" font-family="Helvetica-Bold" font-weight="bold" font-size="38.0" fill="#E7A432" transform="matrix(1.00, 0.00, -0.00, -1.00, 370.4, 325.0)">a</text><text xml:space="preserve" font-family="Helvetica-Bold" font-weight="bold" font-size="38.0" fill="#E7A432" transform="matrix(1.00, 0.00, -0.00, -1.00, 391.6, 325.0)">t</text><text xml:space="preserve" font-family="Helvetica-Bold" font-weight="bold" font-size="38.0" fill="#E7A432" transform="matrix(1.00, 0.00, -0.00, -1.00, 404.2, 325.0)">i</text><text xml:space="preserve" font-family="Helvetica-Bold" font-weight="bold" font-size="38.0" fill="#E7A432" transform="matrix(1.00, 0.00, -0.00, -1.00, 414.8, 325.0)">o</text><text xml:space="preserve" font-family="Helvetica-Bold" font-weight="bold" font-size="38.0" fill="#E7A432" transform="matrix(1.00, 0.00, -0.00, -1.00, 438.0, 325.0)">n</text><text xml:space="preserve" font-family="Helvetica-Bold" font-weight="bold" font-size="38.0" fill="#E7A432" transform="matrix(1.00, 0.00, -0.00, -1.00, 461.2, 325.0)"> </text><text xml:space="preserve" font-family="Helvetica-Light" font-size="38.0" fill="#FEFFFE" transform="matrix(1.00, 0.00, -0.00, -1.00, 79.0, 279.0)">A</text><text xml:space="preserve" font-family="Helvetica-Light" font-size="38.0" fill="#FEFFFE" transform="matrix(1.00, 0.00, -0.00, -1.00, 104.3, 279.0)">n</text><text xml:space="preserve" font-family="Helvetica-Light" font-size="38.0" fill="#FEFFFE" transform="matrix(1.00, 0.00, -0.00, -1.00, 125.5, 279.0)">y</text><text xml:space="preserve" font-family="Helvetica-Light" font-size="38.0" fill="#FEFFFE" transform="matrix(1.00, 0.00, -0.00, -1.00, 144.5, 279.0)"> </text><text xml:space="preserve" font-family="Helvetica-Light" font-size="38.0" fill="#FEFFFE" transform="matrix(1.00, 0.00, -0.00, -1.00, 155.0, 279.0)">q</text><text xml:space="preserve" font-family="Helvetica-Light" font-size="38.0" fill="#FEFFFE" transform="matrix(1.00, 0.00, -0.00, -1.00, 178.3, 279.0)">u</text><text xml:space="preserve" font-family="Helvetica-Light" font-size="38.0" fill="#FEFFFE" transform="matrix(1.00, 0.00, -0.00, -1.00, 199.4, 279.0)">i</text><text xml:space="preserve" font-family="Helvetica-Light" font-size="38.0" fill="#FEFFFE" transform="matrix(1.00, 0.00, -0.00, -1.00, 207.8, 279.0)">z</text><text xml:space="preserve" font-family="Helvetica-Light" font-size="38.0" fill="#FEFFFE" transform="matrix(1.00, 0.00, -0.00, -1.00, 226.8, 279.0)"> </text><text xml:space="preserve" font-family="Helvetica-Light" font-size="38.0" fill="#FEFFFE" transform="matrix(1.00, 0.00, -0.00, -1.00, 237.4, 279.0)">c</text><text xml:space="preserve" font-family="Helvetica-Light" font-size="38.0" fill="#FEFFFE" transform="matrix(1.00, 0.00, -0.00, -1.00, 258.5, 279.0)">a</text><text xml:space="preserve" font-family="Helvetica-Light" font-size="38.0" fill="#FEFFFE" transform="matrix(1.00, 0.00, -0.00, -1.00, 279.6, 279.0)">n</text><text xml:space="preserve" font-family="Helvetica-Light" font-size="38.0" fill="#FEFFFE" transform="matrix(1.00, 0.00, -0.00, -1.00, 300.8, 279.0)"> </text><text xml:space="preserve" font-family="Helvetica-Light" font-size="38.0" fill="#FEFFFE" transform="matrix(1.00, 0.00, -0.00, -1.00, 311.3, 279.0)">b</text><text xml:space="preserve" font-family="Helvetica-Light" font-size="38.0" fill="#FEFFFE" transform="matrix(1.00, 0.00, -0.00, -1.00, 334.5, 279.0)">e</text><text xml:space="preserve" font-family="Helvetica-Light" font-size="38.0" fill="#FEFFFE" transform="matrix(1.00, 0.00, -0.00, -1.00, 355.7, 279.0)"> </text><text xml:space="preserve" font-family="Helvetica-Light" font-size="38.0" fill="#FEFFFE" transform="matrix(1.00, 0.00, -0.00, -1.00, 366.2, 279.0)">a</text><text xml:space="preserve" font-family="Helvetica-Light" font-size="38.0" fill="#FEFFFE" transform="matrix(1.00, 0.00, -0.00, -1.00, 387.4, 279.0)">d</text><text xml:space="preserve" font-family="Helvetica-Light" font-size="38.0" fill="#FEFFFE" transform="matrix(1.00, 0.00, -0.00, -1.00, 410.6, 279.0)">a</text><text xml:space="preserve" font-family="Helvetica-Light" font-size="38.0" fill="#FEFFFE" transform="matrix(1.00, 0.00, -0.00, -1.00, 431.7, 279.0)">p</text><text xml:space="preserve" font-family="Helvetica-Light" font-size="38.0" fill="#FEFFFE" transform="matrix(1.00, 0.00, -0.00, -1.00, 454.9, 279.0)">t</text><text xml:space="preserve" font-family="Helvetica-Light" font-size="38.0" fill="#FEFFFE" transform="matrix(1.00, 0.00, -0.00, -1.00, 465.5, 279.0)">e</text><text xml:space="preserve" font-family="Helvetica-Light" font-size="38.0" fill="#FEFFFE" transform="matrix(1.00, 0.00, -0.00, -1.00, 486.6, 279.0)">d</text><text xml:space="preserve" font-family="Helvetica-Light" font-size="38.0" fill="#FEFFFE" transform="matrix(1.00, 0.00, -0.00, -1.00, 509.8, 279.0)"> </text><text xml:space="preserve" font-family="Helvetica-Light" font-size="38.0" fill="#FEFFFE" transform="matrix(1.00, 0.00, -0.00, -1.00, 520.4, 279.0)">t</text><text xml:space="preserve" font-family="Helvetica-Light" font-size="38.0" fill="#FEFFFE" transform="matrix(1.00, 0.00, -0.00, -1.00, 531.0, 279.0)">o</text><text xml:space="preserve" font-family="Helvetica-Light" font-size="38.0" fill="#FEFFFE" transform="matrix(1.00, 0.00, -0.00, -1.00, 552.1, 279.0)"> </text><text xml:space="preserve" font-family="Helvetica-Light" font-size="38.0" fill="#FEFFFE" transform="matrix(1.00, 0.00, -0.00, -1.00, 562.7, 279.0)">a</text><text xml:space="preserve" font-family="Helvetica-Light" font-size="38.0" fill="#FEFFFE" transform="matrix(1.00, 0.00, -0.00, -1.00, 583.8, 279.0)"> </text><text xml:space="preserve" font-family="Helvetica-Light" font-size="38.0" fill="#FEFFFE" transform="matrix(1.00, 0.00, -0.00, -1.00, 594.4, 279.0)">s</text><text xml:space="preserve" font-family="Helvetica-Light" font-size="38.0" fill="#FEFFFE" transform="matrix(1.00, 0.00, -0.00, -1.00, 613.4, 279.0)">i</text><text xml:space="preserve" font-family="Helvetica-Light" font-size="38.0" fill="#FEFFFE" transform="matrix(1.00, 0.00, -0.00, -1.00, 621.8, 279.0)">m</text><text xml:space="preserve" font-family="Helvetica-Light" font-size="38.0" fill="#FEFFFE" transform="matrix(1.00, 0.00, -0.00, -1.00, 653.4, 279.0)">p</text><text xml:space="preserve" font-family="Helvetica-Light" font-size="38.0" fill="#FEFFFE" transform="matrix(1.00, 0.00, -0.00, -1.00, 676.7, 279.0)">l</text><text xml:space="preserve" font-family="Helvetica-Light" font-size="38.0" fill="#FEFFFE" transform="matrix(1.00, 0.00, -0.00, -1.00, 685.1, 279.0)">e</text><text xml:space="preserve" font-family="Helvetica-Light" font-size="38.0" fill="#FEFFFE" transform="matrix(1.00, 0.00, -0.00, -1.00, 706.2, 279.0)">r</text><text xml:space="preserve" font-family="Helvetica-Light" font-size="38.0" fill="#FEFFFE" transform="matrix(1.00, 0.00, -0.00, -1.00, 718.9, 279.0)"> </text><text xml:space="preserve" font-family="Helvetica-Light" font-size="38.0" fill="#FEFFFE" transform="matrix(1.00, 0.00, -0.00, -1.00, 729.4, 279.0)">l</text><text xml:space="preserve" font-family="Helvetica-Light" font-size="38.0" fill="#FEFFFE" transform="matrix(1.00, 0.00, -0.00, -1.00, 737.9, 279.0)">a</text><text xml:space="preserve" font-family="Helvetica-Light" font-size="38.0" fill="#FEFFFE" transform="matrix(1.00, 0.00, -0.00, -1.00, 759.0, 279.0)">y</text><text xml:space="preserve" font-family="Helvetica-Light" font-size="38.0" fill="#FEFFFE" transform="matrix(1.00, 0.00, -0.00, -1.00, 778.0, 279.0)">o</text><text xml:space="preserve" font-family="Helvetica-Light" font-size="38.0" fill="#FEFFFE" transform="matrix(1.00, 0.00, -0.00, -1.00, 799.1, 279.0)">u</text><text xml:space="preserve" font-family="Helvetica-Light" font-size="38.0" fill="#FEFFFE" transform="matrix(1.00, 0.00, -0.00, -1.00, 820.3, 279.0)">t</text><text xml:space="preserve" font-family="Helvetica-Light" font-size="38.0" fill="#FEFFFE" transform="matrix(1.00, 0.00, -0.00, -1.00, 830.8, 279.0)"> </text><text xml:space="preserve" font-family="Helvetica-Light" font-size="38.0" fill="#FEFFFE" transform="matrix(1.00, 0.00, -0.00, -1.00, 841.4, 279.0)">f</text><text xml:space="preserve" font-family="Helvetica-Light" font-size="38.0" fill="#FEFFFE" transform="matrix(1.00, 0.00, -0.00, -1.00, 852.0, 279.0)">o</text><text xml:space="preserve" font-family="Helvetica-Light" font-size="38.0" fill="#FEFFFE" transform="matrix(1.00, 0.00, -0.00, -1.00, 873.1, 279.0)">r</text><text xml:space="preserve" font-family="Helvetica-Light" font-size="38.0" fill="#FEFFFE" transform="matrix(1.00, 0.00, -0.00, -1.00, 885.7, 279.0)"> </text><text xml:space="preserve" font-family="Helvetica-Light" font-size="38.0" fill="#FEFFFE" transform="matrix(1.00, 0.00, -0.00, -1.00, 79.0, 233.0)">m</text><text xml:space="preserve" font-family="Helvetica-Light" font-size="38.0" fill="#FEFFFE" transform="matrix(1.00, 0.00, -0.00, -1.00, 110.7, 233.0)">o</text><text xml:space="preserve" font-family="Helvetica-Light" font-size="38.0" fill="#FEFFFE" transform="matrix(1.00, 0.00, -0.00, -1.00, 131.8, 233.0)">b</text><text xml:space="preserve" font-family="Helvetica-Light" font-size="38.0" fill="#FEFFFE" transform="matrix(1.00, 0.00, -0.00, -1.00, 155.0, 233.0)">i</text><text xml:space="preserve" font-family="Helvetica-Light" font-size="38.0" fill="#FEFFFE" transform="matrix(1.00, 0.00, -0.00, -1.00, 163.4, 233.0)">l</text><text xml:space="preserve" font-family="Helvetica-Light" font-size="38.0" fill="#FEFFFE" transform="matrix(1.00, 0.00, -0.00, -1.00, 171.9, 233.0)">e</text><text xml:space="preserve" font-family="Helvetica-Light" font-size="38.0" fill="#FEFFFE" transform="matrix(1.00, 0.00, -0.00, -1.00, 193.0, 233.0)"> </text><text xml:space="preserve" font-family="Helvetica-Light" font-size="38.0" fill="#FEFFFE" transform="matrix(1.00, 0.00, -0.00, -1.00, 203.6, 233.0)">d</text><text xml:space="preserve" font-family="Helvetica-Light" font-size="38.0" fill="#FEFFFE" transform="matrix(1.00, 0.00, -0.00, -1.00, 226.8, 233.0)">e</text><text xml:space="preserve" font-family="Helvetica-Light" font-size="38.0" fill="#FEFFFE" transform="matrix(1.00, 0.00, -0.00, -1.00, 247.9, 233.0)">v</text><text xml:space="preserve" font-family="Helvetica-Light" font-size="38.0" fill="#FEFFFE" transform="matrix(1.00, 0.00, -0.00, -1.00, 266.9, 233.0)">i</text><text xml:space="preserve" font-family="Helvetica-Light" font-size="38.0" fill="#FEFFFE" transform="matrix(1.00, 0.00, -0.00, -1.00, 275.3, 233.0)">c</text><text xml:space="preserve" font-family="Helvetica-Light" font-size="38.0" fill="#FEFFFE" transform="matrix(1.00, 0.00, -0.00, -1.00, 296.5, 233.0)">e</text><text xml:space="preserve" font-family="Helvetica-Light" font-size="38.0" fill="#FEFFFE" transform="matrix(1.00, 0.00, -0.00, -1.00, 317.6, 233.0)">s</text><text xml:space="preserve" font-family="Helvetica-Light" font-size="38.0" fill="#FEFFFE" transform="matrix(1.00, 0.00, -0.00, -1.00, 336.6, 233.0)"> </text></g></svg>